<svg width="22" height="22" viewBox="0 0 22 22" fill="none" xmlns="http://www.w3.org/2000/svg">
<g clip-path="url(#clip0_16583_291510)">
<path d="M20.6979 13.7835C20.0595 16.1659 18.5767 18.2351 16.5259 19.6054C14.4751 20.9757 11.996 21.5538 9.55059 21.2318C7.10517 20.9099 4.86019 19.7099 3.2339 17.8555C1.60761 16.0011 0.710938 13.6187 0.710938 11.1521C0.710937 8.68562 1.60761 6.30322 3.2339 4.44879C4.86019 2.59437 7.10517 1.3944 9.55059 1.07245C11.996 0.750506 14.4751 1.32854 16.5259 2.69886C18.5767 4.06919 20.0595 6.13834 20.6978 8.52081L15.7877 9.83648C15.4685 8.64524 14.7272 7.61066 13.7018 6.9255C12.6763 6.24034 11.4368 5.95132 10.2141 6.1123C8.99139 6.27327 7.8689 6.87325 7.05575 7.80047C6.24261 8.72768 5.79427 9.91888 5.79427 11.1521C5.79427 12.3854 6.24261 13.5766 7.05575 14.5038C7.8689 15.431 8.99139 16.031 10.2141 16.192C11.4368 16.353 12.6763 16.0639 13.7018 15.3788C14.7272 14.6936 15.4685 13.659 15.7877 12.4678L20.6979 13.7835Z" fill="#3EDBB5"/>
</g>
<defs>
<clipPath id="clip0_16583_291510">
<rect width="20.3333" height="20.3333" fill="white" transform="translate(0.710938 0.985474)"/>
</clipPath>
</defs>
</svg>
