<svg width="18" height="19" viewBox="0 0 18 19" fill="none" xmlns="http://www.w3.org/2000/svg">
<g clip-path="url(#clip0_16583_291508)">
<path d="M8.84058 0C13.7235 0 17.6812 4.15633 17.6812 9.28261C17.6812 14.4097 13.7235 18.5652 8.84058 18.5652C3.95841 18.5652 0 14.4093 0 9.28261C0 4.15633 3.95841 0 8.84058 0Z" fill="#F5AC37"/>
<path d="M9.16733 9.93351H12.5266C12.5982 9.93351 12.632 9.93351 12.6372 9.83492C12.6646 9.4761 12.6646 9.11519 12.6372 8.75595C12.6372 8.68619 12.6042 8.65737 12.5322 8.65737H5.84664C5.76389 8.65737 5.74161 8.68619 5.74161 8.76764V9.80025C5.74161 9.93351 5.74161 9.93351 5.87409 9.93351H9.16733ZM12.262 7.45057C12.2716 7.42425 12.2716 7.39543 12.262 7.36953C12.206 7.24129 12.1395 7.1189 12.0623 7.00402C11.9462 6.80769 11.8093 6.62682 11.6534 6.46433C11.5798 6.36616 11.4946 6.27802 11.3992 6.20325C10.921 5.77592 10.3525 5.47349 9.74139 5.32144C9.43307 5.24876 9.11799 5.21409 8.80212 5.21701H5.8351C5.75235 5.21701 5.74121 5.25168 5.74121 5.32729V7.38666C5.74121 7.47354 5.74121 7.49694 5.84624 7.49694H12.2223C12.2223 7.49694 12.2776 7.48524 12.2887 7.45057H12.2616H12.262ZM12.262 11.1403C12.1682 11.1294 12.0735 11.1294 11.9796 11.1403H5.85221C5.76946 11.1403 5.74161 11.1403 5.74161 11.2564V13.2698C5.74161 13.3626 5.74161 13.386 5.85221 13.386H8.68118C8.81644 13.3968 8.9517 13.3868 9.08418 13.3572C9.49474 13.3262 9.89854 13.2327 10.2836 13.0785C10.4237 13.0276 10.5589 12.9612 10.6866 12.8814H10.7252C11.3884 12.5192 11.9271 11.9503 12.2668 11.2518C12.2668 11.2518 12.3054 11.1641 12.262 11.1411V11.1403ZM4.63127 14.4299V14.3952V13.0434V12.5852V11.2218C4.63127 11.1462 4.63127 11.1349 4.54295 11.1349H3.34389C3.27745 11.1349 3.25 11.1349 3.25 11.0421V9.93977H4.53181C4.60342 9.93977 4.63127 9.93977 4.63127 9.84119V8.75052C4.63127 8.68076 4.63127 8.66363 4.54295 8.66363H3.34389C3.27745 8.66363 3.25 8.66363 3.25 8.5709V7.54999C3.25 7.48607 3.25 7.46895 3.33832 7.46895H4.52624C4.60899 7.46895 4.63127 7.46895 4.63127 7.35867V4.23161C4.63127 4.13887 4.63127 4.11548 4.74186 4.11548H8.88566C9.18642 4.12801 9.48519 4.16268 9.78078 4.21991C10.3899 4.33812 10.9751 4.56662 11.5101 4.89286C11.865 5.11216 12.1916 5.377 12.4824 5.68193C12.7012 5.92045 12.8986 6.17861 13.0736 6.45347C13.2475 6.73209 13.3919 7.02992 13.5053 7.34113C13.5192 7.42216 13.5932 7.47688 13.6704 7.4631H14.6594C14.7863 7.4631 14.7863 7.4631 14.7918 7.59092V8.54249C14.7918 8.63523 14.7588 8.65862 14.6701 8.65862H13.9075C13.8303 8.65862 13.808 8.65862 13.8136 8.76305C13.8438 9.11644 13.8438 9.47109 13.8136 9.82448C13.8136 9.92306 13.8136 9.93476 13.919 9.93476H14.7914C14.83 9.98697 14.7914 10.0392 14.7914 10.0918C14.797 10.1591 14.797 10.2272 14.7914 10.2944V10.9966C14.7914 11.0952 14.764 11.1244 14.6809 11.1244H13.6365C13.5637 11.1098 13.4929 11.1587 13.4762 11.2347C13.2276 11.9135 12.8297 12.5221 12.3158 13.01C12.128 13.1876 11.9307 13.3546 11.7246 13.5088C11.5034 13.6425 11.2882 13.7816 11.0614 13.8918C10.6441 14.089 10.2065 14.2344 9.75731 14.3267C9.33083 14.4069 8.89839 14.4432 8.46436 14.437H4.62967V14.4311L4.63127 14.4299Z" fill="#FEFEFD"/>
</g>
<defs>
<clipPath id="clip0_16583_291508">
<rect width="17.6812" height="18.5652" fill="white"/>
</clipPath>
</defs>
</svg>
