<svg width="26" height="24" viewBox="0 0 26 24" fill="none" xmlns="http://www.w3.org/2000/svg">
<g clip-path="url(#clip0_16583_291505)">
<path fill-rule="evenodd" clip-rule="evenodd" d="M9.23207 17.6203C9.22653 17.6174 9.22105 17.6142 9.21543 17.6112L14.0642 14.1977L10.7339 10.3953L5.87495 13.8161C5.6754 13.2185 5.56742 12.5855 5.56742 11.9298C5.56742 8.36354 8.73738 5.46122 12.6888 5.36387L8.9108 1.0376C3.7809 2.53214 0.0722656 6.85241 0.0722656 11.95C0.0722656 18.2862 5.80141 23.4226 12.8687 23.4226C13.3072 23.4226 13.7406 23.4027 14.1678 23.3641L9.18237 17.6552L9.23207 17.6203Z" fill="#EE0766"/>
<path fill-rule="evenodd" clip-rule="evenodd" d="M21.9917 18.3373C20.904 19.5762 19.5164 20.6032 17.9378 21.2745C17.5356 21.4527 17.1326 21.6313 17.1326 21.6313L14.9648 19.2393L16.0019 18.9183C17.3516 18.376 18.5717 17.5446 19.4916 16.5102C19.7216 16.2516 19.9328 15.9803 20.1227 15.6975C21.1461 14.1654 21.3275 12.314 21.0952 10.5003C21.0832 10.4074 21.0969 10.2711 21.075 10.18C20.9484 9.37822 20.4038 8.98966 19.6654 9.08023C19.5025 9.10707 19.409 9.16637 19.409 9.16637L15.227 12.1894L13.1032 9.82786L17.291 6.80059C18.1094 6.15371 17.3716 5.48278 16.8856 4.95249C16.8856 4.95249 16.8179 4.87681 16.7163 4.7633C16.4118 4.42294 15.8025 3.74221 15.8025 3.74221L13.8345 1.52476L14.7796 1.65197C14.7796 1.65197 15.1378 1.72256 15.4965 1.79315C17.1671 2.13208 18.7286 2.81804 20.0569 3.76707C20.3226 3.957 20.5789 4.15744 20.8258 4.36806C21.8114 5.21152 22.6765 6.18168 23.3098 7.2527C23.4681 7.52043 23.6119 7.79456 23.7396 8.07452C24.9246 11.1576 24.765 14.8295 22.6074 17.5697C22.4147 17.8332 22.2092 18.0895 21.9917 18.3373ZM12.8682 0.478271C12.4361 0.478271 12.009 0.497754 11.5879 0.535279L16.5789 6.25319L11.7395 9.66024L15.0698 13.4626L19.9148 10.0517C20.1127 10.6471 20.22 11.2776 20.22 11.9307C20.22 15.5164 17.0154 18.4306 13.0339 18.4977L16.8421 22.8586C21.9637 21.3598 25.6647 17.0433 25.6647 11.9509C25.6647 5.61475 19.9354 0.478271 12.8682 0.478271Z" fill="#EE0766"/>
</g>
<defs>
<clipPath id="clip0_16583_291505">
<rect width="25.6377" height="22.9855" fill="white" transform="translate(0.0722656 0.478271)"/>
</clipPath>
</defs>
</svg>
