<svg width="19" height="18" viewBox="0 0 19 18" fill="none" xmlns="http://www.w3.org/2000/svg">
<g clip-path="url(#clip0_16583_291503)">
<path d="M12.2138 1.17761V4.19273C14.1836 5.14843 15.4239 7.06948 15.4273 9.17392C15.4273 11.2784 14.1869 13.2027 12.2138 14.1584V17.1606C15.8744 16.0537 18.3619 12.8262 18.3686 9.17392C18.3652 5.51846 15.8778 2.28455 12.2138 1.17761ZM6.86572 1.18727C3.20512 2.29098 0.714299 5.52169 0.710938 9.17392C0.710938 12.8294 3.20176 16.0601 6.86572 17.167V14.1519C4.89593 13.1962 3.65555 11.2752 3.6522 9.17072C3.6522 7.06625 4.89256 5.13877 6.86572 4.1863V1.18727Z" fill="#3D92EF"/>
<path d="M9.53758 0.782593C8.88882 0.785811 8.24343 0.859821 7.61149 0.998188V3.89424C8.22998 3.68508 8.88209 3.5789 9.53758 3.57567C10.1931 3.5789 10.8452 3.68508 11.4637 3.89101V0.991752C10.8317 0.856603 10.1863 0.785811 9.53758 0.782593ZM12.2133 1.17839V4.18706V1.17839ZM6.86523 1.18804V4.19349V1.18804ZM9.53758 6.24969C8.83505 6.24969 8.15604 6.48138 7.61149 6.89971V11.4465C8.15604 11.8648 8.8384 12.0965 9.53758 12.0965C10.2401 12.0965 10.9191 11.8648 11.4637 11.4465V6.89971C10.9191 6.48138 10.2401 6.24969 9.53758 6.24969ZM6.86523 7.7299V10.6131V7.7299ZM12.2133 7.73313V10.6163V7.73313ZM12.2133 14.1527V17.1614V14.1527ZM6.86523 14.1591V17.1678V14.1591ZM11.467 14.452C10.8485 14.6611 10.1964 14.7673 9.54093 14.7705C8.88547 14.7673 8.23335 14.6611 7.61483 14.4552V17.3545C8.24678 17.4928 8.89219 17.5604 9.54093 17.5636C10.1897 17.5604 10.8351 17.4864 11.467 17.348V14.452Z" fill="#81BFFF"/>
<path d="M9.53882 8.28992C8.89008 8.29312 8.24466 8.33175 7.60938 8.40897V17.3642C8.24132 17.4382 8.89008 17.4768 9.53882 17.48C10.1876 17.4768 10.833 17.4382 11.4649 17.361V8.40577C10.833 8.33175 10.1876 8.29312 9.53882 8.28992ZM12.2145 8.50872V17.258V8.50872Z" fill="#81BFFF"/>
</g>
<defs>
<clipPath id="clip0_16583_291503">
<rect width="17.6812" height="16.7971" fill="white" transform="translate(0.710938 0.782593)"/>
</clipPath>
</defs>
</svg>
