<svg width="26" height="25" viewBox="0 0 26 25" fill="none" xmlns="http://www.w3.org/2000/svg">
<g clip-path="url(#clip0_16583_291509)">
<path fill-rule="evenodd" clip-rule="evenodd" d="M19.2082 9.90838C20.4972 11.8744 18.1266 15.7753 13.9178 18.6205C9.96958 21.2893 5.80284 22.0832 4.23643 20.5467C4.13275 20.4272 4.03468 20.3077 3.9394 20.1826C3.09875 18.8509 3.90297 16.6516 5.80561 14.492C6.03256 14.6571 6.3128 14.7538 6.61265 14.7538C7.38606 14.7538 8.01371 14.1165 8.01371 13.3312C8.01371 13.0552 7.93521 12.7992 7.80072 12.58C8.25468 12.2073 8.73948 11.846 9.24944 11.5017C13.461 8.65645 17.9192 7.94231 19.2082 9.90838Z" fill="#0CA4FB"/>
<path fill-rule="evenodd" clip-rule="evenodd" d="M13.9178 18.6205C9.96958 21.2893 5.80284 22.0832 4.23643 20.5467C4.13275 20.45 4.04029 20.3361 3.95901 20.2139C3.9534 20.2025 3.94501 20.1939 3.9394 20.1826C3.09875 18.8509 3.90297 16.6516 5.80561 14.492C6.03256 14.6571 6.3128 14.7538 6.61265 14.7538C7.38606 14.7538 8.01371 14.1165 8.01371 13.3312C8.01371 13.0552 7.93521 12.7992 7.80072 12.58C8.25468 12.2073 8.73948 11.846 9.24944 11.5017C13.461 8.65645 17.9192 7.94231 19.2082 9.90838C20.4972 11.8744 18.1266 15.7753 13.9178 18.6205Z" fill="#0CA4FB"/>
<path fill-rule="evenodd" clip-rule="evenodd" d="M24.2666 6.71389C21.697 4.91854 16.0031 6.09363 10.6258 9.72701C9.47126 10.5066 8.41488 11.3431 7.47338 12.2109C7.238 12.0203 6.93818 11.9093 6.61312 11.9093C5.83975 11.9093 5.21206 12.5467 5.21206 13.332C5.21206 13.6706 5.32975 13.9806 5.52587 14.2253C4.25371 15.7191 3.34585 17.2271 2.88627 18.6071C1.8691 16.8003 1.28906 14.709 1.28906 12.4784C1.28906 5.64409 6.74761 0.101562 13.4783 0.101562C18.1579 0.101562 22.2238 2.78178 24.2666 6.71389Z" fill="#0CA4FB"/>
<path fill-rule="evenodd" clip-rule="evenodd" d="M25.6675 12.4776C25.6675 19.3119 20.2089 24.8544 13.4782 24.8544C11.8922 24.8544 10.3762 24.5472 8.98633 23.9866C11.5615 23.5598 14.6102 22.3051 17.5637 20.3077C21.9378 17.3515 24.9165 13.5702 25.5273 10.5969C25.6198 11.2086 25.6675 11.8374 25.6675 12.4776Z" fill="#0CA4FB"/>
<path fill-rule="evenodd" clip-rule="evenodd" d="M13.9178 18.6205C9.96958 21.2893 5.80284 22.0832 4.23643 20.5467C4.13275 20.45 4.04029 20.3361 3.95901 20.2139C3.9534 20.2025 3.94501 20.1939 3.9394 20.1826C3.09875 18.8509 3.90297 16.6516 5.80561 14.492C6.03256 14.6571 6.3128 14.7538 6.61265 14.7538C7.38606 14.7538 8.01371 14.1165 8.01371 13.3312C8.01371 13.0552 7.93521 12.7992 7.80072 12.58C8.25468 12.2073 8.73948 11.846 9.24944 11.5017C13.461 8.65645 17.9192 7.94231 19.2082 9.90838C20.4972 11.8744 18.1266 15.7753 13.9178 18.6205Z" fill="#0CA4FB"/>
</g>
<defs>
<clipPath id="clip0_16583_291509">
<rect width="24.7536" height="24.7536" fill="white" transform="translate(0.914062 0.101562)"/>
</clipPath>
</defs>
</svg>
