<svg width="22" height="22" viewBox="0 0 22 22" fill="none" xmlns="http://www.w3.org/2000/svg">
<g clip-path="url(#clip0_16583_291504)">
<path fill-rule="evenodd" clip-rule="evenodd" d="M15.6293 4.69259C18.6629 4.9587 21.0579 7.40685 21.2175 10.4404C21.0579 5.43768 16.9066 1.44612 11.8507 1.60578C8.8703 1.71223 6.10282 3.20241 4.50619 5.70379C4.7723 2.6702 7.22045 0.275263 10.254 0.115601C5.19806 0.328484 1.31294 4.63937 1.52583 9.69535C1.63227 12.5693 3.12245 15.2303 5.51739 16.8269C2.4838 16.5608 0.142084 14.1127 -0.0175781 11.0791C0.0888635 16.0818 4.29331 20.0734 9.29607 19.967C12.2764 19.9137 14.9907 18.3703 16.6405 15.9222C16.3744 18.9026 13.9263 21.2443 10.9459 21.4039C15.9487 21.2443 19.887 17.0398 19.7273 11.9838C19.6209 9.0567 18.1307 6.28922 15.6293 4.69259ZM10.5737 14.5915C9.56249 14.5915 8.60452 14.219 7.91265 13.4739C6.42247 11.9837 6.47569 9.58879 7.91265 8.15183C9.34961 6.71486 11.7978 6.71486 13.2347 8.15183C14.6717 9.58879 14.6717 12.0369 13.2347 13.4739C12.5429 14.219 11.5849 14.5915 10.5737 14.5915Z" fill="#69E2DC"/>
</g>
<defs>
<clipPath id="clip0_16583_291504">
<rect width="21.2174" height="21.2174" fill="white" transform="translate(0 0.144897)"/>
</clipPath>
</defs>
</svg>
