<svg width="17" height="17" viewBox="0 0 17 17" fill="none" xmlns="http://www.w3.org/2000/svg">
<g clip-path="url(#clip0_16583_291511)">
<path d="M8.49038 2.11295C10.1605 2.1154 11.7614 2.78058 12.9415 3.96242C14.1216 5.14426 14.7845 6.74613 14.7845 8.41628C14.782 10.0848 14.1181 11.6843 12.9383 12.8642C11.7584 14.044 10.1589 14.7079 8.49038 14.7104C6.82023 14.7104 5.21836 14.0475 4.03652 12.8674C2.85468 11.6873 2.1895 10.0864 2.18705 8.41628C2.18705 6.74453 2.85115 5.14125 4.03326 3.95915C5.21536 2.77705 6.81863 2.11295 8.49038 2.11295ZM8.49038 0.0118429C7.38647 0.0110693 6.29324 0.22793 5.27322 0.650019C4.2532 1.07211 3.3264 1.69114 2.54582 2.47172C1.76524 3.2523 1.1462 4.1791 0.724111 5.19912C0.302022 6.21915 0.085166 7.31237 0.0859396 8.41628C0.0863809 9.5194 0.304146 10.6116 0.726778 11.6306C1.14941 12.6495 1.76862 13.5753 2.54908 14.3549C3.32954 15.1345 4.25593 15.7527 5.27535 16.1742C6.29477 16.5957 7.38725 16.8122 8.49038 16.8115C10.7166 16.8106 12.8515 15.9258 14.4257 14.3516C15.9999 12.7774 16.8847 10.6425 16.8856 8.41628C16.8863 7.31315 16.6698 6.22068 16.2483 5.20126C15.8268 4.18184 15.2086 3.25544 14.429 2.47499C13.6494 1.69453 12.7236 1.0753 11.7047 0.652671C10.6857 0.230038 9.5935 0.0122842 8.49038 0.0118429Z" fill="#FF5847"/>
<path d="M8.48906 6.30672L10.5902 8.41707L8.48906 10.5182L6.37869 8.41707L8.48906 6.30672ZM8.48906 3.7627C8.35372 3.76254 8.21967 3.78911 8.09463 3.84089C7.96958 3.89266 7.85601 3.96863 7.7604 4.06442L4.13976 7.68504C4.04406 7.78073 3.96815 7.89433 3.91635 8.01935C3.86456 8.14438 3.83789 8.27838 3.83789 8.41371C3.83789 8.54904 3.86456 8.68305 3.91635 8.80807C3.96815 8.9331 4.04406 9.04669 4.13976 9.14238L7.7604 12.763C7.8559 12.8589 7.96945 12.935 8.09452 12.9868C8.21959 13.0386 8.35369 13.0651 8.48906 13.0647C8.62454 13.065 8.75874 13.0385 8.88394 12.9867C9.00913 12.9349 9.12284 12.8589 9.21855 12.763L12.8384 9.14238C12.9341 9.04669 13.01 8.9331 13.0618 8.80807C13.1136 8.68305 13.1402 8.54904 13.1402 8.41371C13.1402 8.27838 13.1136 8.14438 13.0618 8.01935C13.01 7.89433 12.9341 7.78073 12.8384 7.68504L9.21855 4.06442C9.12273 3.96868 9.00898 3.89275 8.88381 3.84098C8.75864 3.78922 8.62451 3.76261 8.48906 3.7627Z" fill="#FF5847"/>
</g>
<defs>
<clipPath id="clip0_16583_291511">
<rect width="16.7971" height="16.7971" fill="white" transform="translate(0.0878906 0.0145264)"/>
</clipPath>
</defs>
</svg>
