<svg width="23" height="23" viewBox="0 0 23 23" fill="none" xmlns="http://www.w3.org/2000/svg">
<g clip-path="url(#clip0_16583_291502)">
<path d="M11.1963 0C10.308 0.0015237 9.42303 0.109854 8.56055 0.322659V7.23904H13.5897L15.1959 8.84517V21.3514C17.2722 20.5446 19.0563 19.1292 20.3143 17.2908C21.5723 15.4524 22.2454 13.2769 22.2456 11.0493C22.2456 5.3289 17.2981 0 11.1963 0Z" fill="#EABC4C"/>
<path d="M13.9888 15.0091H9.07429L7.42801 13.3628V0.660034C4.77013 1.64028 2.59006 3.60359 1.33782 6.14467C0.0855705 8.68575 -0.14328 11.6106 0.698554 14.3155C1.54039 17.0204 3.38863 19.2989 5.86173 20.6806C8.33483 22.0622 11.244 22.4416 13.9888 21.7404V15.0091Z" fill="#EABC4C"/>
</g>
<defs>
<clipPath id="clip0_16583_291502">
<rect width="22.1014" height="22.1014" fill="white" transform="translate(0.146484)"/>
</clipPath>
</defs>
</svg>
