<svg width="148" height="24" viewBox="0 0 148 24" fill="none" xmlns="http://www.w3.org/2000/svg">
<g clip-path="url(#clip0_3511_2816)">
<path d="M33.9 8.94926H30.584L29.9699 10.8532H28.0049L31.4049 0.924561H33.2439L36.6989 10.8532H34.527L33.9 8.94926ZM32.5749 4.78389L32.2549 3.72725H32.242L31.9091 4.78389L31.1722 7.14523H33.3182L32.5814 4.78389H32.5749Z" fill="black"/>
<path d="M39.669 0.924561L42.4291 6.1047L45.2021 0.924561H47.0411V10.8532H45.0502V5.1447H45.0373L42.6133 9.54845H42.1253L39.7692 5.1447H39.7563V10.8532H37.7492V0.924561H39.6722H39.669Z" fill="black"/>
<path d="M56.0841 9.0459C56.0841 10.0446 55.5961 10.8499 54.1482 10.8499H48.9641V0.924561H54.0771C55.525 0.924561 56.013 1.72993 56.013 2.72859V4.11704C56.013 4.74201 55.6801 5.58926 54.7461 5.78255V5.81154C55.7222 5.97906 56.0841 6.65879 56.0841 7.33852V9.0459ZM51.0552 4.90631H53.1043C53.6052 4.90631 53.9413 4.55839 53.9413 4.05906V3.25369C53.9413 2.96053 53.6893 2.71248 53.3984 2.71248H51.0584V4.90631H51.0552ZM53.9381 7.54469C53.9381 7.04537 53.6052 6.71033 53.101 6.71033H51.052V9.05879H53.3919C53.686 9.05879 53.9349 8.80751 53.9349 8.51758V7.54469H53.9381Z" fill="black"/>
<path d="M28.8032 15.5888C28.8032 14.6739 29.2492 13.9362 30.5872 13.9362H34.1553C35.4933 13.9362 35.9393 14.6707 35.9393 15.5888V17.0191L33.9064 17.4089V15.7692H30.8846V22.0317H33.9064V20.1021L35.9393 20.4919V22.2154C35.9393 23.1303 35.4933 23.868 34.1553 23.868H30.5872C29.2492 23.868 28.8032 23.1335 28.8032 22.2154V15.592V15.5888Z" fill="black"/>
<path d="M42.846 13.9362C44.1841 13.9362 44.6301 14.6707 44.6301 15.5888V18.4366C44.6301 19.3547 44.1841 20.0763 42.846 20.0763H42.6359L45.27 23.868H42.7911L40.296 20.0763H39.5979V23.868H37.5068V13.9394H42.8428L42.846 13.9362ZM39.6011 18.24H42.0962C42.3483 18.24 42.5551 18.0307 42.5551 17.7826V16.2266C42.5551 15.9754 42.3451 15.7692 42.0962 15.7692H39.6011V18.24Z" fill="black"/>
<path d="M48.2822 19.49L45.2441 13.9362H47.5711L49.4101 17.4508L51.2491 13.9362H53.463L50.425 19.49V23.8647H48.2789V19.49H48.2822Z" fill="black"/>
<path d="M61.488 18.5042C61.488 19.4223 61.0419 20.1439 59.7039 20.1439H56.5689V23.8647H54.4778V13.9362H59.7007C61.0387 13.9362 61.4847 14.6707 61.4847 15.5888V18.5042H61.488ZM56.5689 15.7692V18.3109H58.9509C59.203 18.3109 59.4098 18.1015 59.4098 17.8535V16.2298C59.4098 15.9786 59.1997 15.7724 58.9509 15.7724H56.5689V15.7692Z" fill="black"/>
<path d="M62.1602 13.9362H69.1251V15.7692H66.6882V23.8647H64.5971V15.7692H62.1602V13.9362Z" fill="black"/>
<path d="M78 22.2121C78 23.127 77.554 23.8647 76.216 23.8647H71.966C70.6279 23.8647 70.1819 23.1302 70.1819 22.2121V15.5888C70.1819 14.6739 70.6279 13.9362 71.966 13.9362H76.216C77.554 13.9362 78 14.6707 78 15.5888V22.2121ZM75.9089 15.7692H72.2601V22.0317H75.9089V15.7692Z" fill="black"/>
<path d="M8.02494 16.0011H0V24H8.02494V16.0011Z" fill="#D98C45"/>
<path d="M16.0531 0H8.02494H0V7.99893H8.02494V16.0011H16.0531V24H24.0781V16.0011V7.99893V0H16.0531Z" fill="#D98C45"/>
</g>
<defs>
<clipPath id="clip0_3511_2816">
<rect width="148" height="24" fill="white"/>
</clipPath>
</defs>
</svg>
