<svg width="182" height="54" viewBox="0 0 182 54" fill="none" xmlns="http://www.w3.org/2000/svg">
    <path d="M38.3566 25.3439L43.0277 20.5637L47.7011 25.3464L50.4194 22.5649L43.0277 15L35.6383 22.5624L38.3566 25.3439ZM36.4366 27.3076L33.7183 24.5261L31 27.3076L33.7183 30.0892L36.4366 27.3076ZM38.356 29.2719L43.0277 34.0522L47.7011 29.2695L50.4206 32.0498L50.4194 32.051L43.0277 39.6153L35.6383 32.0535L35.6342 32.0498L38.356 29.2719ZM52.3365 30.0904L55.0548 27.3089L52.3365 24.5273L49.6182 27.3089L52.3365 30.0904Z" fill="#F3BA2F"/>
    <path d="M45.7845 27.3038H45.785L43.0269 24.481L40.9891 26.5672L40.7547 26.8072L40.2711 27.3013L40.2676 27.305L40.2711 27.3093L43.0269 30.129L45.785 27.3069L45.7868 27.305L45.7839 27.3038H45.7845ZM59.2914 20.9623H65.2027C66.6701 20.9623 67.7794 21.3475 68.5312 22.118C69.1135 22.7149 69.4038 23.4546 69.4038 24.337V24.374C69.4038 24.7475 69.3592 25.0767 69.2682 25.3629C69.1832 25.6371 69.0613 25.8975 68.9059 26.1364C68.7589 26.3625 68.5823 26.5665 68.3813 26.7426C68.1837 26.9156 67.9683 27.0657 67.7389 27.1899C68.4765 27.4761 69.0564 27.8644 69.4799 28.3555C69.9028 28.8465 70.1146 29.5272 70.1146 30.3973V30.4342C70.1146 31.0311 70.0028 31.5536 69.7785 32.001C69.5521 32.4512 69.2207 32.8359 68.8143 33.1204C68.3956 33.4188 67.8924 33.6422 67.3035 33.7911C66.7158 33.9407 66.0639 34.0151 65.349 34.0151H59.2914V20.9623ZM64.6114 26.2392C65.2312 26.2392 65.7237 26.1309 66.0877 25.913C66.4518 25.6952 66.6344 25.3438 66.6344 24.8595V24.8226C66.6344 24.3869 66.4761 24.0546 66.1603 23.8244C65.8445 23.5943 65.3888 23.4798 64.794 23.4798H62.024V26.2392H64.6114ZM65.3591 31.4976C65.9783 31.4976 66.4642 31.3831 66.8164 31.153C67.1691 30.9228 67.3452 30.5653 67.3452 30.0804V30.0435C67.3452 29.6084 67.181 29.2632 66.8533 29.0084C66.5249 28.7536 65.9967 28.6269 65.2675 28.6269H62.024V31.4982H65.3591V31.4976ZM73.6359 20.9623H76.4422V34.0151H73.6359V20.9623ZM80.6921 20.9623H83.2796L89.2562 28.9992V20.9623H92.0257V34.0151H89.6387L83.4616 25.7173V34.0151H80.6921V20.9623ZM100.522 20.8687H103.109L108.576 34.0151H105.642L104.476 31.0878H99.0819L97.9161 34.0151H95.055L100.522 20.8687ZM103.473 28.5518L101.779 24.3186L100.085 28.5518H103.473ZM111.606 20.9623H114.193L120.17 28.9992V20.9623H122.939V34.0151H120.553L114.375 25.7173V34.0151H111.606V20.9623ZM133.038 34.2391C132.103 34.2391 131.234 34.065 130.433 33.7167C129.657 33.3866 128.951 32.9019 128.356 32.2902C127.767 31.6796 127.302 30.9536 126.989 30.1548C126.658 29.3208 126.491 28.4273 126.497 27.5259V27.489C126.497 26.5561 126.661 25.6829 126.989 24.8687C127.307 24.0696 127.771 23.3414 128.356 22.7241C128.938 22.1087 129.637 21.6238 130.45 21.2694C131.264 20.9155 132.164 20.7383 133.148 20.7383C133.743 20.7383 134.286 20.7881 134.778 20.8872C135.27 20.9869 135.716 21.1235 136.118 21.2977C136.509 21.4667 136.882 21.6792 137.23 21.9315C137.569 22.1807 137.885 22.454 138.176 22.7524L136.391 24.8595C135.892 24.3998 135.386 24.0386 134.869 23.7776C134.353 23.5167 133.773 23.3863 133.129 23.3863C132.595 23.3863 132.099 23.4921 131.644 23.7032C131.198 23.9075 130.797 24.206 130.469 24.5795C130.138 24.9582 129.878 25.3978 129.703 25.8755C129.519 26.3787 129.427 26.9128 129.43 27.4509V27.4884C129.43 28.0478 129.521 28.5764 129.703 29.073C129.886 29.5708 130.138 30.0059 130.46 30.3788C130.795 30.7667 131.207 31.0757 131.668 31.2848C132.128 31.4939 132.627 31.5984 133.129 31.5911C133.858 31.5911 134.474 31.4539 134.979 31.1807C135.483 30.9075 135.984 30.5345 136.482 30.0619L138.267 31.9081C137.951 32.2572 137.61 32.5812 137.247 32.8773C136.895 33.1634 136.509 33.409 136.09 33.6145C135.671 33.8194 135.212 33.9751 134.715 34.0804C134.216 34.1856 133.658 34.2391 133.038 34.2391ZM141.57 20.9623H151.173V23.5167H144.34V26.1647H150.353V28.7192H144.34V31.4607H151.265V34.0151H141.57V20.9623Z" fill="#F3BA2F"/>
</svg>
