<svg xmlns="http://www.w3.org/2000/svg" width="182" height="54" viewBox="0 0 182 54" fill="none">
<path d="M137.15 28.0392C137.03 26.076 137.856 23.892 139.55 22.1977C143.241 18.5065 150.931 19.0249 150.974 19.0249C150.955 19.0537 145.334 27.204 138.672 27.9672C138.158 28.0296 137.649 28.0488 137.15 28.0392Z" fill="#03CA9B"/>
<path d="M137.928 30.5495C138.12 30.8519 138.345 31.1351 138.605 31.3943C140.885 33.6743 145.003 33.2519 147.801 30.4487C151.502 26.748 150.974 19.0249 150.974 19.0249C150.955 19.0681 146.923 28.1016 140.525 30.0695C139.651 30.3383 138.777 30.4967 137.928 30.5495Z" fill="#03CA9B"/>
<path d="M39.3231 30.8231H33.5104V27.4056H39.3231C40.7774 27.4056 41.5166 28.1736 41.5166 29.1672C41.5166 30.1223 40.7918 30.8231 39.3231 30.8231ZM39.1359 25.572H33.5104V22.6921H39.1311C40.6622 22.6921 41.2622 23.2873 41.2622 24.1032C41.267 24.8568 40.571 25.572 39.1359 25.572ZM40.619 26.4456C43.067 26.3592 43.9502 25.0152 43.9502 23.5513C43.9502 21.9481 42.7982 20.6185 39.9854 20.6185H31V32.8631H40.2542C42.5582 32.8631 44.2814 31.7975 44.2814 29.5128C44.2814 27.8904 43.3214 26.5128 40.619 26.4456ZM47.2477 20.6185V32.8631H49.7581V20.6185H47.2477ZM59.9435 22.9369H65.473V20.6185H51.9037V22.9369H57.4332V32.8631H59.9435V22.9369ZM67.6138 20.6185V32.8631H70.1241V28.0824H76.0136V26.076H70.1289V22.7257H79.7V20.6137L67.6138 20.6185ZM81.7304 20.6185V32.8631H84.2407V20.6185H81.7304ZM90.1302 23.5993L98.4533 32.8631H101.295V20.6185H98.8133V29.4456L90.8262 20.6185H87.6343V32.8631H90.1302V23.5993ZM104.688 20.6185V32.8631H116.976V30.8039H107.199V27.4392H113.059V25.5384H107.199V22.7257H116.976V20.6137L104.688 20.6185ZM133.795 20.6185H130.478L126.245 24.9288L122.045 20.6185H118.68L124.589 26.652L118.459 32.8631H121.776L126.216 28.3464L130.637 32.8631H134.016L127.872 26.6376L133.795 20.6185Z" fill="#102331"/>
</svg>