<svg xmlns="http://www.w3.org/2000/svg" width="182" height="54" viewBox="0 0 182 54" fill="none">
<path fill-rule="evenodd" clip-rule="evenodd" d="M37.5 21.5652C34.2223 21.5652 31.5652 24.2223 31.5652 27.5C31.5652 30.7777 34.2223 33.4348 37.5 33.4348C39.2291 33.4348 40.7855 32.6953 41.8702 31.5154L45.0235 34.8244C43.1161 36.7833 40.4501 38 37.5 38C31.701 38 27 33.299 27 27.5C27 21.701 31.701 17 37.5 17C40.3316 17 42.9014 18.1209 44.79 19.9431L41.4895 23.1061C40.4356 22.1487 39.036 21.5652 37.5 21.5652ZM37.5 32.5217C40.2734 32.5217 42.5217 30.2734 42.5217 27.5C42.5217 24.7266 40.2734 22.4783 37.5 22.4783C34.7266 22.4783 32.4783 24.7266 32.4783 27.5C32.4783 30.2734 34.7266 32.5217 37.5 32.5217Z" fill="#00B8FA"/>
<path d="M35.4017 30.2391L33.9767 25.2589H35.1269L35.9513 28.7193H35.9926L36.9021 25.2589H37.887L38.794 28.7266H38.8378L39.6622 25.2589H40.8124L39.3874 30.2391H38.3612L37.4128 26.983H37.3739L36.4279 30.2391H35.4017Z" fill="white"/>
<path d="M60.7262 25.6849H58.1699C58.1232 25.3542 58.0279 25.0605 57.884 24.8037C57.74 24.543 57.5552 24.3212 57.3295 24.1383C57.1038 23.9555 56.8432 23.8154 56.5475 23.7181C56.2556 23.6209 55.9385 23.5722 55.5962 23.5722C54.9775 23.5722 54.4386 23.7259 53.9795 24.0333C53.5204 24.3368 53.1644 24.7803 52.9115 25.3639C52.6586 25.9437 52.5321 26.6479 52.5321 27.4767C52.5321 28.3287 52.6586 29.0447 52.9115 29.6244C53.1683 30.2041 53.5262 30.6418 53.9854 30.9375C54.4445 31.2332 54.9756 31.3811 55.5786 31.3811C55.9171 31.3811 56.2304 31.3363 56.5183 31.2469C56.8101 31.1574 57.0688 31.027 57.2945 30.8558C57.5202 30.6807 57.7069 30.4687 57.8548 30.2197C58.0065 29.9707 58.1116 29.6866 58.1699 29.3676L60.7262 29.3793C60.66 29.9279 60.4947 30.457 60.2301 30.9667C59.9694 31.4725 59.6173 31.9258 59.1738 32.3266C58.7341 32.7234 58.2088 33.0386 57.598 33.272C56.991 33.5016 56.3043 33.6164 55.5378 33.6164C54.4717 33.6164 53.5185 33.3751 52.678 32.8927C51.8415 32.4102 51.1801 31.7118 50.6937 30.7975C50.2113 29.8831 49.97 28.7762 49.97 27.4767C49.97 26.1732 50.2152 25.0644 50.7054 24.15C51.1956 23.2357 51.861 22.5392 52.7014 22.0607C53.5418 21.5782 54.4873 21.337 55.5378 21.337C56.2304 21.337 56.8723 21.4342 57.4637 21.6288C58.059 21.8233 58.5862 22.1073 59.0454 22.4809C59.5045 22.8505 59.878 23.3038 60.1659 23.8407C60.4577 24.3776 60.6445 24.9924 60.7262 25.6849Z" fill="#00B8FA"/>
<path d="M65.7053 33.6222C65.1333 33.6222 64.6237 33.523 64.1762 33.3245C63.7288 33.1222 63.3747 32.8246 63.114 32.4316C62.8572 32.0347 62.7288 31.5406 62.7288 30.9492C62.7288 30.4512 62.8203 30.0329 63.0031 29.6944C63.186 29.3559 63.435 29.0836 63.7502 28.8774C64.0653 28.6711 64.4233 28.5155 64.824 28.4105C65.2287 28.3054 65.6528 28.2315 66.0963 28.1887C66.6177 28.1342 67.0379 28.0836 67.3569 28.0369C67.676 27.9864 67.9075 27.9124 68.0515 27.8152C68.1954 27.7179 68.2674 27.5739 68.2674 27.3833V27.3483C68.2674 26.9786 68.1507 26.6927 67.9172 26.4903C67.6877 26.288 67.3608 26.1869 66.9367 26.1869C66.4893 26.1869 66.1333 26.2861 65.8687 26.4845C65.6041 26.679 65.429 26.9242 65.3434 27.2199L63.044 27.0331C63.1607 26.4884 63.3903 26.0176 63.7327 25.6207C64.075 25.22 64.5167 24.9126 65.0575 24.6986C65.6022 24.4807 66.2325 24.3718 66.9484 24.3718C67.4464 24.3718 67.9231 24.4302 68.3783 24.5469C68.8374 24.6636 69.244 24.8445 69.598 25.0896C69.956 25.3348 70.2381 25.6499 70.4443 26.0351C70.6505 26.4164 70.7536 26.8736 70.7536 27.4066V33.4529H68.3958V32.2098H68.3258C68.1818 32.49 67.9892 32.737 67.748 32.951C67.5067 33.1611 67.2169 33.3265 66.8784 33.4471C66.5399 33.5638 66.1488 33.6222 65.7053 33.6222ZM66.4173 31.9063C66.7831 31.9063 67.106 31.8344 67.3861 31.6904C67.6663 31.5426 67.8861 31.3441 68.0456 31.0951C68.2051 30.8461 68.2849 30.564 68.2849 30.2489V29.2976C68.2071 29.3481 68.1001 29.3948 67.9639 29.4376C67.8316 29.4765 67.6818 29.5135 67.5145 29.5485C67.3472 29.5796 67.1799 29.6088 67.0126 29.6361C66.8453 29.6594 66.6936 29.6808 66.5574 29.7003C66.2656 29.7431 66.0107 29.8111 65.7928 29.9045C65.575 29.9979 65.4057 30.1244 65.2851 30.2839C65.1645 30.4395 65.1042 30.6341 65.1042 30.8675C65.1042 31.206 65.2267 31.4647 65.4718 31.6437C65.7209 31.8188 66.036 31.9063 66.4173 31.9063Z" fill="#00B8FA"/>
<path d="M75.5927 30.8733L75.5985 27.891H75.9603L78.8318 24.4885H81.6857L77.8279 28.9941H77.2385L75.5927 30.8733ZM73.3399 33.4529V21.5004H75.8261V33.4529H73.3399ZM78.9426 33.4529L76.3047 29.5485L77.9622 27.7918L81.8549 33.4529H78.9426Z" fill="#00B8FA"/>
<path d="M87.279 33.628C86.3569 33.628 85.5632 33.4413 84.8979 33.0678C84.2364 32.6903 83.7267 32.1573 83.3688 31.4686C83.0108 30.7761 82.8318 29.9571 82.8318 29.0116C82.8318 28.0895 83.0108 27.2802 83.3688 26.5837C83.7267 25.8873 84.2306 25.3445 84.8804 24.9554C85.534 24.5663 86.3005 24.3718 87.1798 24.3718C87.7712 24.3718 88.3218 24.4671 88.8315 24.6578C89.3451 24.8445 89.7925 25.1266 90.1738 25.504C90.559 25.8814 90.8586 26.3561 91.0726 26.9281C91.2866 27.4961 91.3936 28.1614 91.3936 28.924V29.6069H83.824V28.0661H89.0532C89.0532 27.7082 88.9754 27.3911 88.8198 27.1148C88.6642 26.8386 88.4482 26.6226 88.172 26.467C87.8996 26.3075 87.5825 26.2277 87.2207 26.2277C86.8433 26.2277 86.5087 26.3153 86.2169 26.4903C85.9289 26.6615 85.7033 26.893 85.5398 27.1848C85.3764 27.4728 85.2928 27.7938 85.2889 28.1478V29.6127C85.2889 30.0563 85.3706 30.4395 85.534 30.7624C85.7013 31.0854 85.9367 31.3344 86.2402 31.5095C86.5437 31.6846 86.9036 31.7721 87.3199 31.7721C87.5961 31.7721 87.849 31.7332 88.0786 31.6554C88.3082 31.5776 88.5046 31.4608 88.6681 31.3052C88.8315 31.1496 88.956 30.9589 89.0416 30.7333L91.341 30.885C91.2243 31.4375 90.985 31.92 90.6232 32.3324C90.2652 32.7409 89.8022 33.06 89.2342 33.2895C88.67 33.5152 88.0183 33.628 87.279 33.628Z" fill="#00B8FA"/>
<path d="M100.872 33.4529L97.4517 21.5004H100.212L102.191 29.8053H102.29L104.473 21.5004H106.836L109.013 29.8228H109.118L111.097 21.5004H113.857L110.437 33.4529H107.974L105.698 25.6383H105.605L103.335 33.4529H100.872Z" fill="#00B8FA"/>
<path d="M117.414 33.6222C116.842 33.6222 116.332 33.523 115.885 33.3245C115.437 33.1222 115.083 32.8246 114.823 32.4316C114.566 32.0347 114.437 31.5406 114.437 30.9492C114.437 30.4512 114.529 30.0329 114.712 29.6944C114.895 29.3559 115.144 29.0836 115.459 28.8774C115.774 28.6711 116.132 28.5155 116.533 28.4105C116.937 28.3054 117.361 28.2315 117.805 28.1887C118.326 28.1342 118.746 28.0836 119.066 28.0369C119.385 27.9864 119.616 27.9124 119.76 27.8152C119.904 27.7179 119.976 27.5739 119.976 27.3833V27.3483C119.976 26.9786 119.859 26.6927 119.626 26.4903C119.396 26.288 119.069 26.1869 118.645 26.1869C118.198 26.1869 117.842 26.2861 117.577 26.4845C117.313 26.679 117.138 26.9242 117.052 27.2199L114.753 27.0331C114.869 26.4884 115.099 26.0176 115.441 25.6207C115.784 25.22 116.225 24.9126 116.766 24.6986C117.311 24.4807 117.941 24.3718 118.657 24.3718C119.155 24.3718 119.632 24.4302 120.087 24.5469C120.546 24.6636 120.953 24.8445 121.307 25.0896C121.665 25.3348 121.947 25.6499 122.153 26.0351C122.359 26.4164 122.462 26.8736 122.462 27.4066V33.4529H120.104V32.2098H120.034C119.89 32.49 119.698 32.737 119.457 32.951C119.215 33.1611 118.925 33.3265 118.587 33.4471C118.248 33.5638 117.857 33.6222 117.414 33.6222ZM118.126 31.9063C118.492 31.9063 118.815 31.8344 119.095 31.6904C119.375 31.5426 119.595 31.3441 119.754 31.0951C119.914 30.8461 119.993 30.564 119.993 30.2489V29.2976C119.916 29.3481 119.809 29.3948 119.672 29.4376C119.54 29.4765 119.39 29.5135 119.223 29.5485C119.056 29.5796 118.888 29.6088 118.721 29.6361C118.554 29.6594 118.402 29.6808 118.266 29.7003C117.974 29.7431 117.719 29.8111 117.501 29.9045C117.284 29.9979 117.114 30.1244 116.994 30.2839C116.873 30.4395 116.813 30.6341 116.813 30.8675C116.813 31.206 116.935 31.4647 117.18 31.6437C117.429 31.8188 117.745 31.9063 118.126 31.9063Z" fill="#00B8FA"/>
<path d="M127.535 21.5004V33.4529H125.048V21.5004H127.535Z" fill="#00B8FA"/>
<path d="M132.67 21.5004V33.4529H130.184V21.5004H132.67Z" fill="#00B8FA"/>
<path d="M139.404 33.628C138.482 33.628 137.688 33.4413 137.023 33.0678C136.362 32.6903 135.852 32.1573 135.494 31.4686C135.136 30.7761 134.957 29.9571 134.957 29.0116C134.957 28.0895 135.136 27.2802 135.494 26.5837C135.852 25.8873 136.356 25.3445 137.006 24.9554C137.659 24.5663 138.426 24.3718 139.305 24.3718C139.896 24.3718 140.447 24.4671 140.957 24.6578C141.47 24.8445 141.918 25.1266 142.299 25.504C142.684 25.8814 142.984 26.3561 143.198 26.9281C143.412 27.4961 143.519 28.1614 143.519 28.924V29.6069H135.949V28.0661H141.178C141.178 27.7082 141.101 27.3911 140.945 27.1148C140.789 26.8386 140.573 26.6226 140.297 26.467C140.025 26.3075 139.708 26.2277 139.346 26.2277C138.968 26.2277 138.634 26.3153 138.342 26.4903C138.054 26.6615 137.828 26.893 137.665 27.1848C137.502 27.4728 137.418 27.7938 137.414 28.1478V29.6127C137.414 30.0563 137.496 30.4395 137.659 30.7624C137.827 31.0854 138.062 31.3344 138.365 31.5095C138.669 31.6846 139.029 31.7721 139.445 31.7721C139.721 31.7721 139.974 31.7332 140.204 31.6554C140.433 31.5776 140.63 31.4608 140.793 31.3052C140.957 31.1496 141.081 30.9589 141.167 30.7333L143.466 30.885C143.35 31.4375 143.11 31.92 142.748 32.3324C142.39 32.7409 141.927 33.06 141.359 33.2895C140.795 33.5152 140.144 33.628 139.404 33.628Z" fill="#00B8FA"/>
<path d="M150.567 24.4885V26.3561H145.168V24.4885H150.567ZM146.394 22.3408H148.88V30.6983C148.88 30.9278 148.915 31.1068 148.985 31.2352C149.055 31.3597 149.153 31.4472 149.277 31.4978C149.405 31.5484 149.553 31.5737 149.721 31.5737C149.837 31.5737 149.954 31.564 150.071 31.5445C150.187 31.5212 150.277 31.5036 150.339 31.492L150.73 33.3421C150.606 33.381 150.431 33.4257 150.205 33.4763C149.979 33.5308 149.705 33.5638 149.382 33.5755C148.783 33.5988 148.258 33.5191 147.806 33.3362C147.359 33.1534 147.011 32.8693 146.762 32.4841C146.513 32.0989 146.39 31.6126 146.394 31.0251V22.3408Z" fill="#00B8FA"/>
</svg>