<svg width="148" height="24" viewBox="0 0 148 24" fill="none" xmlns="http://www.w3.org/2000/svg">
<path d="M12 24C18.6274 24 24 18.6274 24 12C24 5.3726 18.6274 0 12 0C5.37261 0 0 5.3726 0 12C0 18.6274 5.37261 24 12 24Z" fill="#0065A0"/>
<path d="M11.4713 2.80005V5.34692C11.7245 5.31046 11.9802 5.29228 12.236 5.29224V2.80005H13.4625V5.34692C14.1788 5.39395 14.8822 5.56051 15.5426 5.84009L15.5202 5.83911V7.50122C14.5596 6.96891 13.4762 6.69506 12.3766 6.7063C11.6872 6.68315 11.0004 6.80647 10.3629 7.0686C9.72558 7.33079 9.15172 7.72526 8.68032 8.22583C7.69499 9.33957 7.18502 10.7913 7.25845 12.2727C7.18565 13.6745 7.66371 15.0496 8.59145 16.1077C9.03432 16.5816 9.5751 16.9553 10.1764 17.2024C10.7777 17.4494 11.4257 17.5641 12.0758 17.5393C13.291 17.5671 14.4907 17.262 15.5426 16.6565V18.1584C14.8903 18.4888 14.1874 18.7103 13.4625 18.8127V21.4631H12.236V18.9182H11.8805C11.7382 18.9182 11.6137 18.9006 11.4713 18.9006V21.4446H10.2448V18.7415C9.13299 18.4992 8.12214 17.9248 7.34731 17.0959C6.17337 15.7951 5.56008 14.0879 5.64028 12.342C5.60109 11.4071 5.75108 10.4735 6.08071 9.59692C6.41042 8.72028 6.91348 7.91771 7.5602 7.23755C8.29871 6.47001 9.22317 5.904 10.2448 5.59302V2.80005H11.4713ZM12.7165 8.10278C13.4896 8.0911 14.2592 8.21062 14.9918 8.4563V10.1526C14.2923 9.76501 13.4992 9.57579 12.6989 9.60474C12.3567 9.59098 12.0146 9.64796 11.6959 9.77271C11.3774 9.8974 11.0891 10.0875 10.8483 10.3293C10.4008 10.8761 10.1503 11.5562 10.1374 12.261C10.1245 12.9657 10.3499 13.6545 10.777 14.217C11.0009 14.4428 11.2701 14.6189 11.567 14.7346C11.864 14.8503 12.1821 14.9033 12.5006 14.8889C12.8531 14.9065 13.2056 14.846 13.5319 14.7122V13.1389H11.9137V11.6897H15.3659V15.7727C14.4564 16.2442 13.4399 16.4757 12.4147 16.4446C11.8557 16.4767 11.2953 16.3973 10.7672 16.2122C10.2394 16.0271 9.7535 15.7399 9.33853 15.3665C8.95615 14.9751 8.65915 14.5091 8.46645 13.9983C8.27381 13.4875 8.19022 12.9424 8.21938 12.3977C8.19699 11.8258 8.29434 11.2553 8.50552 10.7229C8.7167 10.1905 9.03692 9.70769 9.44595 9.30493C9.88237 8.89699 10.3968 8.5798 10.9586 8.37329C11.5204 8.16692 12.1182 8.07514 12.7165 8.10278Z" fill="white"/>
<path d="M75.166 9.60254C75.5905 9.59083 76.0127 9.66879 76.4062 9.83105C76.7993 9.99334 77.1561 10.2366 77.4531 10.5459C77.7501 10.8551 77.9819 11.2234 78.1328 11.6279C78.2837 12.0326 78.3513 12.465 78.3311 12.8975C78.331 14.728 77.1889 16.1922 75.1992 16.1924C74.5465 16.1924 73.5659 15.9926 73.1445 15.2939V18.4883H71.6094V9.73535H73.0449L73.1426 10.6006C73.3793 10.2838 73.6853 10.0279 74.0371 9.85449C74.3886 9.68095 74.7756 9.59497 75.166 9.60254ZM33.2666 6.90625C34.4781 6.90658 35.6401 7.39718 36.4971 8.27051L35.3877 9.36816C34.8098 8.82657 34.0514 8.52916 33.2666 8.53613C32.8624 8.51422 32.458 8.5797 32.0801 8.72754C31.7021 8.87549 31.3585 9.10335 31.0723 9.39551C30.7862 9.68764 30.5636 10.0382 30.4189 10.4238C30.2744 10.8094 30.2105 11.2216 30.2324 11.6338C30.2324 13.1314 31.0813 14.6621 33.2676 14.6621C34.0892 14.6452 34.8772 14.3263 35.4863 13.7637L36.5947 14.9277C36.1533 15.3622 35.6317 15.7032 35.0605 15.9316C34.4895 16.16 33.8799 16.2714 33.2666 16.2588C30.0012 16.2588 28.6313 13.9624 28.5996 11.6328C28.5996 9.30316 30.0686 6.90625 33.2666 6.90625ZM66.8447 9.56934C67.2307 9.55358 67.6142 9.64045 67.957 9.82129C68.3003 10.0022 68.5917 10.2704 68.8018 10.6006L68.8672 9.73535H70.3359V16.0586H68.8994L68.835 15.127C68.619 15.4721 68.3185 15.7548 67.9639 15.9473C67.6098 16.1395 67.2124 16.2356 66.8115 16.2256C64.984 16.2255 63.6134 15.0936 63.6133 12.8643C63.6133 10.7011 65.017 9.53387 66.8447 9.56934ZM82.5078 9.56934C84.5617 9.56934 85.8689 10.8668 85.6406 13.4629H80.7783C80.876 14.2283 81.5289 14.7939 82.6387 14.7939C83.2439 14.7944 83.8319 14.5833 84.3027 14.1953L85.2812 15.1934C84.5554 15.8794 83.5953 16.25 82.6055 16.2256C80.4853 16.2254 79.2121 14.8944 79.2119 12.8643C79.1901 12.42 79.2611 11.9758 79.4199 11.5615C79.5789 11.1471 79.8223 10.7714 80.1338 10.46C80.4452 10.1487 80.8181 9.90844 81.2275 9.75488C81.6364 9.60138 82.0728 9.53816 82.5078 9.56934ZM59.207 6.77344C60.4278 6.77896 61.5991 7.26807 62.4727 8.1377L61.4268 9.26953C60.8177 8.70711 60.0297 8.38789 59.208 8.37109C57.3153 8.37109 56.1729 9.83547 56.1729 11.666C56.1729 13.1303 57.0219 14.6611 59.208 14.6611C59.9376 14.6768 60.6468 14.4157 61.1982 13.9287V12.332H58.9463V10.834H62.6982V14.5938C62.2705 15.1099 61.7351 15.5223 61.1309 15.7988C60.5267 16.0752 59.8692 16.209 59.207 16.1914C55.9116 16.1914 54.5723 13.9615 54.5723 11.6318C54.5724 9.10257 56.1064 6.77344 59.207 6.77344ZM40.2168 9.60254C40.6444 9.58939 41.0701 9.66531 41.4678 9.82617C41.8655 9.98704 42.2267 10.2296 42.5293 10.5381C42.8319 10.8467 43.0697 11.2154 43.2275 11.6211C43.3853 12.0268 43.4602 12.4612 43.4473 12.8975C43.4437 13.5438 43.2528 14.175 42.8984 14.7109C42.5442 15.2468 42.0422 15.6635 41.4561 15.9092C40.8698 16.1549 40.225 16.2188 39.6035 16.0918C38.9821 15.9648 38.4111 15.6533 37.9629 15.1963C37.5146 14.7392 37.2095 14.1564 37.085 13.5225C36.9605 12.8888 37.0219 12.2316 37.2627 11.6338C37.5037 11.0358 37.9129 10.5235 38.4385 10.1621C38.9641 9.80067 39.5829 9.60617 40.2168 9.60254ZM50.8545 9.66895C52.3227 9.66903 53.4647 10.7675 53.4648 12.7637V16.0947H51.9639V12.7305C51.9637 11.7639 51.4416 11.0334 50.4629 11.0332C50.2447 11.0383 50.0295 11.0891 49.8311 11.1816C49.6325 11.2742 49.4542 11.4073 49.3076 11.5723C49.1611 11.7373 49.0492 11.931 48.9785 12.1416C48.9077 12.3523 48.88 12.5758 48.8965 12.7979V16.0615H47.3623V9.73535H48.7314L48.8301 10.6006C49.0839 10.3086 49.3954 10.0746 49.7441 9.91406C50.093 9.75342 50.4717 9.66985 50.8545 9.66895ZM46.0254 16.0254H44.4912V9.70215H46.0254V16.0254ZM66.9746 11.0029C66.7278 10.9864 66.4798 11.0244 66.249 11.1143C66.0176 11.2042 65.8081 11.3444 65.6348 11.5244C65.4614 11.7045 65.3284 11.9208 65.2441 12.1582C65.1599 12.3955 65.1272 12.6489 65.1475 12.9004C65.1321 13.1522 65.1676 13.4048 65.2529 13.6416C65.3388 13.8785 65.4719 14.0948 65.6436 14.2764C65.8157 14.4579 66.0228 14.6008 66.252 14.6963C66.4807 14.7917 66.7273 14.837 66.9746 14.8301C69.389 14.8301 69.389 11.0029 66.9746 11.0029ZM40.2168 11.0332C39.9833 11.035 39.7518 11.0856 39.5381 11.1816C39.3245 11.2777 39.1324 11.4174 38.9736 11.5918C38.8148 11.7663 38.6923 11.9719 38.6143 12.1963C38.5362 12.4208 38.504 12.6598 38.5195 12.8975C38.4985 13.1361 38.5266 13.3767 38.6025 13.6035C38.6785 13.8305 38.8009 14.0391 38.9609 14.2148C39.121 14.3906 39.3159 14.5299 39.5322 14.624C39.7485 14.718 39.9817 14.7646 40.2168 14.7607C40.4511 14.7617 40.6835 14.7132 40.8984 14.6182C41.1132 14.5231 41.3065 14.3839 41.4658 14.209C41.6253 14.0338 41.7472 13.8263 41.8242 13.6006C41.9012 13.375 41.9323 13.1356 41.9141 12.8975C41.9238 12.6612 41.8868 12.425 41.8066 12.2031C41.7265 11.9812 41.604 11.7778 41.4463 11.6045C41.2885 11.4312 41.0987 11.2913 40.8877 11.1934C40.6766 11.0954 40.4485 11.0407 40.2168 11.0332ZM75.0352 11.0693C74.801 11.0693 74.5695 11.1167 74.3535 11.209C74.1381 11.3012 73.9425 11.4363 73.7783 11.6064C73.6146 11.7766 73.4854 11.9785 73.3984 12.2002C73.3115 12.4218 73.2697 12.6589 73.2734 12.8975C73.2697 13.1361 73.3115 13.3731 73.3984 13.5947C73.4854 13.8164 73.6146 14.0183 73.7783 14.1885C73.9425 14.3586 74.1382 14.4937 74.3535 14.5859C74.5695 14.6782 74.801 14.7256 75.0352 14.7256C75.2693 14.7256 75.5008 14.6782 75.7168 14.5859C75.9323 14.4937 76.1283 14.3587 76.292 14.1885C76.4562 14.0183 76.585 13.8163 76.6719 13.5947C76.7583 13.3731 76.8006 13.1361 76.7969 12.8975C76.8006 12.6589 76.7583 12.4218 76.6719 12.2002C76.585 11.9786 76.4562 11.7766 76.292 11.6064C76.1283 11.4362 75.9322 11.3013 75.7168 11.209C75.5008 11.1167 75.2693 11.0693 75.0352 11.0693ZM82.54 10.9336C82.1567 10.9034 81.7751 11.01 81.46 11.2344C81.1448 11.4588 80.9151 11.7875 80.8105 12.165H84.1396C84.0415 11.333 83.4211 10.9336 82.54 10.9336ZM45.2588 7.05664C45.4966 7.05675 45.7244 7.15284 45.8926 7.32422C46.0609 7.4959 46.1562 7.72891 46.1562 7.97168C46.1562 8.21442 46.0609 8.44754 45.8926 8.61914C45.7244 8.79049 45.4965 8.88661 45.2588 8.88672C45.0209 8.88672 44.7923 8.79063 44.624 8.61914C44.4557 8.44754 44.3614 8.21442 44.3613 7.97168C44.3613 7.72891 44.4557 7.4959 44.624 7.32422C44.7923 7.1527 45.0208 7.05664 45.2588 7.05664Z" fill="#0065A0"/>
</svg>
