<svg width="148" height="24" viewBox="0 0 148 24" fill="none" xmlns="http://www.w3.org/2000/svg">
<path d="M23.5324 11.9545V11.9081C23.5092 5.35117 18.2289 0 11.7662 0C5.30351 0 0 5.35117 0 11.9545C0 18.5586 5.27952 23.899 11.7662 23.899C14.7427 23.9011 17.6054 22.7551 19.7587 20.6996C19.9708 20.5058 20.0972 20.2356 20.1102 19.9486C20.1231 19.6615 20.0215 19.3811 19.8278 19.169C19.634 18.9568 19.3639 18.8304 19.077 18.8174C18.79 18.8045 18.5096 18.9061 18.2975 19.0999L18.2744 19.123C17.3453 20.0065 16.2473 20.6931 15.0463 21.1415C13.8454 21.5899 12.5662 21.791 11.2856 21.7327C10.005 21.6743 8.7494 21.3577 7.59418 20.8019C6.43896 20.2461 5.40793 19.4625 4.56301 18.4982L9.58934 10.4359V14.1666C9.58934 15.9492 10.2843 16.5294 10.8685 16.6916C11.4526 16.8538 12.3288 16.7363 13.2778 15.2309L16.0355 10.752C16.1091 10.6212 16.1943 10.4971 16.2886 10.3804V12.6521C16.2886 14.3197 16.9605 15.6637 18.118 16.3117C18.6523 16.6027 19.2555 16.7436 19.8634 16.7192C20.4713 16.6949 21.0613 16.5063 21.5706 16.1735C22.9077 15.3054 23.6259 13.7851 23.5324 11.9545ZM20.4744 14.3007C20.2887 14.4286 20.0722 14.5046 19.8473 14.5208C19.6224 14.5369 19.3973 14.4926 19.1952 14.3926C18.7319 14.1153 18.4531 13.4905 18.4531 12.6331V10.0072C18.4531 8.75752 17.9666 7.85297 17.1334 7.6229C15.7194 7.19586 14.6554 8.9429 14.2607 9.59172L11.7662 13.5989V8.66483C11.743 7.53021 11.3715 6.85821 10.6765 6.64883C10.2132 6.51062 9.51819 6.58097 8.84718 7.60055L3.26485 16.5426C2.52221 15.1272 2.13302 13.553 2.13051 11.9545C2.13051 6.55614 6.46102 2.17738 11.7662 2.17738C17.0714 2.17738 21.4019 6.55614 21.4019 11.9545V12.0017C21.4573 13.0428 21.123 13.8786 20.4752 14.2941L20.4744 14.3007ZM39.9319 7.87697C40.0854 7.9753 40.2136 8.1083 40.3063 8.26527C40.399 8.42224 40.4535 8.59878 40.4655 8.78069C40.4639 9.04663 40.3592 9.30155 40.1734 9.49175C39.9875 9.68195 39.7351 9.79256 39.4694 9.80028C39.3433 9.79067 39.2187 9.76707 39.0979 9.72993C38.449 9.24305 37.6618 8.97576 36.8507 8.9669C34.8824 8.9669 33.5395 10.5641 33.5395 12.5561C33.5395 14.5481 34.9064 16.1247 36.8507 16.1247C37.7853 16.1234 38.6826 15.7576 39.3519 15.1051C39.5223 14.9851 39.7242 14.9206 39.9319 14.9197C40.0981 14.9179 40.2619 14.9602 40.4063 15.0425C40.5508 15.1247 40.6709 15.2438 40.7542 15.3877C40.8375 15.5316 40.8811 15.6951 40.8806 15.8613C40.88 16.0276 40.8353 16.1908 40.751 16.3341C40.6707 16.4748 40.5566 16.5948 40.4184 16.6817C39.7403 17.2456 38.9365 17.6382 38.0749 17.8263C37.2132 18.0144 36.319 17.9924 35.4676 17.7623C34.6163 17.5322 33.8327 17.1006 33.1831 16.5041C32.5334 15.9075 32.0367 15.1634 31.7349 14.3346C31.433 13.5057 31.3349 12.6164 31.4487 11.7417C31.5626 10.8669 31.8851 10.0324 32.389 9.30847C32.8929 8.58454 33.5635 7.99245 34.3442 7.58214C35.1249 7.17182 35.9928 6.95532 36.8747 6.9509C37.9652 6.93435 39.0342 7.2571 39.9319 7.87697ZM45.4439 10.1868C44.4048 10.1824 43.4064 10.5902 42.6674 11.3208C41.9284 12.0515 41.5091 13.0454 41.5014 14.0847C41.5079 15.1298 41.9241 16.1306 42.6606 16.8719C43.3971 17.6132 44.395 18.0358 45.4398 18.0488C47.4784 18.0488 49.2159 16.2182 49.2159 14.0847C49.2159 11.9528 47.5057 10.1868 45.4439 10.1868ZM45.4207 16.1181C44.4486 16.1181 43.6377 15.2375 43.6377 14.1021C43.6377 12.9211 44.4486 12.2019 45.4207 12.2019C46.3251 12.2019 47.0879 12.9443 47.0879 14.1021C47.0879 15.2607 46.3251 16.1247 45.4207 16.1247V16.1181ZM50.5166 16.843V11.3743C50.5139 11.2326 50.5396 11.0917 50.592 10.9599C50.6444 10.8281 50.7225 10.7081 50.8218 10.6069C50.9211 10.5056 51.0395 10.4252 51.1702 10.3703C51.3009 10.3153 51.4413 10.287 51.5831 10.2869C51.8684 10.2906 52.1406 10.407 52.3404 10.6107C52.5402 10.8145 52.6513 11.089 52.6496 11.3743V16.843C52.6516 17.1286 52.5405 17.4033 52.3407 17.6072C52.1409 17.8111 51.8685 17.9276 51.5831 17.9313C51.2991 17.923 51.0295 17.805 50.8306 17.6021C50.6318 17.3992 50.5192 17.1271 50.5166 16.843ZM50.3544 8.22455C50.3498 8.05947 50.378 7.89512 50.4375 7.74106C50.497 7.587 50.5865 7.4463 50.7008 7.32717C50.8151 7.20803 50.952 7.11282 51.1035 7.04709C51.255 6.98135 51.418 6.94641 51.5831 6.94428C51.7492 6.94622 51.9132 6.98089 52.0659 7.04629C52.2186 7.11169 52.3569 7.20656 52.473 7.32545C52.589 7.44435 52.6805 7.58496 52.7421 7.73923C52.8038 7.8935 52.8345 8.05842 52.8324 8.22455C52.8324 8.55313 52.7019 8.86825 52.4696 9.10058C52.2374 9.33292 51.9223 9.46345 51.5938 9.46345C51.2653 9.46345 50.9503 9.33292 50.718 9.10058C50.4857 8.86825 50.3544 8.55313 50.3544 8.22455ZM56.7244 13.8786V16.843C56.7244 17.126 56.612 17.3973 56.412 17.5973C56.212 17.7974 55.9408 17.9098 55.6579 17.9098C55.3751 17.9098 55.1038 17.7974 54.9038 17.5973C54.7038 17.3973 54.5914 17.126 54.5914 16.843V11.1203C54.5914 10.9021 54.6781 10.6929 54.8323 10.5386C54.9865 10.3843 55.1957 10.2977 55.4138 10.2977C55.632 10.2977 55.8411 10.3843 55.9954 10.5386C56.1496 10.6929 56.2363 10.9021 56.2363 11.1203C56.5402 10.8096 56.9062 10.5665 57.3103 10.4068C57.7145 10.2471 58.1477 10.1744 58.5819 10.1934C60.714 10.1934 61.663 11.7923 61.663 13.6229V16.843C61.663 17.126 61.5507 17.3973 61.3507 17.5973C61.1507 17.7974 60.8794 17.9098 60.5966 17.9098C60.3137 17.9098 60.0424 17.7974 59.8424 17.5973C59.6424 17.3973 59.5301 17.126 59.5301 16.843V13.8786C59.5301 12.9509 59.4151 12.1721 58.0714 12.1721C57.1232 12.1721 56.7285 12.9592 56.7285 13.8786H56.7244ZM68.5609 15.0132C68.4527 15.0135 68.3459 14.9883 68.2492 14.9397C68.1525 14.8912 68.0685 14.8205 68.0041 14.7335L65.5261 12.0463V16.843C65.5301 16.9856 65.5054 17.1275 65.4536 17.2603C65.4018 17.3931 65.324 17.5143 65.2246 17.6165C65.1252 17.7187 65.0063 17.8 64.875 17.8554C64.7437 17.9109 64.6026 17.9395 64.46 17.9395C64.3175 17.9395 64.1763 17.9109 64.045 17.8554C63.9137 17.8 63.7948 17.7187 63.6955 17.6165C63.5961 17.5143 63.5182 17.3931 63.4664 17.2603C63.4146 17.1275 63.39 16.9856 63.3939 16.843V7.34317C63.4268 7.26439 63.4813 7.19653 63.5512 7.14747C63.621 7.0984 63.7033 7.07013 63.7886 7.06593C63.9723 7.09711 64.1376 7.19604 64.2519 7.34317L68.2134 11.7923C68.2538 11.8496 68.3055 11.8981 68.3652 11.9348C68.4249 11.9715 68.4915 11.9957 68.5609 12.0058C68.6988 11.979 68.8223 11.9032 68.9084 11.7923L72.8683 7.34317C72.9231 7.26857 72.9922 7.20564 73.0717 7.15804C73.1511 7.11044 73.2391 7.07913 73.3308 7.06593C73.4176 7.06379 73.5028 7.08956 73.5738 7.13947C73.6448 7.18938 73.698 7.26078 73.7254 7.34317V16.8439C73.7281 16.9857 73.7024 17.1265 73.65 17.2583C73.5976 17.3901 73.5195 17.5101 73.4202 17.6113C73.3209 17.7126 73.2025 17.793 73.0718 17.8479C72.9411 17.9029 72.8007 17.9312 72.6589 17.9313C72.3737 17.9272 72.1017 17.8105 71.9021 17.6066C71.7025 17.4028 71.5915 17.1283 71.5933 16.843V12.0463L69.1128 14.7335C68.9697 14.8931 68.7718 14.993 68.5584 15.0132H68.5609ZM88.596 12.1639H88.3635C87.0206 12.2317 86.7666 12.9981 86.7666 13.8703V16.8348C86.7664 17.1176 86.654 17.3888 86.454 17.5888C86.254 17.7888 85.9829 17.9013 85.7001 17.9015C85.4173 17.9011 85.1463 17.7884 84.9465 17.5882C84.7467 17.3881 84.6345 17.1168 84.6345 16.8339V11.1211C84.6349 10.9028 84.7218 10.6937 84.8761 10.5393C85.0304 10.385 85.2395 10.2981 85.4577 10.2977C85.6758 10.2981 85.8849 10.385 86.039 10.5394C86.1932 10.6937 86.2799 10.9029 86.2801 11.1211C87.0669 10.3788 87.7156 10.2166 88.3635 10.1926H88.5769C88.8367 10.1994 89.0836 10.3074 89.2652 10.4934C89.4467 10.6795 89.5485 10.929 89.5491 11.189C89.5488 11.443 89.4495 11.6869 89.2723 11.869C89.0951 12.051 88.854 12.1568 88.6001 12.1639H88.596ZM96.8185 16.3332C96.9161 16.4863 96.9724 16.6618 96.9806 16.843C96.969 17.1222 96.853 17.3869 96.6554 17.5845C96.4579 17.7821 96.1933 17.8982 95.9141 17.9098C95.5451 17.9098 95.2191 17.6301 94.9651 17.3057L92.5111 14.4521V16.819C92.5111 17.1018 92.3988 17.3731 92.1989 17.5731C91.9989 17.773 91.7278 17.8854 91.445 17.8854C91.1623 17.8854 90.8911 17.773 90.6912 17.5731C90.4913 17.3731 90.379 17.1018 90.379 16.819V8.13352C90.3785 7.92246 90.4407 7.71602 90.5577 7.54039C90.6748 7.36477 90.8413 7.22788 91.0362 7.1471C91.2312 7.06632 91.4457 7.04529 91.6526 7.08669C91.8595 7.12808 92.0495 7.23002 92.1984 7.37959C92.3986 7.57903 92.5111 7.85131 92.5111 8.13269V13.5534L94.9651 10.8439C95.2191 10.565 95.522 10.2646 95.891 10.2646C96.1615 10.2765 96.4173 10.3908 96.6066 10.5845C96.7959 10.7781 96.9045 11.0365 96.9103 11.3073C96.9112 11.4792 96.863 11.6477 96.7713 11.7931L94.827 13.9258L96.8185 16.3366V16.3332ZM109.697 18.0248H109.117C107.497 18.0248 106.546 17.3057 106.546 14.7807V12.1639H105.992C105.73 12.1639 105.48 12.06 105.295 11.8752C105.11 11.6903 105.006 11.4396 105.006 11.1782C105.006 10.9168 105.11 10.6661 105.295 10.4812C105.48 10.2964 105.73 10.1926 105.992 10.1926H106.538V8.17738C106.533 7.96362 106.592 7.75331 106.709 7.57403C106.825 7.39475 106.993 7.25486 107.191 7.17269C107.321 7.11807 107.462 7.08993 107.603 7.08993C107.888 7.09471 108.16 7.21147 108.36 7.41496C108.559 7.61845 108.671 7.89233 108.67 8.17738V10.1868H109.549C109.806 10.1946 110.05 10.3034 110.228 10.4896C110.406 10.6759 110.503 10.9248 110.499 11.1823C110.491 11.4341 110.388 11.6735 110.213 11.8538C110.037 12.0342 109.8 12.1423 109.549 12.1572H108.67V14.3586C108.67 15.8177 108.738 16.1181 109.386 16.1181H109.689C109.941 16.1192 110.182 16.2199 110.36 16.3982C110.538 16.5765 110.638 16.8179 110.638 17.0698C110.633 17.3198 110.531 17.5579 110.354 17.7347C110.177 17.9115 109.939 18.0133 109.689 18.019L109.697 18.0248ZM120.003 7.87697C120.157 7.97554 120.285 8.10862 120.377 8.26555C120.47 8.42248 120.524 8.5989 120.536 8.78069C120.535 9.04669 120.43 9.30173 120.244 9.49198C120.058 9.68222 119.806 9.79277 119.54 9.80028C119.414 9.79013 119.29 9.76655 119.169 9.72993C118.521 9.24271 117.734 8.97536 116.924 8.9669C114.954 8.9669 113.61 10.5641 113.61 12.5561C113.61 14.5481 114.977 16.1247 116.924 16.1247C117.858 16.1234 118.756 15.7576 119.425 15.1051C119.595 14.9859 119.796 14.9214 120.003 14.9197C120.128 14.9186 120.253 14.9423 120.368 14.9894C120.484 15.0366 120.59 15.1063 120.678 15.1945C120.826 15.3415 120.92 15.5333 120.946 15.7398C120.973 15.9462 120.93 16.1556 120.824 16.3349C120.743 16.4763 120.628 16.5952 120.489 16.6808C119.811 17.2437 119.008 17.6353 118.147 17.8226C117.286 18.0098 116.393 17.9872 115.543 17.7567C114.259 17.4096 113.145 16.6088 112.407 15.5028C111.669 14.3968 111.356 13.0606 111.528 11.7418C111.698 10.4228 112.341 9.2104 113.338 8.32944C114.334 7.44849 115.616 6.95871 116.945 6.9509C118.037 6.9301 119.107 7.25416 120.003 7.87697ZM81.9024 10.2637C81.794 10.2637 81.6866 10.2854 81.5867 10.3275C81.4867 10.3696 81.3962 10.4314 81.3205 10.509C81.2448 10.5867 81.1853 10.6787 81.1458 10.7797C81.1062 10.8807 81.0872 10.9887 81.09 11.0971L81.0453 11.3537C80.7397 10.9917 80.3605 10.699 79.9329 10.4952C79.5053 10.2914 79.0392 10.1812 78.5656 10.1719C76.4823 10.1719 74.9773 11.9313 74.9773 14.0615C74.9773 16.1926 76.4583 18.0248 78.4506 18.0248C79.2846 18.0248 80.6043 17.6532 81.0221 16.843L81.0693 17.0971C81.0671 17.2062 81.0874 17.3145 81.1287 17.4155C81.1701 17.5164 81.2318 17.6078 81.3099 17.684C81.3879 17.7601 81.4808 17.8195 81.5827 17.8583C81.6847 17.8972 81.7935 17.9147 81.9024 17.9098C82.012 17.91 82.1206 17.8886 82.2219 17.8467C82.3231 17.8049 82.4152 17.7435 82.4927 17.6659C82.5701 17.5884 82.6316 17.4964 82.6734 17.3951C82.7152 17.2938 82.7367 17.1852 82.7364 17.0756V11.1037C82.7333 10.8829 82.6446 10.672 82.489 10.5153C82.3334 10.3586 82.1232 10.2684 81.9024 10.2637ZM78.7981 16.1247C77.8491 16.1247 77.1069 15.2226 77.1069 14.1087C77.1069 12.9956 77.8706 12.1887 78.7981 12.1887C79.7248 12.1887 80.5596 12.9526 80.5596 14.1087C80.5596 15.2648 79.7479 16.1247 78.7981 16.1247ZM104.602 13.9233C104.554 11.5366 103.002 10.1926 100.942 10.1926C98.3839 10.1926 97.3041 12.0463 97.3041 14.179C97.3041 16.8902 99.0896 18.048 101.243 18.048C102.053 18.048 102.91 17.9313 103.558 17.4447C103.693 17.3659 103.806 17.2547 103.887 17.1214C103.967 16.988 104.014 16.8366 104.022 16.6808C104.023 16.4515 103.935 16.2307 103.775 16.066C103.616 15.9014 103.398 15.8059 103.169 15.8003C102.973 15.8019 102.781 15.8582 102.614 15.9625C102.175 16.1502 101.701 16.2446 101.223 16.2397C100.691 16.2397 99.4628 16.0262 99.4628 14.7575H103.765C103.985 14.7533 104.195 14.6641 104.351 14.5087C104.507 14.3532 104.597 14.1435 104.602 13.9233ZM99.4578 13.3854C99.4578 12.4833 100.409 12.1829 100.987 12.1829C101.565 12.1829 102.516 12.4833 102.539 13.3854H99.4578ZM128.501 10.2637C128.392 10.2638 128.285 10.2855 128.185 10.3275C128.085 10.3696 127.995 10.4312 127.919 10.5087C127.843 10.5863 127.784 10.6785 127.744 10.7796C127.705 10.8807 127.686 10.9887 127.69 11.0971L127.643 11.3537C127.338 10.9916 126.959 10.6989 126.532 10.4951C126.105 10.2913 125.639 10.1811 125.165 10.1719C123.08 10.1719 121.575 11.9313 121.575 14.0615C121.575 16.1926 123.067 18.0248 125.048 18.0248C125.882 18.0248 127.204 17.6532 127.619 16.843L127.667 17.0971C127.665 17.206 127.686 17.3141 127.727 17.4148C127.769 17.5155 127.83 17.6068 127.908 17.683C127.986 17.7593 128.079 17.8188 128.181 17.8578C128.283 17.8968 128.392 17.9145 128.501 17.9098C128.666 17.9097 128.827 17.8608 128.964 17.7692C129.101 17.6776 129.208 17.5474 129.272 17.395C129.313 17.2941 129.335 17.1857 129.335 17.0756V11.1037C129.331 10.8831 129.242 10.6723 129.087 10.5157C128.931 10.3591 128.721 10.2688 128.501 10.2637ZM125.395 16.1247C124.47 16.1247 123.705 15.2226 123.705 14.1087C123.705 12.9956 124.447 12.1887 125.395 12.1887C126.344 12.1887 127.157 12.9526 127.157 14.1087C127.157 15.2648 126.351 16.1247 125.4 16.1247H125.395ZM135.407 10.1868C134.942 10.1783 134.481 10.2643 134.051 10.4396C133.621 10.6148 133.232 10.8757 132.906 11.2063C132.906 10.675 132.558 10.2803 132.096 10.2803C131.986 10.2799 131.877 10.3013 131.776 10.3431C131.674 10.3849 131.582 10.4463 131.504 10.5238C131.427 10.6013 131.365 10.6934 131.323 10.7947C131.281 10.8961 131.26 11.0048 131.26 11.1145V20.1046C131.261 20.3871 131.373 20.6578 131.573 20.8576C131.772 21.0573 132.043 21.1698 132.326 21.1705C132.608 21.1703 132.879 21.0579 133.079 20.8581C133.279 20.6583 133.392 20.3873 133.392 20.1046V17.4C133.97 17.8386 134.897 18.0248 135.524 18.0397C137.54 18.0397 139 16.2099 139 14.0772C139 11.9437 137.469 10.1868 135.407 10.1868ZM135.151 16.1181C134.202 16.1181 133.392 15.2657 133.392 14.1029C133.392 12.9401 134.202 12.1829 135.151 12.1829C136.1 12.1829 136.842 12.9468 136.842 14.1029C136.842 15.2218 136.103 16.1247 135.151 16.1247V16.1181Z" fill="#252C44"/>
</svg>
