<svg xmlns="http://www.w3.org/2000/svg" width="182" height="54" viewBox="0 0 182 54" fill="none">
<g clip-path="url(#clip0_3070_3156)">
<path fill-rule="evenodd" clip-rule="evenodd" d="M32 29.3924L42.3292 19.016L52.7528 29.482V24.4944L42.4236 14.0047L32.0094 24.5274L32 29.3924Z" fill="#569FD7"/>
<path fill-rule="evenodd" clip-rule="evenodd" d="M34.3924 31.9641L42.2868 39.9953L50.2708 31.9641L47.8359 29.482L42.3292 35.0312L39.3517 31.9641L44.8113 26.3677L42.367 23.9423L34.3924 31.9641Z" fill="#26244B"/>
<path d="M67.2392 34.6207C66.3757 34.6207 65.6065 34.5216 64.9318 34.3187C64.257 34.1158 63.6907 33.743 63.233 33.2051C62.7753 32.6672 62.4261 31.898 62.1808 30.8976C61.9401 29.8878 61.8174 28.576 61.8174 26.9717C61.8174 25.4192 61.9401 24.1499 62.1808 23.1684C62.4356 22.1822 62.7989 21.4131 63.2708 20.861C63.7427 20.3089 64.3136 19.922 64.9884 19.7096C65.6632 19.4926 66.4229 19.384 67.2722 19.384C68.2679 19.384 69.1739 19.4643 69.9808 19.6247C70.8018 19.771 71.4577 19.9267 71.9437 20.0918V22.4182C71.5804 22.3379 71.0283 22.2624 70.2875 22.1964C69.5608 22.1162 68.7633 22.0737 67.8998 22.0737C67.3336 22.0737 66.8476 22.1398 66.4465 22.2766C66.0548 22.3993 65.7387 22.6352 65.498 22.9844C65.2668 23.3241 65.0922 23.8149 64.9742 24.4613C64.8657 25.1078 64.8138 25.9525 64.8138 26.9906C64.8138 28.3401 64.9035 29.3735 65.078 30.086C65.2526 30.7891 65.5641 31.2751 66.0076 31.5441C66.4512 31.7989 67.0882 31.9263 67.9093 31.9263C68.9191 31.9263 69.7496 31.9074 70.396 31.865C71.0425 31.8225 71.5615 31.7753 71.9532 31.7234V34.0309C71.4011 34.2196 70.731 34.3706 69.9525 34.4744C69.1786 34.5735 68.2773 34.6207 67.2392 34.6207Z" fill="#26244B"/>
<path d="M79.6352 34.6207C78.6113 34.6207 77.7147 34.5263 76.9456 34.3376C76.1764 34.1347 75.5394 33.7713 75.025 33.2428C74.5154 32.7049 74.1238 31.9357 73.8548 30.9354C73.6 29.935 73.4726 28.6327 73.4726 27.0283C73.4726 25.4239 73.6 24.1216 73.8548 23.1212C74.1238 22.1114 74.5154 21.3328 75.025 20.7949C75.5488 20.257 76.1906 19.8842 76.9456 19.6813C77.7147 19.4784 78.6113 19.3793 79.6352 19.3793C80.6592 19.3793 81.5557 19.4784 82.3249 19.6813C83.094 19.8842 83.731 20.257 84.2454 20.7949C84.755 21.3328 85.1419 22.1114 85.3967 23.1212C85.6515 24.1216 85.7789 25.4239 85.7789 27.0283C85.7789 28.6327 85.6515 29.935 85.3967 30.9354C85.1419 31.9357 84.755 32.7049 84.2454 33.2428C83.731 33.7666 83.0846 34.1347 82.306 34.3376C81.5368 34.5263 80.645 34.6207 79.6352 34.6207ZM79.6352 31.931C80.2298 31.931 80.7252 31.8697 81.131 31.747C81.551 31.6102 81.8719 31.3695 82.1031 31.0203C82.3437 30.6711 82.523 30.1757 82.6269 29.5434C82.7354 28.8969 82.7873 28.057 82.7873 27.033C82.7873 25.9666 82.7354 25.1078 82.6269 24.4613C82.5183 23.8007 82.3437 23.3005 82.1031 22.9655C81.8624 22.6163 81.5368 22.3804 81.131 22.2577C80.7252 22.135 80.2298 22.0737 79.6352 22.0737C79.0407 22.0737 78.5452 22.135 78.1394 22.2577C77.7477 22.3804 77.4269 22.6163 77.1673 22.9655C76.9267 23.3005 76.7426 23.8007 76.62 24.4613C76.5114 25.1078 76.4595 25.9666 76.4595 27.033C76.4595 28.057 76.5067 28.8969 76.6011 29.5434C76.7096 30.1757 76.8842 30.6711 77.1249 31.0203C77.3655 31.3695 77.6911 31.6149 78.0969 31.747C78.5027 31.8697 79.0123 31.931 79.6352 31.931Z" fill="#26244B"/>
<path d="M88.0911 34.498V19.5209H90.4976L96.7641 29.3971V19.5209H99.7557V34.498H97.3492L91.1016 24.6218V34.498H88.0911Z" fill="#26244B"/>
<path d="M102.224 34.498V22.9419C102.224 22.0501 102.398 21.3564 102.747 20.8563C103.097 20.3561 103.535 20.0116 104.064 19.8229C104.588 19.62 105.116 19.5209 105.64 19.5209C106.126 19.5209 106.725 19.5256 107.438 19.5397C108.164 19.5539 108.934 19.5775 109.74 19.62C110.562 19.6483 111.35 19.7002 112.105 19.7804V22.2907H106.466C106.046 22.2907 105.73 22.404 105.517 22.6352C105.314 22.8523 105.215 23.1354 105.215 23.4846V26.0563L111.137 26.2167V28.5855L105.215 28.7459V34.4933L102.224 34.498Z" fill="#26244B"/>
<path d="M117.55 34.498C116.375 34.498 115.493 34.229 114.903 33.6864C114.308 33.1485 114.011 32.233 114.011 30.9543V19.5209H117.003V30.473C117.003 30.9731 117.125 31.3176 117.366 31.5064C117.621 31.6951 117.946 31.7895 118.338 31.7895H123.071V34.5027H117.55V34.498Z" fill="#26244B"/>
<path d="M130.177 34.6018C129.342 34.6018 128.568 34.5358 127.851 34.3989C127.148 34.2526 126.53 34.0025 125.992 33.6486C125.468 33.2853 125.057 32.7851 124.76 32.1528C124.477 31.5064 124.335 30.6806 124.335 29.6849V19.5209H127.327V29.6613C127.327 30.4871 127.577 31.0628 128.077 31.4025C128.577 31.7376 129.276 31.9074 130.182 31.9074C131.074 31.9074 131.767 31.7376 132.263 31.4025C132.763 31.0628 133.013 30.4871 133.013 29.6613V19.5209H136.024V29.6802C136.024 30.6806 135.877 31.5016 135.58 32.1481C135.283 32.7804 134.872 33.2806 134.348 33.6439C133.825 33.9931 133.202 34.2432 132.489 34.3942C131.767 34.5358 130.998 34.6018 130.177 34.6018Z" fill="#26244B"/>
<path d="M137.312 34.498L141.898 26.9906L137.25 19.5209H140.568L143.762 24.6407L146.674 19.5209H149.967L145.315 27.151L149.906 34.498H146.589L143.479 29.5009L140.624 34.498H137.312Z" fill="#26244B"/>
</g>
<defs>
<clipPath id="clip0_3070_3156">
<rect width="117.967" height="26" fill="white" transform="translate(32 14)"/>
</clipPath>
</defs>
</svg>
