<svg width="148" height="24" viewBox="0 0 148 24" fill="none" xmlns="http://www.w3.org/2000/svg">
<g clip-path="url(#clip0_4605_2000)">
<path d="M112 13.3968V13.7143L106.615 13.7778C106.675 14.6692 106.821 15.7321 107.768 16.0825C108.633 16.3657 109.524 16.066 109.825 15.1695L111.809 15.3657C110.495 18.7086 105.151 18.3651 104.492 14.6044C103.364 8.16952 110.543 7.29714 111.714 11.6832L112 13.3968ZM109.846 12.381C109.927 9.74476 106.547 9.71556 106.679 12.381H109.846Z" fill="#252C44"/>
<path d="M6.0181 5.96826C8.02308 5.96826 10.0312 5.97525 12.0362 5.96826L6.01747 6.03112L6.08081 17.9683L18.0543 18.0311H12.0362C10.0312 18.0311 8.02308 18.0311 6.01747 18.0311V24H0V17.9683H6.0181V12H0V5.96826H6.0181Z" fill="#252C44" fill-opacity="0.1"/>
<path d="M6.0181 0H0V5.96825H6.0181V0Z" fill="#252C44" fill-opacity="0.5"/>
<path d="M12.0362 0V5.96825C10.0312 5.97524 8.02307 5.96825 6.0181 5.96825V0H12.0362Z" fill="#252C44" fill-opacity="0.25"/>
<path d="M18.0543 0V5.96889C16.0493 5.97333 14.0412 5.9619 12.0362 5.96889V0H18.0543Z" fill="#252C44" fill-opacity="0.1"/>
<path d="M6.0181 12H0V17.9683H6.0181V12Z" fill="#252C44" fill-opacity="0.25"/>
<path d="M12.0362 18.0318V24H6.0181V18.0311C8.02307 18.0318 10.0312 18.0311 12.0362 18.0311V18.0318Z" fill="#252C44" fill-opacity="0.25"/>
<path d="M18.0543 18.0317H12.0362V24H18.0543V18.0317Z" fill="#252C44" fill-opacity="0.5"/>
<path d="M82.3593 9.51685C82.0387 7.87177 79.6581 7.81526 78.5185 8.56954C78.1618 8.8578 78.127 9.30605 78.1871 9.73081C78.5647 11.4807 84.0139 10.5365 84.7291 13.3962C85.3975 16.068 83.5312 17.4 81.1195 17.5892C78.8016 17.7714 76.027 17.3257 75.4473 14.6673L77.6645 14.2851C77.7589 16.6883 83.7808 16.4 82.5081 13.9073C81.5997 12.1283 74.8854 13.4641 76.0643 8.71177C76.8144 5.68637 84.2255 5.61526 84.5632 9.16891L82.3593 9.51621V9.51685Z" fill="#252C44"/>
<path d="M53.7828 9.20638L53.8778 10.4769C54.5341 9.02924 56.5968 8.6159 57.9195 9.34543C59.9777 10.48 59.9884 15.033 58.5954 16.6648C57.3861 18.0807 54.7039 17.927 53.8462 16.1905V20.6984H51.6923V9.4286C51.6923 9.39368 51.5948 9.29273 51.629 9.20638H53.7828ZM55.16 10.5549C53.3603 10.9264 53.1246 16.527 55.8993 16.1213C57.8264 15.8394 58.0658 9.95558 55.16 10.5549Z" fill="#252C44"/>
<path d="M35.2217 9.52257L33.2364 10.0369C32.6162 8.42162 30.6505 7.94797 29.1415 8.54162C27.2708 9.2775 27.0992 12.0546 27.5876 13.715C28.4314 16.5861 32.4477 16.5277 33.415 13.7873L35.3199 14.5384C34.1099 18.3791 27.9309 18.6153 25.9462 15.4242C24.69 13.4045 24.7559 9.65591 26.4809 7.9067C28.6727 5.68448 34.3076 6.02035 35.2217 9.52321V9.52257Z" fill="#252C44"/>
<path d="M98.6335 16.1905V17.3968L96.3922 17.3892C95.836 17.1314 95.7201 16.5232 95.5611 15.9994C94.372 18.3511 90.2683 18.2349 90.2664 15.1429C90.2652 12.2787 93.278 12.414 95.3394 12.4451C95.7847 10.3727 93.3686 9.46985 92.8276 11.6146L90.6516 11.4914C90.8822 8.63557 95.8487 8.22096 97.0833 10.3473C98.0203 11.9606 97.0529 14.3575 97.587 15.8108C97.7827 16.3429 98.1653 16.2883 98.6335 16.1905ZM95.3394 13.6508H93.8507C91.7982 13.6508 92.2233 17.0324 94.3676 15.8832C95.148 15.4648 95.4065 14.4762 95.3394 13.6508Z" fill="#252C44"/>
<path d="M69.8613 9.0356C76.3633 8.63496 75.9383 18.7969 69.0365 17.5054C64.9308 16.7372 64.8149 9.34671 69.8613 9.0356ZM69.7941 10.5556C67.7327 10.9112 67.5421 16.4921 70.5308 16.1194C72.7734 15.8394 73.0021 10.0019 69.7941 10.5556Z" fill="#252C44"/>
<path d="M44.2805 9.2063L46.3394 15.5561L48.2081 9.2063H50.4887C49.3452 11.9758 48.4919 14.9911 47.3048 17.7295C46.3001 20.0482 45.5076 21.0914 42.6968 20.6349V19.1111H43.9321C44.4953 19.1111 45.2656 17.7707 45.2168 17.2546L42 9.2063H44.2805Z" fill="#252C44"/>
<path d="M63.5385 7.23804V9.20629H65.1222V10.6666H63.5385C63.7361 11.9409 63.2344 14.419 63.6347 15.5542C63.8862 16.2672 64.6122 16.1504 65.1855 15.9999V17.3015C64.1821 17.8704 61.448 17.7301 61.448 16.1587V10.6666H60.371V9.20629H61.4796L62.2398 7.23804H63.5385Z" fill="#252C44"/>
<path d="M101.864 7.23804V9.20629H103.448V10.6666H101.864C102.062 11.9409 101.56 14.419 101.961 15.5542C102.212 16.2672 102.938 16.1504 103.511 15.9999V17.3015C102.508 17.8704 99.7738 17.7301 99.7738 16.1587V10.6666H98.6968V9.20629H99.8054L100.566 7.23804H101.864Z" fill="#252C44"/>
<path d="M88.6878 6.09521H86.5339V17.4603H88.6878V6.09521Z" fill="#252C44"/>
<path d="M41.6832 9.14285V10.9206C40.0723 10.4705 39.0226 11.4368 39.0226 13.0476V17.4603H36.8688L36.8054 9.20635H38.8959L38.9909 10.9213C39.4407 9.63301 40.1496 8.62349 41.6832 9.14285Z" fill="#252C44"/>
</g>
<defs>
<clipPath id="clip0_4605_2000">
<rect width="148" height="24" fill="white"/>
</clipPath>
</defs>
</svg>
