<svg width="148" height="24" viewBox="0 0 148 24" fill="none" xmlns="http://www.w3.org/2000/svg">
<path d="M0 11.739C0 8.44985 2.4186 6.03125 5.84389 6.03125C8.71518 6.03125 10.8837 7.72807 11.5042 10.229H9.23752C8.71835 8.90254 7.47422 8.02881 5.84389 8.02881C3.65955 8.02881 2.18117 9.5895 2.18117 11.7422C2.18117 13.8949 3.65955 15.4714 5.84389 15.4714C7.47422 15.4714 8.71518 14.5818 9.23752 13.2554H11.5042C10.8837 15.7595 8.71518 17.4531 5.84389 17.4531C2.4186 17.4499 0 15.0313 0 11.739Z" fill="#FED317"/>
<path d="M12.8652 12.417C12.8652 9.91296 14.3436 8.72266 16.509 8.72266C18.6743 8.72266 20.1369 9.91613 20.1369 12.4519V12.5025H18.1551V12.417C18.1551 11.0748 17.484 10.5873 16.509 10.5873C15.5339 10.5873 14.8628 11.0748 14.8628 12.417V17.2384H12.8652V12.417Z" fill="#FED317"/>
<path d="M21.2845 18.1434H23.282C23.6176 18.9158 24.2729 19.2672 25.2796 19.2672C26.6409 19.2672 27.4133 18.6119 27.4133 17.0005V15.959C26.9099 16.8676 26.0362 17.3519 24.944 17.3519C23.0288 17.3519 21.2148 16.1078 21.2148 13.1542V8.9375H23.2124V13.1542C23.2124 14.7339 24.0513 15.4873 25.3113 15.4873C26.5712 15.4873 27.4101 14.6991 27.4101 13.1542V8.9375H29.4077V16.9499C29.4077 19.8402 27.5779 20.9988 25.2764 20.9988C23.3454 20.9988 21.7498 20.1093 21.2782 18.1434H21.2845Z" fill="#FED317"/>
<path d="M31.3281 13.1539C31.3281 10.4662 33.1421 8.71875 35.7443 8.71875C38.3465 8.71875 40.2301 10.5327 40.2301 13.1697C40.2301 16.0094 38.1122 17.4529 36.0988 17.4529C34.9054 17.4529 33.9145 16.9496 33.3288 16.0252V20.7769H31.3313V13.1539H31.3281ZM38.2135 13.0874C38.2135 11.6249 37.2227 10.5833 35.7601 10.5833C34.2976 10.5833 33.3257 11.6249 33.3257 13.0874C33.3257 14.55 34.3007 15.5915 35.7601 15.5915C37.2195 15.5915 38.2135 14.55 38.2135 13.0874Z" fill="#FED317"/>
<path d="M41.5415 14.0441V6H43.539V8.93777H47.8222V10.7517H43.539V14.0441C43.539 15.152 44.1089 15.5889 44.932 15.5889C45.755 15.5889 46.3249 15.1679 46.3249 14.0441V13.8256H48.3224V14.0441C48.3224 16.3455 46.9453 17.4535 44.9288 17.4535C42.9122 17.4535 41.5352 16.3455 41.5352 14.0441H41.5415Z" fill="#FED317"/>
<path d="M49.2695 13.0882C49.2695 10.5683 51.1183 8.72266 53.7363 8.72266C56.3544 8.72266 58.2031 10.5714 58.2031 13.0882C58.2031 15.6049 56.3544 17.4537 53.7363 17.4537C51.1183 17.4537 49.2695 15.6049 49.2695 13.0882ZM56.1739 13.0882C56.1739 11.6256 55.1989 10.5841 53.7395 10.5841C52.2801 10.5841 51.2861 11.6256 51.2861 13.0882C51.2861 14.5507 52.2769 15.5922 53.7395 15.5922C55.202 15.5922 56.1739 14.5507 56.1739 13.0882Z" fill="#FED317"/>
<path d="M59.8164 6.25391H64.3022C67.1577 6.25391 68.4334 7.83359 68.4334 9.9831C68.4334 12.1326 67.1577 13.7123 64.3022 13.7123H61.9691V17.2389H59.8196V6.25391H59.8164ZM64.3339 11.7306C65.7616 11.7306 66.2491 10.993 66.2491 9.9831C66.2491 8.97324 65.7616 8.25463 64.3339 8.25463H61.9659V11.7306H64.3339Z" fill="black"/>
<path d="M69.2715 13.0882C69.2715 10.5683 71.1202 8.72266 73.7383 8.72266C76.3563 8.72266 78.2051 10.5714 78.2051 13.0882C78.2051 15.6049 76.3563 17.4537 73.7383 17.4537C71.1202 17.4537 69.2715 15.6049 69.2715 13.0882ZM76.1759 13.0882C76.1759 11.6256 75.2008 10.5841 73.7415 10.5841C72.2821 10.5841 71.288 11.6256 71.288 13.0882C71.288 14.5507 72.2789 15.5922 73.7415 15.5922C75.204 15.5922 76.1759 14.5507 76.1759 13.0882Z" fill="black"/>
<path d="M79.52 14.0441V6H81.5176V8.93777H85.8008V10.7517H81.5176V14.0441C81.5176 15.152 82.0874 15.5889 82.9105 15.5889C83.7336 15.5889 84.3034 15.1679 84.3034 14.0441V13.8256H86.3009V14.0441C86.3009 16.3455 84.9239 17.4535 82.9073 17.4535C80.8908 17.4535 79.5137 16.3455 79.5137 14.0441H79.52Z" fill="black"/>
<path d="M87.2461 13.1697C87.2461 10.5327 89.0949 8.71875 91.7319 8.71875C94.3689 8.71875 96.148 10.482 96.148 13.1539V17.2345H94.3183V15.6042C93.8149 16.8293 92.6879 17.4529 91.3805 17.4529C89.3639 17.4529 87.2493 16.0094 87.2493 13.1697H87.2461ZM94.1505 13.0843C94.1505 11.6217 93.1755 10.5802 91.7161 10.5802C90.2567 10.5802 89.2626 11.6217 89.2626 13.0843C89.2626 14.5468 90.2535 15.5883 91.7161 15.5883C93.1786 15.5883 94.1505 14.5468 94.1505 13.0843Z" fill="black"/>
<path d="M97.7954 14.0441V6H99.793V8.93777H104.076V10.7517H99.793V14.0441C99.793 15.152 100.363 15.5889 101.186 15.5889C102.009 15.5889 102.579 15.1679 102.579 14.0441V13.8256H104.576V14.0441C104.576 16.3455 103.199 17.4535 101.183 17.4535C99.1661 17.4535 97.7891 16.3455 97.7891 14.0441H97.7954Z" fill="black"/>
<path d="M105.523 13.0882C105.523 10.5683 107.372 8.72266 109.99 8.72266C112.608 8.72266 114.457 10.5714 114.457 13.0882C114.457 15.6049 112.608 17.4537 109.99 17.4537C107.372 17.4537 105.523 15.6049 105.523 13.0882ZM112.428 13.0882C112.428 11.6256 111.453 10.5841 109.993 10.5841C108.534 10.5841 107.54 11.6256 107.54 13.0882C107.54 14.5507 108.531 15.5922 109.993 15.5922C111.456 15.5922 112.428 14.5507 112.428 13.0882Z" fill="black"/>
<path d="M53.7355 14.7289C54.6412 14.7289 55.3754 13.9947 55.3754 13.0891C55.3754 12.1834 54.6412 11.4492 53.7355 11.4492C52.8299 11.4492 52.0957 12.1834 52.0957 13.0891C52.0957 13.9947 52.8299 14.7289 53.7355 14.7289Z" fill="black"/>
<path d="M109.989 14.7289C110.895 14.7289 111.629 13.9947 111.629 13.0891C111.629 12.1834 110.895 11.4492 109.989 11.4492C109.084 11.4492 108.35 12.1834 108.35 13.0891C108.35 13.9947 109.084 14.7289 109.989 14.7289Z" fill="#FED317"/>
</svg>
