<svg width="148" height="24" viewBox="0 0 148 24" fill="none" xmlns="http://www.w3.org/2000/svg">
<path d="M14.8489 17.9568C14.9443 17.9568 15.0216 18.0341 15.0216 18.1295V23.8273C15.0216 23.9227 14.9443 24 14.8489 24H6.21583C6.12047 24 6.04317 23.9227 6.04317 23.8273V18.1295C6.04317 18.0341 6.12047 17.9568 6.21583 17.9568H14.8489ZM5.8705 6.04317C5.96586 6.04317 6.04317 6.12047 6.04317 6.21583V17.7842C6.04317 17.8795 5.96586 17.9568 5.8705 17.9568H0.172662C0.0773034 17.9568 1.73813e-09 17.8795 0 17.7842V6.21583C0 6.12047 0.0773034 6.04317 0.172662 6.04317H5.8705ZM18.6475 15.0216C18.7428 15.0216 18.8201 15.0989 18.8201 15.1942V17.7842C18.8201 17.8795 18.7428 17.9568 18.6475 17.9568H15.1942C15.0989 17.9568 15.0216 17.8795 15.0216 17.7842V15.1942C15.0216 15.0989 15.0989 15.0216 15.1942 15.0216H18.6475ZM18.6475 6.04317C18.7428 6.04317 18.8201 6.12047 18.8201 6.21583V8.80576C18.8201 8.90111 18.7428 8.97842 18.6475 8.97842H15.1942C15.0989 8.97842 15.0216 8.90111 15.0216 8.80576V6.21583C15.0216 6.12047 15.0989 6.04317 15.1942 6.04317H18.6475ZM14.8489 0C14.9443 6.6743e-08 15.0216 0.0773034 15.0216 0.172662V5.8705C15.0216 5.96586 14.9443 6.04317 14.8489 6.04317H6.21583C6.12047 6.04317 6.04317 5.96586 6.04317 5.8705V0.172662C6.04317 0.0773034 6.12047 3.4762e-09 6.21583 0H14.8489Z" fill="#2E485E"/>
<path d="M47.871 9.68927C48.4094 9.68928 48.8993 9.82388 49.3405 10.0931C49.7892 10.3548 50.1407 10.725 50.395 11.2036C50.6493 11.6822 50.7764 12.2319 50.7764 12.8527C50.7764 13.4734 50.6493 14.0306 50.395 14.5241C50.1407 15.0102 49.7892 15.3917 49.3405 15.6684C48.8993 15.9376 48.4094 16.0722 47.871 16.0722C47.3999 16.0722 46.981 15.9787 46.6146 15.7917C46.2481 15.5973 45.9489 15.3579 45.7171 15.0737V18.9102H44.4383V9.79019H45.7171V10.6989C45.934 10.4147 46.2294 10.1753 46.6034 9.98089C46.9773 9.78645 47.3999 9.68927 47.871 9.68927ZM40.3434 14.5016L42.1496 9.79019H43.4733L39.6816 18.8766H38.3579L39.6143 15.8703L37.18 9.79019H38.6047L40.3434 14.5016ZM58.952 9.68927C59.5428 9.68927 60.0775 9.82014 60.5561 10.0819C61.0347 10.3436 61.4124 10.7175 61.6891 11.2036C61.9658 11.6897 62.1041 12.2469 62.1041 12.8751C62.1041 13.5033 61.9621 14.0605 61.6779 14.5466C61.3937 15.0327 61.0048 15.4104 60.5112 15.6796C60.0251 15.9413 59.4867 16.0722 58.8959 16.0722C58.3126 16.0722 57.7853 15.9413 57.3142 15.6796C56.8431 15.4104 56.4729 15.0364 56.2036 14.5578C55.9344 14.0717 55.7998 13.5108 55.7998 12.8751C55.7998 12.2469 55.9381 11.6897 56.2148 11.2036C56.4915 10.7175 56.8692 10.3436 57.3479 10.0819C57.8265 9.82014 58.3612 9.68927 58.952 9.68927ZM74.1117 9.68927C74.695 9.68927 75.2148 9.81633 75.671 10.0706C76.1272 10.3249 76.4824 10.6839 76.7366 11.1475C76.9909 11.6037 77.1181 12.131 77.1181 12.7292C77.1181 12.9611 77.1031 13.1705 77.0732 13.3575H72.3505C72.3879 13.8511 72.5711 14.2474 72.9001 14.5466C73.2292 14.8457 73.6331 14.9952 74.1117 14.9952C74.7997 14.9952 75.2858 14.7073 75.57 14.1315H76.9498C76.7628 14.6999 76.4226 15.1673 75.929 15.5337C75.4429 15.8927 74.8371 16.0722 74.1117 16.0722C73.5209 16.0722 72.9899 15.9413 72.5187 15.6796C72.0551 15.4104 71.6887 15.0364 71.4195 14.5578C71.1577 14.0717 71.0268 13.5108 71.0268 12.8751C71.0268 12.2394 71.154 11.6822 71.4082 11.2036C71.67 10.7175 72.0327 10.3436 72.4963 10.0819C72.9675 9.82014 73.506 9.68927 74.1117 9.68927ZM89.7761 9.68927C90.479 9.68927 91.0436 9.86871 91.4699 10.2277C91.9037 10.5791 92.1355 11.0616 92.1654 11.6748H90.8866C90.8641 11.3981 90.752 11.1774 90.5501 11.0129C90.3482 10.8484 90.0751 10.7661 89.7311 10.7661C89.3946 10.7661 89.1366 10.8297 88.9571 10.9568C88.7776 11.084 88.6879 11.2523 88.6879 11.4617C88.6879 11.6262 88.7478 11.7645 88.8674 11.8767C88.9871 11.9889 89.1329 12.0786 89.3049 12.1459C89.4769 12.2057 89.7312 12.2842 90.0677 12.3815C90.5164 12.5011 90.8829 12.6245 91.1671 12.7517C91.4587 12.8713 91.7093 13.0508 91.9187 13.2901C92.1281 13.5294 92.2364 13.8473 92.2439 14.2436C92.2439 14.5951 92.1468 14.9092 91.9523 15.186C91.7579 15.4626 91.4812 15.6795 91.1222 15.8366C90.7707 15.9936 90.3556 16.0722 89.877 16.0722C89.3909 16.0722 88.9534 15.9861 88.5645 15.8141C88.1831 15.6347 87.8803 15.3954 87.6559 15.0962C87.4316 14.7896 87.3119 14.4493 87.2969 14.0754H88.6206C88.6431 14.3371 88.7665 14.5578 88.9908 14.7373C89.2227 14.9093 89.5106 14.9952 89.8546 14.9952C90.2135 14.9952 90.4902 14.9279 90.6847 14.7933C90.8866 14.6512 90.9876 14.4717 90.9876 14.2549C90.9876 14.023 90.8754 13.851 90.651 13.7388C90.4341 13.6266 90.0864 13.5033 89.6078 13.3687C89.1441 13.2416 88.7664 13.1182 88.4748 12.9985C88.1831 12.8789 87.9288 12.6956 87.712 12.4488C87.5026 12.202 87.3978 11.8767 87.3978 11.4729C87.3978 11.1438 87.4951 10.8447 87.6895 10.5754C87.884 10.2987 88.1607 10.0819 88.5196 9.92482C88.8861 9.76778 89.3049 9.68927 89.7761 9.68927ZM28.4837 8.07385C29.3138 8.07386 30.0504 8.27951 30.6936 8.69082C31.3442 9.09466 31.8154 9.67051 32.1071 10.4184H30.5703C30.3683 10.007 30.0878 9.7004 29.7289 9.49848C29.3699 9.29657 28.9549 9.19565 28.4837 9.19565C27.9677 9.19565 27.5078 9.31159 27.1039 9.54342C26.7001 9.77525 26.3823 10.108 26.1504 10.5418C25.9261 10.9755 25.8139 11.4804 25.8139 12.0562C25.8139 12.632 25.9261 13.1368 26.1504 13.5705C26.3823 14.0043 26.7001 14.3409 27.1039 14.5802C27.5078 14.812 27.9677 14.928 28.4837 14.928C28.9549 14.928 29.3699 14.827 29.7289 14.6251C30.0878 14.4231 30.3683 14.1165 30.5703 13.7052H32.1071C31.8154 14.453 31.3442 15.0289 30.6936 15.4327C30.0504 15.8366 29.3138 16.0385 28.4837 16.0385C27.7508 16.0385 27.0814 15.8703 26.4757 15.5337C25.8699 15.1897 25.3876 14.7148 25.0286 14.109C24.6772 13.5033 24.5014 12.819 24.5014 12.0562C24.5014 11.2934 24.6771 10.6091 25.0286 10.0033C25.3876 9.39757 25.8699 8.92643 26.4757 8.5899C27.0889 8.24589 27.7583 8.07385 28.4837 8.07385ZM36.7337 11.0129H36.4084C35.9073 11.0129 35.5259 11.14 35.2642 11.3943C35.0099 11.6486 34.8828 12.0898 34.8828 12.718V15.9712H33.604V9.79019H34.8828V10.6876C35.0697 10.3735 35.3165 10.1305 35.6231 9.95846C35.9372 9.77898 36.3074 9.68927 36.7337 9.68927V11.0129ZM53.533 9.79019H55.0361V10.8334H53.533V14.2549C53.533 14.4867 53.5853 14.655 53.69 14.7597C53.8022 14.8569 53.9892 14.9055 54.2509 14.9055H55.0361V15.9712H54.0266C53.4507 15.9712 53.0095 15.8366 52.7028 15.5674C52.3962 15.2981 52.2429 14.8606 52.2429 14.2549V10.8334H51.5138V9.79019H52.2429V8.25334H53.533V9.79019ZM68.4949 13.9745V8.16364H69.7738V15.9712H68.4949L64.6472 10.1492V15.9712H63.3683V8.16364H64.6472L68.4949 13.9745ZM80.2387 14.7597L81.5512 9.79019H82.8861L84.1426 14.7373L85.4213 9.79019H86.6778L84.7595 15.9712H83.4134L82.1682 11.4055L80.923 15.9712H79.5769L77.6474 9.79019H78.9487L80.2387 14.7597ZM47.5905 10.7998C47.2689 10.7998 46.9623 10.8821 46.6706 11.0466C46.3865 11.2111 46.1547 11.4504 45.9752 11.7645C45.8032 12.0786 45.7171 12.4488 45.7171 12.8751C45.7171 13.3014 45.8032 13.6753 45.9752 13.9969C46.1547 14.311 46.3865 14.5503 46.6706 14.7148C46.9623 14.8794 47.2689 14.9616 47.5905 14.9616C47.9196 14.9616 48.2262 14.8794 48.5104 14.7148C48.802 14.5428 49.0338 14.296 49.2058 13.9745C49.3853 13.6529 49.4751 13.2789 49.4751 12.8527C49.4751 12.4264 49.3853 12.0599 49.2058 11.7533C49.0338 11.4392 48.802 11.2037 48.5104 11.0466C48.2262 10.8821 47.9196 10.7998 47.5905 10.7998ZM58.9295 10.7998C58.6005 10.7998 58.2938 10.8783 58.0097 11.0353C57.733 11.1924 57.5124 11.428 57.3479 11.7421C57.1833 12.0487 57.101 12.4264 57.101 12.8751C57.101 13.5407 57.2693 14.0567 57.6058 14.4231C57.9498 14.7821 58.3799 14.9616 58.8959 14.9616C59.2249 14.9616 59.5315 14.8831 59.8157 14.7261C60.1074 14.569 60.343 14.3334 60.5224 14.0193C60.7019 13.7052 60.7917 13.3238 60.7917 12.8751C60.7917 12.4264 60.7057 12.0487 60.5337 11.7421C60.3617 11.428 60.1336 11.1924 59.8494 11.0353C59.5652 10.8783 59.2586 10.7998 58.9295 10.7998ZM74.0556 10.7661C73.6144 10.7661 73.2367 10.9082 72.9226 11.1924C72.6085 11.4691 72.4216 11.8468 72.3618 12.3254H75.7831C75.7756 11.8543 75.6074 11.4766 75.2784 11.1924C74.9493 10.9082 74.5417 10.7661 74.0556 10.7661Z" fill="#2E485E"/>
</svg>
