<svg width="148" height="24" viewBox="0 0 148 24" fill="none" xmlns="http://www.w3.org/2000/svg">
<path d="M17.1045 18.0562L10.8886 21.8212C10.0598 22.3162 9.03094 22.3162 8.20215 21.8212L1.92905 18.0562C1.08596 17.5612 0.557251 16.6163 0.557251 15.6112V8.08125C0.557251 7.07625 1.10025 6.13125 1.92905 5.63625L8.14499 1.87125C8.97378 1.37625 10.0026 1.37625 10.8314 1.87125L17.0474 5.63625C17.8904 6.13125 18.4192 7.07625 18.4192 8.08125V15.6712C18.4192 16.6162 17.9333 17.5612 17.1045 18.0562Z" fill="url(#paint0_radial_3511_2817)"/>
<path d="M15.6046 7.03125H13.2754V7.66125C14.4757 7.85625 14.5901 9.16125 14.5901 9.16125V12.5513L11.2606 8.09625L10.5461 7.03125H7.97401C8.03116 7.09125 8.57417 7.84125 9.28864 8.84625L12.6324 13.4812C12.9896 13.9162 14.5472 16.1813 14.8473 16.6763H15.919V7.78125C15.9047 7.78125 16.019 7.03125 15.6046 7.03125ZM9.27435 12.1013V10.0912H7.95972V12.9113C7.95972 13.2863 7.95972 13.6013 8.37411 13.6013H10.589V12.9713C10.1174 12.9113 9.74591 12.9713 9.57443 12.7763C9.33151 12.6713 9.27435 12.4163 9.27435 12.1013Z" fill="white"/>
<path d="M7.65955 7.03125C6.45923 7.03125 5.21604 7.22625 4.13003 8.47125C3.11548 9.65625 3.00116 11.0363 3.00116 11.8613C3.00116 15.1163 5.38751 16.6313 6.88791 16.6313H9.6315V15.3113H7.60239C5.8162 15.3113 4.61588 13.3012 4.61588 11.7412C4.61588 10.1812 5.68759 8.86125 6.40207 8.86125H9.20282L7.88818 7.04625C7.90247 7.03125 7.65955 7.03125 7.65955 7.03125Z" fill="white"/>
<path d="M28.1864 16.9933C27.9624 17.138 27.8246 17.138 27.6179 17.138C25.7401 17.138 22.8633 15.2573 22.8633 11.3152C22.8633 10.2483 23.0011 8.60266 24.2242 7.15599C25.5162 5.63699 27.0322 5.34766 28.5481 5.34766C28.9099 5.34766 29.2027 5.34766 29.4095 5.41999C29.9779 5.49232 30.4258 5.7274 30.4258 6.01674C30.4258 6.08907 30.4258 6.16141 30.3569 6.32416L29.6334 8.96433H29.2027C28.7032 6.84858 28.2725 6.46882 27.325 6.46882C25.7401 6.46882 24.8099 8.43991 24.8099 10.3206C24.8099 13.2682 26.5326 15.0042 28.7721 15.0042C29.6334 15.0042 30.0641 14.8595 30.7876 14.6244L31.0116 15.0042L28.1864 16.9933ZM36.817 11.8396H36.4553C36.1624 10.9354 35.8006 10.628 35.3011 10.628C34.8015 10.628 34.5086 11.1524 34.4397 11.5322C34.4397 11.6768 34.3708 12.2193 34.3708 12.5991V14.5702C34.3708 16.6136 34.7326 16.6859 35.9557 16.8306V17.2827H32.9237C32.6998 17.2827 32.2691 17.2103 32.2691 16.6859C32.2691 15.9264 32.4931 13.2863 32.4931 12.2193C32.4931 9.6515 32.3553 9.50683 31.1321 9.34408V8.892H33.8023C34.233 8.892 34.3019 9.12708 34.3019 9.6515V10.7184L35.1632 9.12708C35.3011 8.892 35.3872 8.81966 35.5939 8.81966C35.8868 8.81966 36.4553 8.892 37.1099 9.34408C37.5405 9.57917 37.6784 9.79617 37.6784 10.0312C37.6784 10.2663 37.4544 10.628 37.3855 10.8631C37.4027 10.8631 36.817 11.8396 36.817 11.8396ZM43.2254 14.2628C43.725 13.1235 44.6725 11.0078 44.6725 10.1036C44.6725 9.50683 44.1729 9.41641 43.4494 9.27175V8.81966H45.396C45.8267 8.81966 46.2573 8.81967 46.2573 9.34408C46.2573 9.57917 46.1884 9.79617 46.0334 10.3206C45.6716 11.3875 44.3796 14.5521 43.2254 17.2827C43.0876 17.6624 42.8636 18.1869 42.8636 18.5666C42.8636 19.091 43.2254 19.2538 44.2246 19.4708V19.8505H41.3477C40.9859 19.8505 40.6931 19.7782 40.6931 19.3984C40.6931 19.2538 40.6931 19.091 40.8309 18.874L42.054 16.2338L39.5389 10.3387C39.1771 9.50683 38.7464 9.19941 38.1779 9.12708V8.675H40.1935C40.8481 8.675 41.1237 8.675 41.2788 9.12708L43.2254 14.2628ZM51.5115 19.9409H48.5657C48.204 19.9409 47.9111 19.9409 47.9111 19.1814C47.9111 18.5847 48.1351 16.1615 48.1351 14.8053V12.1651C48.1351 9.59725 47.9972 9.45258 46.7741 9.28983V8.83775H49.4443C49.875 8.83775 49.9439 9.07283 49.9439 9.36216C49.9439 9.59725 50.0128 9.88658 49.9439 10.6461L50.8052 9.12708C50.943 8.892 51.0981 8.74733 51.6666 8.74733C52.2351 8.74733 53.1136 8.892 53.751 9.4345C54.9741 10.5014 54.9741 11.93 54.9741 12.5268C54.9741 14.8776 53.6821 17.2104 51.0809 17.2104C50.5813 17.2104 50.2195 17.138 49.8578 17.0657C49.8578 19.1091 50.2195 19.4165 51.4426 19.5612V19.9409H51.5115ZM51.4426 10.4833C50.788 10.4833 50.3573 10.8631 50.0817 11.0801C50.0128 11.5322 50.0128 13.7926 50.0128 14.1723C50.0128 15.1488 50.0128 16.1434 51.3048 16.1434C52.3901 16.1434 53.2514 15.0042 53.2514 13.1235C53.1653 11.1705 52.1662 10.4833 51.4426 10.4833ZM60.2283 9.81425H58.7124C58.6435 12.0023 58.7124 13.8288 58.7813 14.3532C58.9191 14.9499 59.2119 15.6371 60.2283 15.6371C60.4523 15.6371 60.659 15.6371 60.8829 15.5648L60.9519 15.8722L58.9363 17.0838C58.7985 17.1561 58.6435 17.2284 58.5056 17.2284C58.2817 17.2284 56.783 16.921 56.783 14.6606L56.8519 9.90466C56.3523 9.90466 56.2834 9.977 55.7666 10.0493V9.59725C56.4212 9.2175 56.783 9.07283 56.8519 8.00591L56.9208 6.86666C56.9897 6.72199 57.1447 6.55924 57.2825 6.48691L58.2989 5.96249C58.3678 5.89016 58.5229 5.81783 58.6607 5.81783C58.9535 5.81783 58.9535 5.96249 58.9535 6.19757C58.9535 6.50499 58.9535 6.57733 58.8846 7.2645C58.8846 7.78891 58.8157 7.86124 58.8157 8.85583H60.7624L60.2283 9.81425ZM65.0519 8.60266C67.3603 8.60266 68.8762 10.5738 68.8762 13.1416C68.8762 15.185 67.6531 16.3966 67.0846 16.6859C66.2233 17.2103 65.4308 17.2104 64.8451 17.2104C62.33 17.2104 61.3136 14.5702 61.3136 12.9065C61.3136 10.411 62.8124 8.60266 65.0519 8.60266ZM65.4136 16.1615C65.8443 16.1615 66.275 15.9264 66.5678 15.4743C66.7056 15.2393 66.9296 14.7872 66.9296 13.883C66.9296 13.1235 66.5678 9.57916 64.8451 9.57916C63.6909 9.57916 63.3292 10.6461 63.3292 11.7673C63.243 13.3586 63.8287 16.1615 65.4136 16.1615ZM68.859 5.65507H72.0287L72.8901 6.93899L76.9901 12.3821V8.22291C76.9901 6.70391 76.8523 6.34224 75.3363 6.10715V5.65507H78.1443C78.6438 5.65507 78.6438 6.10716 78.6438 6.48691V17.138H77.8514L75.1123 13.4309L71.8737 9.27175L71.8048 13.4309C71.8048 16.2338 72.0287 16.4508 73.4586 16.7583V17.2104H70.6678C70.4439 17.2104 69.9443 17.2103 69.9443 16.6136C69.9443 16.0892 70.1682 12.3821 70.1682 8.29524C70.1682 6.63157 69.9443 6.48691 68.8073 6.10715V5.65507H68.859ZM85.0867 16.8306C84.9489 17.0657 84.4321 17.138 83.7258 17.138C82.4338 17.138 81.0556 16.3785 80.4182 15.1669C79.8497 14.1 79.8497 13.3586 79.8497 12.8161C79.8497 10.3929 81.3657 8.51225 83.3812 8.51225C85.6896 8.51225 86.6199 10.628 86.6199 12.147C86.6199 12.5268 86.6199 12.9065 85.9653 12.9065C85.6724 12.9065 84.4493 12.8342 84.1737 12.8342L82.451 12.9065C82.227 12.9065 81.8825 12.9065 81.8825 13.3586C81.8825 13.8107 82.606 15.2393 84.122 15.2393C84.7766 15.2393 85.414 15.2393 86.4304 14.6425L86.6543 14.9499L85.0867 16.8306ZM81.7619 12.5991C81.8308 12.5991 81.9859 12.5991 82.3304 11.6949C83.0539 11.6949 83.3468 11.7673 83.6224 11.7673C83.8464 11.7673 84.0531 11.7673 84.8455 11.6949C84.7766 11.0078 84.7766 10.628 84.4838 10.1759C84.2598 9.79616 83.9153 9.48875 83.3985 9.48875C81.8825 9.48875 81.6069 11.2971 81.6069 11.9119C81.5552 12.4544 81.6069 12.5991 81.7619 12.5991ZM95.285 14.0458C95.9396 12.6172 96.2153 11.5503 96.3014 11.4056C96.4392 11.0258 96.5942 10.2663 96.5942 10.0493C96.5942 9.52492 96.0947 9.28983 95.2333 9.07283V8.62075H97.1111C97.5417 8.62075 97.9724 8.62075 97.9724 9.14516C97.9724 10.2844 96.7493 13.3767 95.0955 17.0838H94.372L92.6493 12.4002L90.7543 17.0657H90.0308C88.5838 12.6895 87.9464 11.3152 87.3606 9.88658C87.1367 9.36217 86.7922 9.12708 86.1375 8.98242V8.53033H88.2909C88.7216 8.53033 89.0144 8.53033 89.2211 9.05475L90.806 13.7383L92.6837 8.53033H93.3384L95.285 14.0458ZM103.278 11.1705H102.917C102.624 9.95891 101.9 9.50683 101.125 9.50683C100.195 9.50683 99.9018 10.3387 99.9018 10.6461C99.9018 11.2428 100.401 11.5503 101.125 11.713C102.779 12.0928 102.917 12.0928 103.278 12.3098C103.967 12.6895 104.381 13.449 104.364 14.2808C104.364 14.8053 104.226 16.3243 102.71 16.921C102.348 17.0657 101.848 17.2284 101.056 17.2284C100.195 17.2284 99.8329 17.0838 99.4022 16.921C99.1094 16.8487 98.3169 16.4689 98.3169 16.0892C98.3169 15.9445 98.3858 15.7818 98.4548 15.5648L98.8854 14.2085H99.2472C99.54 15.0403 99.9018 16.1796 101.332 16.1796C101.9 16.1796 102.779 15.8722 102.779 14.8233C102.779 13.9915 102.21 13.8468 101.556 13.6841L100.109 13.3043C99.0232 12.9969 98.3858 12.3278 98.3858 11.2609C98.3858 9.90466 99.3161 8.54841 101.332 8.54841C102.917 8.54841 103.847 9.00049 103.847 9.45258C103.847 9.59725 103.778 9.76 103.709 9.90466L103.278 11.1705ZM113.029 16.6136C112.96 17.2103 112.46 17.2104 112.098 17.2104H104.605V16.4508C106.259 13.8107 109.79 7.75274 110.083 7.01132C109.652 7.01132 109.153 6.93899 108.722 6.93899C106.999 6.93899 106.345 7.08366 105.483 8.98242H104.984L105.483 6.17949C105.552 5.79974 105.707 5.65507 106.052 5.65507H112.822V6.34224C111.599 7.93358 107.706 15.3297 107.43 15.7818C107.654 15.7818 107.93 15.8541 108.722 15.8541C111.823 15.8541 112.185 15.402 112.977 13.3586H113.477L113.029 16.6136Z" fill="#0088FF"/>
<defs>
<radialGradient id="paint0_radial_3511_2817" cx="0" cy="0" r="1" gradientUnits="userSpaceOnUse" gradientTransform="translate(9.48821 11.8462) rotate(90) scale(10.3462 8.93095)">
<stop stop-color="#0072CF"/>
<stop offset="1" stop-color="#0575D1"/>
</radialGradient>
</defs>
</svg>
