<svg xmlns="http://www.w3.org/2000/svg" width="182" height="54" viewBox="0 0 182 54" fill="none">
<g clip-path="url(#clip0_3070_3162)">
<path fill-rule="evenodd" clip-rule="evenodd" d="M125.689 21.1372H128.663V18.1633H125.689V21.1372ZM109.882 26.0921C110.451 24.5843 111.905 23.512 113.609 23.512C115.314 23.512 116.772 24.5843 117.337 26.0921H109.882ZM113.609 20.7435C109.882 20.7435 106.858 23.7675 106.858 27.4953C106.858 31.223 109.882 34.2471 113.609 34.2471C116.169 34.2471 118.393 32.823 119.536 30.7288L117.044 29.5183C116.349 30.6953 115.071 31.4827 113.609 31.4827C111.762 31.4827 110.208 30.2262 109.756 28.5173H117.463V28.5215H120.286C120.336 28.1864 120.361 27.8429 120.361 27.4953C120.361 23.7675 117.341 20.7435 113.609 20.7435ZM121.149 33.8869H124.123V30.9131H121.149V33.8869ZM125.689 33.8869H128.663V22.444H125.689V33.8869ZM136.96 31.4827C134.757 31.4827 132.973 29.6984 132.973 27.4953C132.973 25.2921 134.757 23.5078 136.96 23.5078C139.163 23.5078 140.948 25.2921 140.948 27.4953C140.948 29.6984 139.163 31.4827 136.96 31.4827ZM136.96 20.7435C133.232 20.7435 130.208 23.7675 130.208 27.4953C130.208 31.223 133.232 34.2471 136.96 34.2471C140.688 34.2471 143.712 31.223 143.712 27.4953C143.712 23.7675 140.688 20.7435 136.96 20.7435ZM74.7864 25.0073V28.0817H78.9455C78.7277 28.9613 78.3005 29.7487 77.6848 30.377C76.755 31.3277 75.4691 31.8471 74.0618 31.8471C71.1382 31.8471 68.7592 29.4681 68.7592 26.5403C68.7592 23.6167 71.1382 21.2335 74.0618 21.2335C75.6283 21.2335 77.0691 21.9037 78.066 23.0597L80.445 21.112C78.866 19.2607 76.5246 18.155 74.0618 18.155C69.4419 18.155 65.6848 21.9162 65.6848 26.5361C65.6848 31.156 69.4419 34.9173 74.0618 34.9173C76.3068 34.9173 78.3717 34.1089 79.8838 32.5633C81.1529 31.2649 81.9948 29.4555 82.1539 27.6461C82.2335 26.7623 82.2419 25.8827 82.1916 24.9989L74.7864 25.0073ZM89.9319 31.4827C87.733 31.4827 85.9445 29.6984 85.9445 27.4953C85.9445 25.2921 87.7288 23.5078 89.9319 23.5078C92.1351 23.5078 93.9194 25.2921 93.9194 27.4953C93.9194 29.6984 92.1351 31.4827 89.9319 31.4827ZM93.9194 22.0586C92.801 21.2377 91.423 20.756 89.9319 20.756C86.2042 20.756 83.1843 23.7801 83.1843 27.5078C83.1843 31.2356 86.2084 34.2597 89.9319 34.2597C91.423 34.2597 92.801 33.7738 93.9194 32.9571V33.8911H96.6838V21.1246H93.9194V22.0586ZM102.615 18.1633H99.8503V21.1372H98.1958V23.7466H99.8503V30.5738C99.8503 31.2775 99.9382 31.8722 100.114 32.3372C100.286 32.7979 100.554 33.1581 100.868 33.4387C101.186 33.7236 101.559 33.9455 102.003 34.0754C102.455 34.201 102.95 34.2513 103.477 34.2513C104.022 34.2513 104.508 34.1969 104.918 34.0838C105.304 33.9791 105.672 33.8325 106.012 33.6482V31.5455C105.467 31.7801 104.956 31.8681 104.374 31.8932C103.758 31.9225 103.398 31.7466 103.096 31.4576C102.778 31.156 102.61 30.7623 102.61 30.1047V23.7466H106.012V21.1372H102.61V18.1633H102.615Z" fill="#1A1A1A"/>
<path fill-rule="evenodd" clip-rule="evenodd" d="M50.9874 32.5927C47.3476 32.5927 44.3948 29.6398 44.3948 26C44.3948 22.3602 47.3476 19.4073 50.9874 19.4073V14.0084C44.3654 14.0084 39 19.378 39 26C39 32.622 44.3654 37.9874 50.9874 37.9874C57.6052 37.9874 62.9749 32.6178 62.9749 26H57.5801C57.5801 29.644 54.6272 32.5927 50.9874 32.5927Z" fill="#2354E6"/>
<path fill-rule="evenodd" clip-rule="evenodd" d="M50.9874 26H57.5801V19.4073H50.9874V26Z" fill="#17E6A1"/>
</g>
<defs>
<clipPath id="clip0_3070_3162">
<rect width="104.712" height="24" fill="white" transform="translate(39 14)"/>
</clipPath>
</defs>
</svg>