<svg xmlns="http://www.w3.org/2000/svg" width="182" height="54" viewBox="0 0 182 54" fill="none">
<path d="M62.3331 24.795C62.1277 24.4123 61.8304 24.1225 61.4412 23.9257C61.0629 23.7179 60.6142 23.6141 60.0953 23.6141C59.198 23.6141 58.4791 23.9148 57.9386 24.5162C57.3981 25.1067 57.1278 25.8995 57.1278 26.8947C57.1278 27.9554 57.4089 28.7865 57.9711 29.388C58.544 29.9785 59.3278 30.2737 60.3223 30.2737C61.0034 30.2737 61.5764 30.0988 62.0412 29.7488C62.5169 29.3989 62.8628 28.8958 63.0791 28.2398H59.5602V26.1729H65.5925V28.781C65.3871 29.4809 65.0357 30.1316 64.5385 30.7331C64.052 31.3345 63.4304 31.8211 62.6736 32.1929C61.9169 32.5647 61.0629 32.7506 60.1115 32.7506C58.9873 32.7506 57.9819 32.5046 57.0954 32.0125C56.2197 31.5094 55.5333 30.8151 55.036 29.9293C54.5495 29.0435 54.3063 28.0319 54.3063 26.8947C54.3063 25.7574 54.5495 24.7458 55.036 23.86C55.5333 22.9633 56.2197 22.269 57.0954 21.7769C57.9711 21.2738 58.971 21.0223 60.0953 21.0223C61.4574 21.0223 62.6034 21.3558 63.5331 22.0229C64.4736 22.69 65.0952 23.6141 65.3979 24.795H62.3331Z" fill="#3478F6"/>
<path d="M71.8319 23.4008V25.7301H75.5452V27.8953H71.8319V30.4213H76.0317V32.6686H69.059V21.1535H76.0317V23.4008H71.8319Z" fill="#3478F6"/>
<path d="M87.9514 21.1535V23.4008H84.9353V32.6686H82.1624V23.4008H79.1462V21.1535H87.9514Z" fill="#3478F6"/>
<path d="M98.1655 26.7634C98.8249 26.9056 99.3542 27.2391 99.7544 27.764C100.154 28.278 100.355 28.8686 100.355 29.5356C100.355 30.4979 100.019 31.2634 99.3487 31.832C98.6894 32.3897 97.7654 32.6686 96.576 32.6686H91.2735V21.1535H96.3977C97.5544 21.1535 98.457 21.4215 99.106 21.9573C99.7654 22.4931 100.095 23.2203 100.095 24.1389C100.095 24.8169 99.9166 25.3801 99.5598 25.8284C99.214 26.2768 98.7492 26.5885 98.1655 26.7634ZM94.0464 25.8121H95.8626C96.3167 25.8121 96.6625 25.7136 96.9005 25.5168C97.1487 25.309 97.2732 25.0083 97.2732 24.6147C97.2732 24.2209 97.1487 23.9202 96.9005 23.7124C96.6625 23.5047 96.3167 23.4008 95.8626 23.4008H94.0464V25.8121ZM96.0896 30.405C96.5545 30.405 96.9109 30.3011 97.1597 30.0933C97.4196 29.8746 97.5489 29.5629 97.5489 29.1583C97.5489 28.7537 97.4141 28.4366 97.1439 28.2069C96.884 27.9773 96.522 27.8625 96.0572 27.8625H94.0464V30.405H96.0896Z" fill="#3478F6"/>
<path d="M106.666 30.5034H110.299V32.6686H103.893V21.1535H106.666V30.5034Z" fill="#3478F6"/>
<path d="M118.935 32.7835C117.865 32.7835 116.881 32.5319 115.983 32.0289C115.097 31.5259 114.389 30.826 113.86 29.9293C113.341 29.0216 113.081 28.0046 113.081 26.8782C113.081 25.7519 113.341 24.7404 113.86 23.8437C114.389 22.947 115.097 22.2471 115.983 21.7441C116.881 21.241 117.865 20.9895 118.935 20.9895C120.005 20.9895 120.984 21.241 121.87 21.7441C122.768 22.2471 123.47 22.947 123.978 23.8437C124.497 24.7404 124.757 25.7519 124.757 26.8782C124.757 28.0046 124.497 29.0216 123.978 29.9293C123.459 30.826 122.757 31.5259 121.87 32.0289C120.984 32.5319 120.005 32.7835 118.935 32.7835ZM118.935 30.2245C119.843 30.2245 120.568 29.9183 121.108 29.3059C121.659 28.6936 121.935 27.8843 121.935 26.8782C121.935 25.8613 121.659 25.052 121.108 24.4506C120.568 23.8382 119.843 23.532 118.935 23.532C118.016 23.532 117.281 23.8328 116.729 24.4342C116.189 25.0357 115.919 25.8504 115.919 26.8782C115.919 27.8953 116.189 28.7099 116.729 29.3224C117.281 29.9238 118.016 30.2245 118.935 30.2245Z" fill="#3478F6"/>
<path d="M127.76 26.8947C127.76 25.7574 128.002 24.7458 128.489 23.86C128.976 22.9633 129.651 22.269 130.516 21.7769C131.392 21.2738 132.381 21.0223 133.484 21.0223C134.835 21.0223 135.992 21.3832 136.954 22.1049C137.916 22.8267 138.559 23.8109 138.883 25.0575H135.835C135.608 24.5764 135.284 24.21 134.862 23.9585C134.451 23.707 133.981 23.5812 133.452 23.5812C132.597 23.5812 131.905 23.882 131.376 24.4834C130.846 25.0848 130.581 25.8886 130.581 26.8947C130.581 27.9008 130.846 28.7045 131.376 29.3059C131.905 29.9074 132.597 30.2081 133.452 30.2081C133.981 30.2081 134.451 30.0823 134.862 29.8308C135.284 29.5794 135.608 29.213 135.835 28.7318H138.883C138.559 29.9785 137.916 30.9627 136.954 31.6844C135.992 32.3952 134.835 32.7506 133.484 32.7506C132.381 32.7506 131.392 32.5046 130.516 32.0125C129.651 31.5094 128.976 30.8151 128.489 29.9293C128.002 29.0435 127.76 28.0319 127.76 26.8947Z" fill="#3478F6"/>
<path d="M149.112 32.6686L145.285 27.5836V32.6686H142.512V21.1535H145.285V26.2057L149.08 21.1535H152.339L147.928 26.7962L152.501 32.6686H149.112Z" fill="#3478F6"/>
<path d="M37.5247 26.8865V38L28 32.5566V21.4432L37.5247 26.8865Z" fill="#3478F6"/>
<path opacity="0.25" d="M37.5248 26.8865L47.0495 21.4432V32.5566L37.5248 38V26.8865Z" fill="#3478F6"/>
<path opacity="0.5" d="M37.5247 16L47.0493 21.4433L37.5247 26.8867L28 21.4433L37.5247 16Z" fill="#3478F6"/>
</svg>