<svg xmlns="http://www.w3.org/2000/svg" width="182" height="54" viewBox="0 0 182 54" fill="none">
<g clip-path="url(#clip0_3070_3160)">
<mask id="mask0_3070_3160" style="mask-type:luminance" maskUnits="userSpaceOnUse" x="57" y="10" width="68" height="26">
<path d="M124.241 10H57V36H124.241V10Z" fill="white"/>
</mask>
<g mask="url(#mask0_3070_3160)">
<path d="M68.1533 18.0223C68.2304 14.2043 66.0685 10.8773 64.9424 10.0777C64.9373 10.0726 64.837 10.0186 64.8447 10.1677C64.8447 10.1703 64.8421 10.1703 64.8421 10.1729C64.7265 17.3848 61.0193 19.3285 59.0065 21.9715C54.5333 27.8489 58.266 34.5544 63.1016 35.8244C63.184 35.845 63.4076 35.9119 63.8318 35.9992C64.0529 36.0456 64.1172 35.8578 63.9552 35.5776C63.3768 34.5723 62.3484 32.8754 62.1454 30.6951C61.6827 25.6327 68.0633 22.4651 68.1533 18.0223Z" fill="#1B2143"/>
<path d="M70.5904 20.4675C70.5519 20.4392 70.498 20.4418 70.4928 20.4906C70.39 21.4085 69.4413 23.3111 68.1919 25.0902C63.9861 31.0886 66.1045 33.8087 67.7498 35.6959C68.0531 36.0456 68.2047 35.9685 68.3642 35.7191C68.5133 35.4826 68.7394 35.1817 69.7113 34.7215C69.863 34.6495 73.5341 32.7007 73.9325 28.263C74.3156 23.9693 71.5622 21.2542 70.5904 20.4675Z" fill="#008CD6"/>
<path d="M92.4294 19.3747V35.1585H89.0437V28.7824H82.537V35.1585H79.0664V19.3747H82.537V25.751H89.0437V19.3747H92.4294Z" fill="#1B2143"/>
<path d="M108.083 19.3747V22.496H106.471H103.222V35.156H99.7382V22.496H96.5761H94.9642V19.3747H108.083Z" fill="#1B2143"/>
<path fill-rule="evenodd" clip-rule="evenodd" d="M120.412 35.174L116.433 29.6821L112.484 35.1508L108.623 35.156L114.477 27.0983L108.952 19.3747H112.811L124.256 35.174H120.412Z" fill="#1B2143"/>
<path d="M117.515 22.9074L119.425 25.5608L123.95 19.3722H120.112L117.515 22.9074Z" fill="#008CD6"/>
</g>
</g>
<defs>
<clipPath id="clip0_3070_3160">
<rect width="67.2414" height="26" fill="white" transform="translate(57 10)"/>
</clipPath>
</defs>
</svg>