<svg xmlns="http://www.w3.org/2000/svg" width="182" height="54" viewBox="0 0 182 54" fill="none">
<g clip-path="url(#clip0_3070_3168)">
<path d="M105.732 18.835H109.597L102.871 35.536H98.405L91.679 18.835H95.5441L100.629 31.511L105.732 18.835Z" fill="#FF564F"/>
<path d="M60.5206 15.3813H57V35.5416H60.5206V15.3813Z" fill="#FF564F"/>
<path d="M70.1493 35.5416L62.4366 25.4615L70.1493 15.3813H74.569L66.9556 25.4615L74.569 35.5416H70.1493Z" fill="#FF564F"/>
<path d="M82.9943 18.3913C79.1409 18.3913 76.2391 20.5205 76.029 23.6881L76.0056 24.0614H79.462L79.5204 23.7872C79.8415 22.2997 81.0559 21.483 82.9359 21.483C84.9794 21.483 86.1529 22.5097 86.1529 24.3064V25.3389L81.8149 25.5839C77.9149 25.8114 75.556 27.719 75.556 30.6824C75.556 33.809 77.9031 35.9033 81.3537 35.9033C83.4088 35.9033 84.9093 35.3433 86.1354 34.0891V35.6174H89.6385V24.0381C89.6385 20.608 86.9878 18.3913 82.9943 18.3913ZM86.147 28.0457V29.084C85.9193 31.3532 84.3488 32.7766 81.9434 32.8932C81.015 32.9399 80.2152 32.689 79.6897 32.1874C79.2752 31.7966 79.0592 31.2715 79.0592 30.6765C79.0592 29.3465 80.1919 28.5123 82.1828 28.3839L86.147 28.0457Z" fill="#FF564F"/>
<path d="M118.55 18.3913C114.697 18.3913 111.795 20.5205 111.585 23.6881L111.562 24.0614H115.018L115.077 23.7872C115.398 22.2997 116.612 21.483 118.492 21.483C120.536 21.483 121.709 22.5097 121.709 24.3064V25.3389L117.377 25.5839C113.477 25.8114 111.118 27.719 111.118 30.6824C111.118 33.809 113.465 35.9033 116.916 35.9033C118.971 35.9033 120.471 35.3433 121.697 34.0891V35.6174H125.2V24.0381C125.195 20.608 122.544 18.3913 118.55 18.3913ZM121.709 28.0457V29.084C121.481 31.3532 119.911 32.7766 117.505 32.8932C116.577 32.9399 115.777 32.689 115.252 32.1874C114.837 31.7966 114.621 31.2715 114.621 30.6765C114.621 29.3465 115.754 28.5123 117.745 28.3839L121.709 28.0457Z" fill="#FF564F"/>
</g>
<defs>
<clipPath id="clip0_3070_3168">
<rect width="68.2" height="22" fill="white" transform="translate(57 15)"/>
</clipPath>
</defs>
</svg>