<svg xmlns="http://www.w3.org/2000/svg" width="182" height="54" viewBox="0 0 182 54" fill="none">
<g clip-path="url(#clip0_3070_3163)">
<path d="M42.2496 18.0212C44.3302 17.8872 46.4461 18.3033 48.3152 19.2343C51.0729 20.5885 53.2664 23.0359 54.3032 25.9205C54.7616 27.1971 55.0085 28.5443 55.0085 29.8984V34.9272C55.0085 35.1318 55.0155 35.3434 54.9661 35.5408C54.8533 36.0487 54.4936 36.493 54.014 36.7116C53.6825 36.8668 53.3016 36.888 52.949 36.8315C52.1802 36.6905 51.5878 35.9711 51.5807 35.1952C51.5736 33.6365 51.5807 32.0778 51.5807 30.512C51.5948 30.0677 51.5948 29.5952 51.355 29.2072C50.9671 28.4878 50.022 28.1422 49.2673 28.4526C48.6255 28.6783 48.16 29.3271 48.1529 30.0113C48.1459 31.5982 48.1529 33.1781 48.1529 34.758C48.1529 35.0542 48.167 35.3575 48.0824 35.6396C47.9202 36.1968 47.4547 36.6482 46.8975 36.8033C46.164 37.0079 45.3247 36.6834 44.9509 36.0063C44.697 35.5973 44.7181 35.1036 44.7252 34.6522C44.7181 33.0793 44.7322 31.5065 44.7181 29.9337C44.704 29.1367 44.0481 28.4173 43.2511 28.3115C42.7362 28.2339 42.1931 28.4032 41.8193 28.77C41.4808 29.0873 41.2903 29.5458 41.2903 30.0113V34.5957C41.2833 34.9837 41.3327 35.3786 41.1846 35.7383C40.9589 36.3943 40.2959 36.8739 39.5976 36.8527C38.8853 36.895 38.187 36.4013 37.9613 35.7313C37.8344 35.3998 37.8626 35.0471 37.8626 34.6945C37.8626 33.1146 37.8696 31.5347 37.8626 29.9478C37.8555 29.1649 37.249 28.4526 36.4802 28.3115C35.789 28.1634 35.0202 28.516 34.6676 29.1438C34.5195 29.4047 34.4419 29.708 34.4419 30.0042V35.1388C34.4489 35.6396 34.2162 36.1333 33.8353 36.4507C33.257 36.9585 32.3189 36.9867 31.7053 36.5212C31.261 36.2179 31 35.7031 31 35.167V29.969C31.0071 28.0012 31.5008 26.0404 32.4388 24.3124C33.2076 22.9018 34.2585 21.6394 35.521 20.6378C37.4253 19.0932 39.8092 18.1693 42.2496 18.0212Z" fill="#5741D9"/>
<path d="M88.9969 24.0515C88.1224 24.0515 87.2831 24.0515 86.3944 24.0515C86.4861 22.2248 86.8669 20.5814 88.5385 19.5446C90.196 18.5149 92.0227 18.2821 93.9199 18.4373C94.9497 18.5219 95.9512 18.7406 96.8963 19.1779C98.5538 19.9396 99.3719 21.2444 99.3719 23.057C99.379 26.2732 99.3719 29.4964 99.3719 32.7126C99.3719 33.8975 99.6117 34.1161 100.797 33.9962C100.924 33.9821 101.051 33.961 101.185 33.9398C101.199 34.0033 101.213 34.0527 101.213 34.102C101.213 34.7439 101.213 35.3857 101.213 36.0557C100.268 36.3731 99.3226 36.4718 98.3704 36.2179C97.6792 36.0275 97.2349 35.5267 96.9951 34.8638C96.8752 34.5252 96.8046 34.1726 96.6918 33.7776C96.593 33.8904 96.5084 33.9962 96.4097 34.0879C94.3572 36.1686 91.9098 37.0431 89.0322 36.3167C86.9939 35.8018 85.5833 33.9328 85.5339 31.8239C85.5198 31.1468 85.5762 30.4556 85.7384 29.7997C86.1123 28.2762 87.1914 27.3593 88.5667 26.7457C89.533 26.3084 90.5627 26.1815 91.5995 26.0545C92.8126 25.8994 94.0257 25.7513 95.2389 25.582C96.0641 25.4691 96.4802 25.0319 96.6071 24.1996C96.8681 22.5492 96.1346 21.4348 94.5195 21.0398C93.5602 20.8071 92.5799 20.7648 91.6066 20.9482C90.1677 21.2091 89.3637 22.0202 89.0816 23.452C89.0675 23.6354 89.0393 23.8258 88.9969 24.0515ZM96.6636 27.2465C95.4646 27.8954 94.3008 28.0505 93.13 28.2269C92.1426 28.382 91.1411 28.5231 90.196 28.8334C88.9264 29.2496 88.3622 30.2934 88.468 31.6899C88.5597 32.8536 89.3566 33.7917 90.605 33.9962C92.5446 34.3207 94.2655 33.7846 95.6197 32.3458C96.0147 31.9297 96.3321 31.3231 96.4167 30.7589C96.593 29.6375 96.586 28.4878 96.6636 27.2465Z" fill="#5741D9"/>
<path d="M133.713 30.6037C133.65 30.8859 133.614 31.1257 133.544 31.3514C132.415 34.765 130.151 36.2391 127.394 36.5424C122.612 37.0714 119.882 33.9398 119.177 30.6178C118.62 27.98 118.697 25.3563 119.854 22.8736C120.947 20.532 122.71 18.9874 125.334 18.529C128.466 17.9788 132.916 19.5235 133.664 24.4323C133.854 25.6948 133.896 26.9855 134.016 28.3186C129.904 28.3186 125.905 28.3186 121.864 28.3186C121.97 30.1171 122.252 31.7957 123.564 33.1076C124.107 33.6506 124.805 33.9116 125.56 34.0386C128.028 34.4688 130.053 33.2909 130.857 30.9282C130.941 30.6743 131.054 30.5967 131.315 30.6037C132.098 30.6178 132.881 30.6037 133.713 30.6037ZM121.963 26.0052C125.003 26.0052 128.021 26.0052 131.061 26.0052C130.962 24.9543 130.772 23.9669 130.285 23.05C129.813 22.1613 129.107 21.5265 128.148 21.2021C125.003 20.123 121.751 22.6338 121.963 26.0052Z" fill="#5741D9"/>
<path d="M140.258 35.9711C139.313 35.9711 138.417 35.9711 137.493 35.9711C137.493 30.2511 137.493 24.5452 137.493 18.8181C138.361 18.8181 139.221 18.8181 140.117 18.8181C140.117 19.594 140.117 20.3416 140.117 21.2232C140.315 20.9975 140.442 20.8565 140.562 20.7225C142.438 18.5783 144.807 18.0141 147.488 18.6771C149.357 19.1355 150.393 20.4544 150.746 22.3023C150.894 23.057 150.979 23.8328 150.986 24.6016C151.014 28.2833 151 31.965 151 35.6466C151 35.7454 150.986 35.8512 150.979 35.9711C150.048 35.9711 149.124 35.9711 148.151 35.9711C148.151 35.8018 148.151 35.6537 148.151 35.5056C148.151 32.0708 148.172 28.6289 148.136 25.1941C148.129 24.4323 148.024 23.6495 147.805 22.923C147.445 21.7169 146.486 21.0751 145.224 21.0328C142.931 20.9552 141.105 22.1683 140.547 24.2208C140.35 24.9543 140.286 25.7442 140.279 26.513C140.251 29.4964 140.265 32.4869 140.258 35.4703C140.258 35.6184 140.258 35.7736 140.258 35.9711Z" fill="#5741D9"/>
<path d="M103.886 18.8182C104.796 18.8182 105.656 18.8182 106.552 18.8182C106.552 21.2091 106.552 23.593 106.552 26.0828C106.721 25.9205 106.82 25.8359 106.919 25.7442C109.098 23.5225 111.284 21.2938 113.457 19.065C113.64 18.8746 113.824 18.7899 114.092 18.7899C115.114 18.804 116.144 18.797 117.272 18.797C117.117 18.9592 117.033 19.058 116.941 19.1567C115.023 21.0822 113.111 23.0076 111.179 24.9261C110.96 25.1377 110.953 25.2787 111.108 25.5326C113.203 28.8687 115.284 32.2048 117.371 35.5479C117.449 35.6678 117.519 35.7877 117.618 35.964C117.477 35.9781 117.371 35.9922 117.265 35.9922C116.313 35.9922 115.361 35.9852 114.409 35.9993C114.148 36.0063 114.021 35.9076 113.894 35.696C112.3 33.0088 110.692 30.3287 109.091 27.6415C109.02 27.5216 108.943 27.4087 108.851 27.2677C108.111 28.0012 107.391 28.7135 106.679 29.447C106.587 29.5387 106.566 29.7221 106.566 29.8702C106.559 31.7534 106.559 33.6295 106.559 35.5126C106.559 35.6537 106.559 35.7948 106.559 35.9993C106.03 35.9993 105.522 36.0063 105.014 35.9993C104.648 35.9922 104.161 36.091 103.949 35.9006C103.766 35.7313 103.879 35.2235 103.879 34.8638C103.879 29.6868 103.879 24.5099 103.879 19.333C103.886 19.1637 103.886 19.0015 103.886 18.8182Z" fill="#5741D9"/>
<path d="M73.17 18.797C71.0047 20.9411 68.9029 23.0359 66.787 25.1306C69.0581 28.77 71.2798 32.3317 73.5508 35.9711C73.3675 35.9781 73.2546 35.9922 73.1347 35.9922C72.2108 35.9922 71.2798 35.9852 70.3558 35.9993C70.0878 36.0063 69.9397 35.9076 69.8057 35.6819C68.2117 32.9947 66.6036 30.3146 65.0026 27.6274C64.9391 27.5145 64.8686 27.4087 64.7628 27.2394C64.3537 27.6626 64.0011 28.114 63.5567 28.4455C62.661 29.1226 62.393 29.969 62.4635 31.0763C62.5552 32.5363 62.4847 34.0103 62.4847 35.4774C62.4847 35.6325 62.4847 35.7806 62.4847 35.957C61.5889 35.957 60.7285 35.957 59.8398 35.957C59.8398 30.2511 59.8398 24.5452 59.8398 18.8111C60.7073 18.8111 61.5607 18.8111 62.4706 18.8111C62.4706 21.2021 62.4706 23.586 62.4706 25.9699C62.527 26.0052 62.5834 26.0475 62.6398 26.0828C62.7104 25.9629 62.7527 25.8147 62.8444 25.7231C65.0096 23.5014 67.189 21.2938 69.3543 19.0721C69.5447 18.8746 69.7352 18.7758 70.0243 18.7829C70.9271 18.804 71.8299 18.7899 72.7256 18.7899C72.8526 18.797 72.9796 18.797 73.17 18.797Z" fill="#5741D9"/>
<path d="M78.4527 21.6394C79.7928 19.6786 81.2175 18.0423 83.8624 18.5149C83.8624 19.5164 83.8624 20.5109 83.8624 21.4489C83.157 21.4983 82.4659 21.4771 81.8099 21.6111C80.1807 21.9497 78.9252 23.4379 78.6784 25.2293C78.629 25.582 78.6079 25.9487 78.6079 26.3085C78.6008 29.3695 78.6079 32.4375 78.6079 35.4985C78.6079 35.6466 78.6079 35.8018 78.6079 35.9711C77.6698 35.9711 76.7811 35.9711 75.8501 35.9711C75.8501 30.2581 75.8501 24.5593 75.8501 18.8252C76.7035 18.8252 77.557 18.8252 78.4597 18.8252C78.4527 19.7421 78.4527 20.6449 78.4527 21.6394Z" fill="#5741D9"/>
</g>
<defs>
<clipPath id="clip0_3070_3163">
<rect width="120" height="18.8598" fill="white" transform="translate(31 18)"/>
</clipPath>
</defs>
</svg>