<svg xmlns="http://www.w3.org/2000/svg" width="182" height="54" viewBox="0 0 182 54" fill="none">
<g clip-path="url(#clip0_3070_3164)">
<path d="M124.675 27.4678C124.675 26.7639 124.675 26.1122 124.649 25.5125C124.623 24.9129 124.571 24.3394 124.493 23.8441C124.414 23.3227 124.258 22.8534 124.023 22.3842C123.815 21.9149 123.476 21.4978 123.085 21.0807C122.511 20.5071 121.886 20.09 121.182 19.7772C120.478 19.4904 119.67 19.3079 118.757 19.3079C117.845 19.3079 117.037 19.4643 116.333 19.7772C115.629 20.0639 114.977 20.5071 114.404 21.0807C113.987 21.4978 113.7 21.9149 113.491 22.3842C113.283 22.8534 113.1 23.3227 113.022 23.8441C112.944 24.3655 112.892 24.9129 112.866 25.5125C112.839 26.1122 112.839 26.7639 112.839 27.4678C112.839 28.1717 112.839 28.7974 112.866 29.4231C112.892 30.0226 112.944 30.5962 113.022 31.0915C113.1 31.613 113.257 32.0822 113.491 32.5514C113.7 33.0207 114.039 33.4378 114.404 33.8549C114.977 34.4285 115.603 34.8456 116.333 35.1584C117.037 35.4452 117.845 35.6277 118.757 35.6277C119.67 35.6277 120.452 35.4713 121.182 35.1584C121.886 34.8717 122.537 34.4285 123.085 33.8549C123.502 33.4378 123.789 33.0207 124.023 32.5514C124.232 32.0822 124.414 31.613 124.493 31.0915C124.571 30.5701 124.649 30.0226 124.649 29.4231C124.675 28.7713 124.675 28.1717 124.675 27.4678ZM121.573 27.4678C121.573 28.2238 121.573 28.8756 121.547 29.397C121.521 29.9184 121.495 30.3094 121.416 30.6483C121.364 30.9611 121.286 31.2479 121.182 31.4305C121.078 31.639 120.973 31.8476 120.791 32.004C120.582 32.2647 120.269 32.4732 119.956 32.6296C119.618 32.7861 119.227 32.8382 118.783 32.8643C118.34 32.8643 117.975 32.7861 117.61 32.6296C117.271 32.4732 116.985 32.2907 116.75 32.004C116.594 31.8476 116.489 31.6651 116.359 31.4305C116.255 31.2218 116.176 30.9611 116.124 30.6483C116.072 30.3355 116.02 29.9184 116.02 29.397C115.994 28.8756 115.994 28.2499 115.994 27.4678C115.994 26.7118 115.994 26.0601 116.02 25.5386C116.046 25.0172 116.072 24.6262 116.124 24.2873C116.176 23.9484 116.255 23.6877 116.359 23.5052C116.463 23.2967 116.567 23.088 116.75 22.9316C116.958 22.6709 117.271 22.4624 117.61 22.306C117.949 22.1495 118.34 22.0974 118.783 22.0713C119.227 22.0713 119.592 22.1495 119.956 22.306C120.269 22.4624 120.582 22.6449 120.791 22.9316C120.947 23.088 121.051 23.2706 121.182 23.5052C121.286 23.7138 121.364 23.9745 121.416 24.2873C121.469 24.6001 121.521 25.0172 121.547 25.5386C121.547 26.0601 121.573 26.7118 121.573 27.4678Z" fill="#01BC8D"/>
<path d="M149.573 19.7251C149.573 19.5687 149.443 19.4644 149.312 19.4644H146.757C146.6 19.4644 146.496 19.5948 146.496 19.7251V29.2667L140.213 19.5427C140.161 19.4905 140.135 19.4644 140.057 19.4644H137.658C137.528 19.4644 137.398 19.5948 137.398 19.7251C137.398 24.887 137.398 30.0488 137.398 35.1585C137.398 35.3149 137.528 35.4192 137.658 35.4192H140.213C140.37 35.4192 140.474 35.2889 140.474 35.1585V25.5908L146.757 35.341C146.809 35.3931 146.835 35.4192 146.913 35.4192H149.312C149.469 35.4192 149.573 35.2889 149.573 35.1585V19.7251Z" fill="#01BC8D"/>
<path d="M132.288 19.7251C132.288 19.5687 132.158 19.4644 132.028 19.4644H129.473C129.316 19.4644 129.212 19.5948 129.212 19.7251V35.1585C129.212 35.3149 129.342 35.4192 129.473 35.4192H132.028C132.184 35.4192 132.288 35.2889 132.288 35.1585V19.7251Z" fill="#01BC8D"/>
<path d="M101.473 27.4678C101.473 26.7118 101.473 26.0601 101.499 25.5386C101.526 25.0172 101.552 24.6262 101.604 24.2873C101.838 22.9055 102.907 22.0974 104.263 22.0974C105.149 22.0974 105.931 22.4102 106.453 23.1662C106.661 23.4791 106.844 23.8702 106.948 24.3133C106.948 24.3655 106.974 24.3916 107.026 24.3916H110.05C110.103 24.3916 110.103 24.3655 110.103 24.3133C109.79 22.4624 108.773 20.7418 107 19.9075C106.192 19.5165 105.254 19.3079 104.211 19.3079C102.516 19.3079 101.056 19.9075 99.8832 21.0546C99.2053 21.7324 98.7882 22.5406 98.5797 23.4531C98.3972 24.3394 98.319 25.6689 98.319 27.4157C98.319 29.1624 98.3972 30.4919 98.5797 31.3782C98.7621 32.2907 99.2314 33.0989 99.8832 33.7767C101.056 34.9499 102.49 35.5234 104.211 35.5234C105.227 35.5234 106.166 35.3409 107 34.9238C108.747 34.0896 109.79 32.4211 110.103 30.518C110.103 30.4658 110.103 30.4397 110.05 30.4397H107.026C106.974 30.4397 106.948 30.4658 106.948 30.518C106.844 30.9611 106.687 31.3261 106.453 31.6651C105.931 32.395 105.149 32.7078 104.263 32.7339C102.907 32.7339 101.864 31.9258 101.604 30.544C101.552 30.2312 101.499 29.8141 101.499 29.2927C101.473 28.8756 101.473 28.2238 101.473 27.4678Z" fill="#01BC8D"/>
<path d="M69.4596 19.7251C69.4596 19.5687 69.3292 19.4644 69.1989 19.4644H66.644C66.4876 19.4644 66.3833 19.5948 66.3833 19.7251V35.1585C66.3833 35.3149 66.5137 35.4192 66.644 35.4192H69.1989C69.3553 35.4192 69.4596 35.2889 69.4596 35.1585V30.6223L71.5452 28.1457L75.7946 35.3671C75.8207 35.4192 75.8728 35.4453 75.951 35.4453H79.0794C79.2097 35.4453 79.2358 35.3671 79.1837 35.2367L73.6308 25.8254L78.7405 19.6991C78.8448 19.5687 78.7926 19.4644 78.6362 19.4644H75.1949C75.1428 19.4644 75.1167 19.4644 75.0907 19.5166L69.4596 26.2166V19.7251Z" fill="#01BC8D"/>
<path d="M88.2295 32.8121C86.7695 32.8121 85.4661 31.4564 85.4661 29.8661V19.7511C85.4661 19.5946 85.3358 19.4904 85.2053 19.4904H82.6506C82.4941 19.4904 82.3899 19.6207 82.3899 19.7511V29.8401C82.3899 33.3856 85.0489 35.6277 88.2816 35.6277C91.5143 35.6277 94.1734 33.3856 94.1734 29.8401V19.7511C94.1734 19.5946 94.0431 19.4904 93.9127 19.4904H91.3579C91.2015 19.4904 91.0972 19.6207 91.0972 19.7511V29.8661C90.9668 31.4564 89.6633 32.8121 88.2295 32.8121Z" fill="#01BC8D"/>
<path d="M40.4181 27.4677L48.4216 35.4712L53.4791 30.4136C54.3655 29.5272 55.8254 29.5272 56.7118 30.4136C57.5982 31.2999 57.5982 32.7599 56.7118 33.6462L50.0379 40.3202C49.1515 41.2065 47.6916 41.2065 46.8052 40.3202L37.2115 30.7003V36.4357C37.2115 37.6871 36.1948 38.7299 34.9174 38.7299C33.64 38.7299 32.6232 37.7132 32.6232 36.4357V18.5518C32.6232 17.2743 33.64 16.2576 34.9174 16.2576C36.1948 16.2576 37.2115 17.2743 37.2115 18.5518V24.235L46.8313 14.6152C47.7177 13.7288 49.1776 13.7288 50.064 14.6152L56.7379 21.2891C57.6242 22.1755 57.6242 23.6354 56.7379 24.5218C55.8515 25.4081 54.3916 25.4081 53.5053 24.5218L48.4477 19.4642L40.4181 27.4677ZM48.4477 25.1735C47.1702 25.1735 46.1535 26.1902 46.1535 27.4677C46.1535 28.7451 47.1702 29.7619 48.4477 29.7619C49.7251 29.7619 50.7417 28.7451 50.7417 27.4677C50.7157 26.1902 49.699 25.1735 48.4477 25.1735Z" fill="#01BC8D"/>
</g>
<defs>
<clipPath id="clip0_3070_3164">
<rect width="117.793" height="28" fill="white" transform="translate(32 13)"/>
</clipPath>
</defs>
</svg>