<svg width="148" height="24" viewBox="0 0 148 24" fill="none" xmlns="http://www.w3.org/2000/svg">
<path d="M26 9.5218V7.5H33.4299V9.5218H30.8139V15.8212H28.616V9.5218H26Z" fill="black"/>
<path d="M34.1445 15.8212V7.5H36.1663V10.4709H36.2846C36.3004 10.4473 36.3214 10.4104 36.3504 10.3631C36.3793 10.3158 36.4476 10.2343 36.5581 10.1186C36.6685 10.0029 36.7868 9.90039 36.9156 9.80837C37.0418 9.71635 37.2153 9.63485 37.4336 9.56386C37.6518 9.49288 37.8831 9.45607 38.1277 9.45607C38.848 9.45607 39.4159 9.67692 39.8261 10.116C40.2388 10.555 40.4439 11.1887 40.4439 12.0116V15.8159H38.4221V12.3087C38.4221 11.9511 38.3275 11.6751 38.1382 11.4779C37.9489 11.2807 37.686 11.1808 37.3547 11.1808C37.0234 11.1808 36.7395 11.307 36.5107 11.562C36.282 11.8144 36.1663 12.1457 36.1663 12.5479V15.8159H34.1445V15.8212Z" fill="black"/>
<path d="M42.2613 15.0386C41.604 14.3971 41.2754 13.6294 41.2754 12.7328C41.2754 11.8363 41.604 11.0686 42.2613 10.4271C42.9186 9.7856 43.7205 9.46484 44.6617 9.46484C45.6029 9.46484 46.4337 9.78297 47.0805 10.4218C47.7273 11.0607 48.048 11.8311 48.048 12.7328V13.0904H43.3524C43.4155 13.5111 43.5601 13.8345 43.7862 14.0579C44.0123 14.2814 44.3041 14.3971 44.6591 14.3971C44.8326 14.3971 44.993 14.3761 45.1402 14.3314C45.2874 14.2867 45.4005 14.2315 45.4846 14.1657C45.5688 14.0974 45.6397 14.0343 45.6976 13.9685C45.7581 13.9054 45.7975 13.8502 45.8238 13.8029L45.8474 13.7424H47.9875C47.9718 13.8055 47.9429 13.887 47.9034 13.9869C47.864 14.0868 47.7614 14.2656 47.5932 14.5285C47.4249 14.7915 47.233 15.0202 47.0095 15.2174C46.7887 15.4146 46.4679 15.596 46.0473 15.759C45.6266 15.922 45.1639 16.0035 44.6564 16.0035C43.7126 16.0035 42.9133 15.6827 42.2561 15.0412L42.2613 15.0386ZM43.4155 12.0782H45.9105C45.8474 11.8021 45.7028 11.5629 45.4767 11.3657C45.2506 11.1685 44.9798 11.0686 44.6617 11.0686C44.3436 11.0686 44.0728 11.1685 43.8467 11.3657C43.6206 11.5629 43.476 11.8021 43.4129 12.0782H43.4155Z" fill="black"/>
<path d="M52.5078 15.8212V7.5H55.597L57.3218 11.7776H57.6188L59.3436 7.5H62.4328V15.8212H60.2348V11.0677L60.4136 9.99767H60.2953L58.6915 13.9203H56.2543L54.6506 9.99767H54.5322L54.711 11.0677V15.8212H52.5131H52.5078Z" fill="black"/>
<path d="M64.4931 15.0439C63.8306 14.405 63.502 13.6346 63.502 12.7328C63.502 11.8311 63.8332 11.0581 64.4931 10.4218C65.1557 9.78297 65.9733 9.46484 66.9487 9.46484C67.9242 9.46484 68.7418 9.78297 69.4043 10.4218C70.0669 11.0607 70.3955 11.8311 70.3955 12.7328C70.3955 13.6346 70.0643 14.4076 69.4043 15.0439C68.7418 15.6827 67.9242 16.0009 66.9487 16.0009C65.9733 16.0009 65.1557 15.6827 64.4931 15.0439ZM65.9681 11.6076C65.7104 11.8889 65.5816 12.2622 65.5816 12.7302C65.5816 13.1982 65.7104 13.5715 65.9681 13.8529C66.2257 14.1342 66.5517 14.2735 66.9487 14.2735C67.3457 14.2735 67.6717 14.1342 67.9294 13.8529C68.1871 13.5715 68.3159 13.1982 68.3159 12.7302C68.3159 12.2622 68.1871 11.8889 67.9294 11.6076C67.6717 11.3263 67.3457 11.1869 66.9487 11.1869C66.5517 11.1869 66.2257 11.3289 65.9681 11.6076Z" fill="black"/>
<path d="M71.2871 15.8182V9.63716H73.3089V10.468H73.4272C73.443 10.4443 73.464 10.4075 73.4929 10.3602C73.5219 10.3128 73.5902 10.2313 73.7006 10.1157C73.8111 9.99998 73.9294 9.89745 74.0582 9.80543C74.1844 9.71341 74.3579 9.63191 74.5761 9.56092C74.7944 9.48993 75.0257 9.45312 75.2702 9.45312C75.9906 9.45312 76.5585 9.67397 76.9687 10.113C77.3814 10.5521 77.5865 11.1857 77.5865 12.0086V15.813H75.5647V12.3057C75.5647 11.9482 75.4701 11.6721 75.2808 11.4749C75.0915 11.2777 74.8285 11.1778 74.4973 11.1778C74.166 11.1778 73.8821 11.304 73.6533 11.5591C73.4246 11.8115 73.3089 12.1427 73.3089 12.545V15.813H71.2871V15.8182Z" fill="black"/>
<path d="M79.4039 15.0386C78.7466 14.3971 78.418 13.6294 78.418 12.7328C78.418 11.8363 78.7466 11.0686 79.4039 10.4271C80.0612 9.7856 80.8631 9.46484 81.8043 9.46484C82.7455 9.46484 83.5763 9.78297 84.2231 10.4218C84.8698 11.0607 85.1906 11.8311 85.1906 12.7328V13.0904H80.495C80.5581 13.5111 80.7027 13.8345 80.9288 14.0579C81.1549 14.2814 81.4467 14.3971 81.8017 14.3971C81.9752 14.3971 82.1356 14.3761 82.2828 14.3314C82.43 14.2867 82.5431 14.2315 82.6272 14.1657C82.7113 14.0974 82.7823 14.0343 82.8402 13.9685C82.9006 13.9054 82.9401 13.8502 82.9664 13.8029L82.99 13.7424H85.1301C85.1144 13.8055 85.0854 13.887 85.046 13.9869C85.0066 14.0868 84.904 14.2656 84.7358 14.5285C84.5675 14.7915 84.3756 15.0202 84.1521 15.2174C83.9312 15.4146 83.6105 15.596 83.1898 15.759C82.7692 15.922 82.3064 16.0035 81.799 16.0035C80.8552 16.0035 80.0559 15.6827 79.3986 15.0412L79.4039 15.0386ZM80.5581 12.0782H83.0531C82.99 11.8021 82.8454 11.5629 82.6193 11.3657C82.3932 11.1685 82.1224 11.0686 81.8043 11.0686C81.4862 11.0686 81.2154 11.1685 80.9893 11.3657C80.7631 11.5629 80.6185 11.8021 80.5555 12.0782H80.5581Z" fill="black"/>
<path d="M85.4883 9.64453H87.5679L88.638 14.1009H88.9955L90.1839 9.64453H92.2635L89.8868 18.084H87.8072L88.4618 15.8256H87.0947L85.4909 9.64453H85.4883Z" fill="black"/>
<path d="M96.3047 15.8212V7.5H99.3939L101.119 11.7776H101.416L103.14 7.5H106.23V15.8212H104.032V11.0677L104.21 9.99767H104.092L102.488 13.9203H100.051L98.4474 9.99767H98.3291L98.5079 11.0677V15.8212H96.3099H96.3047Z" fill="#F69230"/>
<path d="M108.293 15.0439C107.63 14.405 107.299 13.6346 107.299 12.7328C107.299 11.8311 107.63 11.0581 108.293 10.4218C108.955 9.78297 109.773 9.46484 110.746 9.46484C111.718 9.46484 112.539 9.78297 113.201 10.4218C113.864 11.0607 114.195 11.8311 114.195 12.7328C114.195 13.6346 113.864 14.4076 113.201 15.0439C112.539 15.6827 111.721 16.0009 110.746 16.0009C109.77 16.0009 108.953 15.6827 108.293 15.0439ZM109.768 11.6076C109.51 11.8889 109.381 12.2622 109.381 12.7302C109.381 13.1982 109.51 13.5715 109.768 13.8529C110.025 14.1342 110.351 14.2735 110.748 14.2735C111.145 14.2735 111.471 14.1342 111.729 13.8529C111.987 13.5715 112.115 13.1982 112.115 12.7302C112.115 12.2622 111.987 11.8889 111.729 11.6076C111.471 11.3263 111.145 11.1869 110.748 11.1869C110.351 11.1869 110.025 11.3289 109.768 11.6076Z" fill="#F69230"/>
<path d="M115.086 15.8182V9.63716H117.108V10.468H117.226C117.242 10.4443 117.263 10.4075 117.292 10.3602C117.321 10.3128 117.389 10.2313 117.499 10.1157C117.61 9.99998 117.728 9.89745 117.857 9.80543C117.983 9.71341 118.157 9.63191 118.375 9.56092C118.593 9.48993 118.825 9.45312 119.069 9.45312C119.789 9.45312 120.357 9.67397 120.767 10.113C121.18 10.5521 121.385 11.1857 121.385 12.0086V15.813H119.364V12.3057C119.364 11.9482 119.269 11.6721 119.08 11.4749C118.89 11.2777 118.627 11.1778 118.296 11.1778C117.965 11.1778 117.681 11.304 117.452 11.5591C117.223 11.8115 117.108 12.1427 117.108 12.545V15.813H115.086V15.8182Z" fill="#F69230"/>
<path d="M123.074 14.8822C122.543 14.2959 122.277 13.5387 122.277 12.6106C122.277 11.6826 122.543 10.928 123.074 10.3417C123.605 9.7554 124.252 9.46094 125.012 9.46094C125.401 9.46094 125.748 9.53981 126.053 9.69756C126.358 9.85531 126.565 10.0157 126.676 10.1734L126.855 10.4101H126.973V9.63709H128.995V18.0766H123.111V16.4728H126.973V14.8691H126.855C126.839 14.8927 126.818 14.9243 126.789 14.9637C126.76 15.0031 126.692 15.0741 126.581 15.1767C126.471 15.2792 126.352 15.3712 126.224 15.4501C126.097 15.529 125.924 15.6 125.706 15.6631C125.488 15.7261 125.256 15.7577 125.009 15.7577C124.249 15.7577 123.602 15.4659 123.071 14.8769L123.074 14.8822ZM124.72 11.5669C124.478 11.8193 124.357 12.1689 124.357 12.6133C124.357 13.0576 124.478 13.4046 124.72 13.6597C124.962 13.9121 125.277 14.0409 125.664 14.0409C126.05 14.0409 126.366 13.9147 126.608 13.6597C126.849 13.4073 126.97 13.0576 126.97 12.6133C126.97 12.1689 126.849 11.8219 126.608 11.5669C126.366 11.3145 126.05 11.1856 125.664 11.1856C125.277 11.1856 124.962 11.3118 124.72 11.5669Z" fill="#F69230"/>
<path d="M130.873 15.0386C130.215 14.3971 129.887 13.6294 129.887 12.7328C129.887 11.8363 130.215 11.0686 130.873 10.4271C131.53 9.7856 132.329 9.46484 133.273 9.46484C134.217 9.46484 135.045 9.78297 135.692 10.4218C136.339 11.0607 136.659 11.8311 136.659 12.7328V13.0904H131.964C132.027 13.5111 132.171 13.8345 132.398 14.0579C132.624 14.284 132.915 14.3971 133.27 14.3971C133.444 14.3971 133.604 14.3761 133.752 14.3314C133.899 14.2867 134.012 14.2315 134.096 14.1657C134.18 14.0974 134.251 14.0343 134.309 13.9685C134.369 13.9054 134.409 13.8502 134.432 13.8029L134.456 13.7424H136.596C136.58 13.8055 136.552 13.887 136.512 13.9869C136.473 14.0868 136.37 14.2656 136.204 14.5285C136.039 14.7888 135.844 15.0202 135.621 15.2174C135.4 15.4146 135.079 15.596 134.659 15.759C134.238 15.922 133.775 16.0035 133.268 16.0035C132.324 16.0035 131.525 15.6827 130.867 15.0412L130.873 15.0386ZM132.024 12.0782H134.519C134.456 11.8021 134.312 11.5629 134.085 11.3657C133.859 11.1685 133.589 11.0686 133.27 11.0686C132.952 11.0686 132.681 11.1685 132.455 11.3657C132.229 11.5629 132.085 11.8021 132.022 12.0782H132.024Z" fill="#F69230"/>
<path d="M137.609 15.8203V9.63919H139.571V10.5305H139.689C139.697 10.5068 139.71 10.47 139.731 10.4227C139.752 10.3753 139.802 10.2938 139.886 10.1782C139.97 10.0625 140.062 9.95995 140.165 9.86793C140.267 9.77591 140.412 9.69441 140.599 9.62342C140.785 9.55243 140.985 9.51562 141.198 9.51562H141.829V11.477H140.82C140.462 11.477 140.175 11.5847 139.957 11.803C139.739 12.0212 139.631 12.3078 139.631 12.6653V15.815H137.609V15.8203Z" fill="#F69230"/>
<path d="M141.888 13.8003H143.91C143.918 13.816 143.928 13.8397 143.939 13.8713C143.949 13.9028 143.983 13.9554 144.033 14.0316C144.086 14.1079 144.149 14.1736 144.223 14.2288C144.299 14.284 144.409 14.3366 144.557 14.3839C144.704 14.4313 144.864 14.4549 145.038 14.4549C145.593 14.4549 145.869 14.3156 145.869 14.0395C145.869 13.8897 145.742 13.7687 145.487 13.6767C145.235 13.5847 144.927 13.4979 144.567 13.4164C144.207 13.3323 143.847 13.2271 143.487 13.1009C143.126 12.9747 142.819 12.7644 142.566 12.4699C142.314 12.1781 142.185 11.8074 142.185 11.3657C142.185 10.8425 142.419 10.3956 142.887 10.0222C143.355 9.64888 144.012 9.46484 144.859 9.46484C145.359 9.46484 145.803 9.53583 146.197 9.6778C146.589 9.81978 146.886 9.9933 147.088 10.1957C147.291 10.3982 147.457 10.6006 147.588 10.8083C147.719 11.0134 147.801 11.1896 147.833 11.3315L147.893 11.5445H145.932C145.932 11.5287 145.926 11.5077 145.913 11.4788C145.903 11.4525 145.874 11.4025 145.829 11.3368C145.784 11.2684 145.734 11.2106 145.674 11.158C145.614 11.1054 145.524 11.0581 145.401 11.016C145.277 10.9713 145.138 10.9503 144.977 10.9503C144.501 10.9503 144.265 11.0896 144.265 11.3657C144.265 11.5156 144.391 11.6339 144.646 11.7233C144.898 11.81 145.206 11.8915 145.566 11.9678C145.926 12.044 146.287 12.1413 146.647 12.2649C147.007 12.3884 147.315 12.5935 147.567 12.8827C147.819 13.1719 147.948 13.5374 147.948 13.9817C147.948 14.5522 147.696 15.0307 147.194 15.4198C146.691 15.8089 145.971 16.0035 145.035 16.0035C144.512 16.0035 144.047 15.9272 143.639 15.7774C143.232 15.6275 142.921 15.4435 142.711 15.2305C142.501 15.0176 142.33 14.802 142.193 14.5838C142.059 14.3655 141.972 14.1815 141.93 14.0316L141.883 13.8055L141.888 13.8003Z" fill="#F69230"/>
<path d="M8.66016 13.3918L10.6284 14.5288L12.5984 13.3918V7.38697L10.6284 6.25L8.66016 7.38697V13.3918Z" fill="#F69230"/>
<path d="M12.5979 16.4719L14.5661 17.6089L16.5343 16.4719V10.4671L14.5661 9.33191L12.5979 10.4671V16.4719Z" fill="#F69230"/>
<path d="M4.72266 16.4721L6.6909 17.609L8.65915 16.4721V10.4672L6.6909 9.33203L4.72266 10.4672V16.4721Z" fill="#F69230"/>
<path d="M21.2252 12.6107H22.2317L21.2539 11.5309L20.3886 10.5781L20.2742 10.4512L20.1294 10.6103L19.459 11.3397L18.2934 12.6107H19.4304C19.0103 17.096 15.2222 20.6178 10.6278 20.6178C5.75458 20.6178 1.78769 16.6527 1.78769 11.7776C1.78769 10.6746 1.9897 9.59845 2.38478 8.57946L2.52601 8.27734H0.593513C0.200221 9.40001 0 10.5745 0 11.7776C0 17.4786 4.51213 22.1427 10.1505 22.3929H10.2149C10.3525 22.4001 10.4884 22.4055 10.626 22.4055C10.6922 22.4055 10.7565 22.4019 10.8227 22.4001L21.1645 22.4966L18.0449 19.3771C19.838 17.627 21.0179 15.2529 21.2235 12.6089L21.2252 12.6107Z" fill="#F69230"/>
<path d="M2.18098 7.09011L2.26679 7.46374L2.60288 7.34038L3.39125 7.05257L5.17 6.40363L4.328 5.93347C5.97088 4.26734 8.24483 3.28769 10.6278 3.28769C14.6215 3.28769 18.129 6.0014 19.1605 9.81097H21C19.9274 4.98778 15.5887 1.5 10.6278 1.5C7.59947 1.5 4.71771 2.81753 2.71908 5.03248L1.56065 4.38533L1.93428 6.01749L2.18098 7.09011Z" fill="#F69230"/>
</svg>
