<svg xmlns="http://www.w3.org/2000/svg" width="182" height="54" viewBox="0 0 182 54" fill="none">
<path d="M77.5551 17H58.4444C58.3265 17 58.2135 17.0468 58.1302 17.1302C58.0468 17.2135 58 17.3265 58 17.4445V36.5552C58 36.6731 58.0468 36.7861 58.1302 36.8694C58.2135 36.9528 58.3265 36.9996 58.4444 36.9996H77.5551C77.6731 36.9996 77.7861 36.9528 77.8694 36.8694C77.9528 36.7861 77.9996 36.6731 77.9996 36.5552V17.4445C77.9996 17.3265 77.9528 17.2135 77.8694 17.1302C77.7861 17.0468 77.6731 17 77.5551 17ZM71.333 29.8887C71.333 30.0065 71.2862 30.1195 71.2029 30.2029C71.1195 30.2862 71.0065 30.3331 70.8887 30.3331H65.1109C64.9931 30.3331 64.88 30.2862 64.7967 30.2029C64.7133 30.1195 64.6666 30.0065 64.6666 29.8887V24.1109C64.6666 23.9931 64.7133 23.88 64.7967 23.7967C64.88 23.7133 64.9931 23.6666 65.1109 23.6666H70.8887C71.0065 23.6666 71.1195 23.7133 71.2029 23.7967C71.2862 23.88 71.333 23.9931 71.333 24.1109V29.8887Z" fill="#1A1A1A"/>
<path d="M117.565 23.6672H111.788C111.542 23.6672 111.343 23.8661 111.343 24.1116V29.8893C111.343 30.1348 111.542 30.3338 111.788 30.3338H117.565C117.811 30.3338 118.01 30.1348 118.01 29.8893V24.1116C118.01 23.8661 117.811 23.6672 117.565 23.6672Z" fill="#1A1A1A"/>
<path d="M110.896 17.0005H105.119C104.873 17.0005 104.674 17.1994 104.674 17.445V23.2226C104.674 23.468 104.873 23.6671 105.119 23.6671H110.896C111.142 23.6671 111.341 23.468 111.341 23.2226V17.445C111.341 17.1994 111.142 17.0005 110.896 17.0005Z" fill="#1A1A1A"/>
<path d="M124.229 17.0005H118.452C118.206 17.0005 118.007 17.1994 118.007 17.445V23.2226C118.007 23.468 118.206 23.6671 118.452 23.6671H124.229C124.475 23.6671 124.674 23.468 124.674 23.2226V17.445C124.674 17.1994 124.475 17.0005 124.229 17.0005Z" fill="#1A1A1A"/>
<path d="M110.896 30.3334H105.119C104.873 30.3334 104.674 30.5324 104.674 30.7778V36.5555C104.674 36.801 104.873 37 105.119 37H110.896C111.142 37 111.341 36.801 111.341 36.5555V30.7778C111.341 30.5324 111.142 30.3334 110.896 30.3334Z" fill="#1A1A1A"/>
<path d="M124.229 30.3334H118.452C118.206 30.3334 118.007 30.5324 118.007 30.7778V36.5555C118.007 36.801 118.206 37 118.452 37H124.229C124.475 37 124.674 36.801 124.674 36.5555V30.7778C124.674 30.5324 124.475 30.3334 124.229 30.3334Z" fill="#1A1A1A"/>
<path d="M100.888 17.0005H95.1104C94.865 17.0005 94.666 17.1994 94.666 17.445V23.2226C94.666 23.468 94.865 23.6671 95.1104 23.6671H100.888C101.133 23.6671 101.333 23.468 101.333 23.2226V17.445C101.333 17.1994 101.133 17.0005 100.888 17.0005Z" fill="#1A1A1A"/>
<path d="M100.888 30.3334H95.1104C94.865 30.3334 94.666 30.5324 94.666 30.7778V36.5555C94.666 36.801 94.865 37 95.1104 37H100.888C101.133 37 101.333 36.801 101.333 36.5555V30.7778C101.333 30.5324 101.133 30.3334 100.888 30.3334Z" fill="#1A1A1A"/>
<path d="M94.6659 24.1059C94.6659 23.9881 94.6191 23.875 94.5358 23.7917C94.4524 23.7083 94.3393 23.6616 94.2215 23.6616H87.9994V17.4445C87.9994 17.3265 87.9525 17.2135 87.8692 17.1302C87.7858 17.0468 87.6728 17 87.5549 17H81.7773C81.6593 17 81.5463 17.0468 81.463 17.1302C81.3796 17.2135 81.3328 17.3265 81.3328 17.4445V36.5452C81.3328 36.6631 81.3796 36.7761 81.463 36.8594C81.5463 36.9428 81.6593 36.9896 81.7773 36.9896H87.5549C87.6728 36.9896 87.7858 36.9428 87.8692 36.8594C87.9525 36.7761 87.9994 36.6631 87.9994 36.5452V30.3281H94.2215C94.3393 30.3281 94.4524 30.2812 94.5358 30.1979C94.6191 30.1145 94.6659 30.0015 94.6659 29.8837V24.1059Z" fill="#1A1A1A"/>
</svg>