<svg xmlns="http://www.w3.org/2000/svg" width="182" height="54" viewBox="0 0 182 54" fill="none">
<g clip-path="url(#clip0_3070_3157)">
<mask id="mask0_3070_3157" style="mask-type:luminance" maskUnits="userSpaceOnUse" x="43" y="10" width="86" height="32">
<path d="M43 10H128.647V42H43V10Z" fill="white"/>
</mask>
<g mask="url(#mask0_3070_3157)">
<path d="M77.259 18H80.6842V31.7144H84.1105V14.5713H80.6847C78.8003 14.5713 77.259 16.1144 77.259 18ZM87.5363 31.7144H90.9621V24.8569C90.9621 22.9713 89.4207 21.4288 87.5369 21.4288L87.5363 31.7144ZM94.3885 21.4288V31.7144H97.8136V24.8569H101.24V28.2856C101.24 30.1713 102.782 31.7144 104.666 31.7144V24.8569C104.666 22.9713 103.124 21.4288 101.24 21.4288H94.3885ZM125.221 21.4288H121.795V18C121.795 16.1144 120.254 14.5713 118.369 14.5713V28.2856H111.518V24.8575H114.944V21.4288H111.518C109.633 21.4288 108.092 22.9713 108.092 24.8569V28.2856C108.092 30.1713 109.633 31.7144 111.518 31.7144H121.795V24.8569H125.221V28.2856C125.221 30.1713 126.763 31.7144 128.647 31.7144V24.8569C128.647 22.9713 127.105 21.4288 125.221 21.4288ZM87.5363 18H90.9621C90.9621 16.1144 89.4207 14.5713 87.5369 14.5713L87.5363 18Z" fill="#0A192B"/>
<path fill-rule="evenodd" clip-rule="evenodd" d="M82.6 35.1431V37.3594H82.2859L81.0533 35.8234V37.3588H80.6848V35.1425H80.9988L82.2314 36.685V35.1431H82.6ZM89.5689 37.3594H88.2397V35.1431H89.5369V35.507H88.6338V36.0581H89.4409V36.4219H88.6338V36.995H89.5689V37.3594ZM95.2086 35.507H95.9357V37.3588H96.3298V35.507H97.0563V35.1431H95.2086V35.507ZM105.441 35.1431H105.819L105.178 37.3594H104.81L104.269 35.7571L103.737 37.3588H103.366L102.696 35.1425H103.138L103.59 36.723L104.089 35.1431H104.48L104.992 36.7253L105.441 35.1431ZM111.785 35.472C111.568 35.6913 111.459 35.9627 111.459 36.2856C111.459 36.6258 111.569 36.9008 111.789 37.1123C112.009 37.3233 112.287 37.4288 112.624 37.4288C112.96 37.4288 113.238 37.3209 113.46 37.1058C113.683 36.8907 113.793 36.6169 113.793 36.2856C113.793 35.9479 113.683 35.6729 113.46 35.4596C113.241 35.2486 112.962 35.1431 112.624 35.1431C112.287 35.1431 112.007 35.2528 111.785 35.472ZM112.09 36.8433C111.946 36.6951 111.875 36.5096 111.875 36.2862C111.875 36.0581 111.946 35.8714 112.086 35.7256C112.156 35.654 112.24 35.5975 112.332 35.5599C112.425 35.5223 112.524 35.5042 112.624 35.507C112.836 35.507 113.014 35.5799 113.159 35.7256C113.305 35.8738 113.377 36.0599 113.377 36.2856C113.377 36.5096 113.309 36.6951 113.172 36.8427C113.038 36.9908 112.855 37.0649 112.624 37.0649C112.411 37.0649 112.233 36.9908 112.09 36.8433ZM119.827 36.5357V37.3653H119.433V35.149C119.544 35.149 119.665 35.1485 119.795 35.1461C119.925 35.1443 120.032 35.1431 120.115 35.1431C120.657 35.1431 120.929 35.3707 120.929 35.827C120.929 35.9959 120.885 36.1351 120.797 36.2448C120.719 36.3435 120.615 36.4181 120.496 36.4599L121.198 37.3653H120.721L120.103 36.5357H119.827ZM120.096 35.507C120.086 35.507 120.068 35.5082 120.045 35.5099C120.022 35.5099 119.988 35.5111 119.946 35.5135H119.827V36.1719H120.083C120.193 36.1769 120.302 36.1445 120.391 36.08C120.43 36.0514 120.462 36.0137 120.483 35.9701C120.504 35.9265 120.514 35.8784 120.512 35.8299C120.512 35.6148 120.374 35.507 120.096 35.507ZM126.838 37.3588H127.231V36.2163L128.147 37.3588H128.647L127.667 36.1748L128.589 35.1431H128.115L127.231 36.1938V35.1437H126.838V37.36V37.3588Z" fill="#2F7AEA"/>
<path d="M50.952 27.459L51.7508 21.4335L44.8074 16.6086L51.1523 18.7585L52.6516 16.4593L58.1212 13.059L70.187 19.7091L70.8116 29.859L65.4409 37.3339L61.1944 37.984L63.3929 33.9585V30.0836L61.7941 27.059L60.1704 25.984L57.672 28.5588V31.2836L55.7236 33.1088L53.2507 33.4086L52.1514 34.0338L50.3529 33.459L49.6033 30.7585L50.9526 28.8587V27.459H50.952Z" fill="white"/>
<path d="M62.043 16.5588C60.7191 16.2839 59.2696 16.3585 59.2696 16.3585C59.2696 16.3585 58.7956 18.5588 55.848 19.1336C55.8729 19.1336 59.7449 20.4587 62.043 16.5588ZM63.2418 36.5085C64.8406 35.2587 66.04 33.5336 66.5899 31.584C66.6142 31.5087 66.8388 31.3837 66.9894 31.2836C67.2388 31.1336 67.4889 31.0086 67.5387 30.8089C67.6388 30.2341 67.6886 29.6338 67.6886 29.0335C67.6886 28.8083 67.4634 28.5837 67.2388 28.3585C67.064 28.2086 66.8892 28.0338 66.8892 27.9087C66.6391 25.6332 65.5902 23.5087 63.9168 21.9591L63.7419 22.1339C65.3656 23.6587 66.4145 25.7339 66.6397 27.9336C66.6646 28.1339 66.8643 28.3336 67.064 28.5339C67.2388 28.6839 67.4385 28.909 67.4385 29.0086C67.4385 29.5834 67.3888 30.1582 67.2886 30.7336C67.2637 30.8338 67.0391 30.9339 66.8643 31.0335C66.6142 31.1585 66.3896 31.2836 66.3399 31.4839C65.7333 33.6073 64.3862 35.4432 62.5425 36.659C62.8673 35.9585 63.8913 33.6842 64.4412 32.5339L64.3411 28.8338L61.1689 25.7582L59.3704 26.0089L57.3971 29.2089C57.3971 29.2089 58.3209 30.384 57.0219 31.7588C55.7479 33.1087 54.7488 33.4086 54.7488 33.4086L53.8243 32.9084C54.0993 32.5588 54.6486 32.0338 55.0735 31.6836C55.7976 31.0839 56.5224 31.0335 56.5224 30.384C56.5473 29.0335 55.0984 29.4086 55.0984 29.4086L54.5739 29.9087L54.3488 31.7588L53.2501 33.1336L53.1251 33.1087L51.3265 32.7087C51.3265 32.7087 52.4258 32.1339 52.6006 31.4839C52.7754 30.8587 52.251 28.784 52.2255 28.659C52.251 28.6839 52.7505 29.1087 52.9751 29.8086C53.3745 28.7087 53.8996 27.6587 54.0495 27.5585C54.1988 27.459 56.2225 26.384 56.2225 26.384L55.5482 28.1588L56.0477 27.8839L57.2465 24.9339C57.2465 24.9339 58.4211 24.3591 59.2951 24.3591C60.8691 24.3336 63.192 22.4089 62.1431 18.9588C62.4424 19.0833 67.6388 21.6836 68.5378 26.784C69.2122 30.7087 66.9894 34.384 63.2418 36.5085Z" fill="#94A6C3"/>
<path d="M57.2969 17.1087C57.8717 16.4338 57.6465 15.4335 57.6465 15.4335L55.973 17.9087C55.9476 17.9087 56.5722 17.9336 57.2969 17.1087ZM51.6762 30.6341L51.8759 29.6338C51.8759 29.6338 51.0522 31.0839 50.9769 31.2836C50.9016 31.5087 51.0267 31.9087 51.3514 31.8839C51.6762 31.859 52.0762 31.3837 52.0762 31.0341C52.0762 30.5837 51.6762 30.6341 51.6762 30.6341Z" fill="#0A192B"/>
<path d="M66.5141 14.7336C66.5141 14.7336 67.7633 14.784 69.0622 14.9339C66.1402 12.6341 63.3674 11.9591 61.1191 11.9591C58.021 11.9591 55.9227 13.2338 55.7976 13.309L56.7725 11.7588C56.7725 11.7588 52.8756 11.3837 51.5013 15.5087C51.1517 14.6341 50.827 13.3588 50.827 13.3588C50.827 13.3588 48.8033 15.1336 49.7526 18.0836C47.4296 17.2338 44.107 16.0587 43.9825 16.0338C43.8071 16.0089 43.7573 16.0836 43.7573 16.0836C43.7573 16.0836 43.7076 16.1588 43.8575 16.2839C44.1319 16.509 49.3781 20.384 50.5271 21.1336C50.2771 22.0338 50.2771 22.4587 50.5271 22.8836C50.8768 23.4584 50.9016 23.7588 50.8519 24.1837C50.8021 24.6086 50.3523 28.2839 50.2522 28.7336C50.1526 29.184 49.1031 30.784 49.1535 31.2587C49.2033 31.7339 49.8528 33.7588 50.4276 33.984C50.8519 34.1339 51.9008 34.4587 52.6006 34.4587C52.8501 34.4587 53.0747 34.4089 53.1754 34.3087C53.5997 33.9336 53.7248 33.8584 54.0246 33.8584H54.0993C54.2237 33.8584 54.3742 33.8839 54.549 33.8839C54.9485 33.8839 55.4735 33.8086 55.848 33.459C56.3973 32.909 57.3473 32.1588 57.6465 31.8086C58.021 31.3339 58.2213 30.6839 58.1206 30.0338C58.0465 29.4335 58.3713 28.909 58.7458 28.384C59.2199 27.7588 60.0945 26.6341 60.0945 26.6341C61.8184 27.9336 62.8922 29.9087 62.8922 32.109C62.8922 36.0083 59.4948 39.1585 55.2987 39.1585C54.6486 39.1585 54.0246 39.0839 53.4 38.9333C55.3236 39.6089 56.9473 39.8341 58.2711 39.8341C61.0936 39.8341 62.5929 38.8089 62.5929 38.8089C62.5929 38.8089 62.0679 39.4839 61.2187 40.259H61.2436C65.915 39.6089 68.1888 35.7588 68.1888 35.7588C68.1888 35.7588 68.0133 37.0092 67.7888 37.859C74.0086 33.1834 72.9597 27.3339 72.9342 27.1336C72.9846 27.2089 73.6092 27.9585 73.9339 28.3585C74.933 18.0593 66.5141 14.7336 66.5141 14.7336ZM56.9473 31.184C56.8471 31.3085 56.4222 31.6836 56.123 31.9585C55.8231 32.2341 55.4984 32.509 55.2483 32.7585C55.1488 32.8593 54.9485 32.909 54.6486 32.909H53.899C54.2741 32.4089 55.3733 31.2587 55.7479 31.0086C56.1976 30.7087 56.4222 30.4089 56.1479 29.8839C55.8729 29.3588 55.1488 29.4839 55.1488 29.4839C55.1488 29.4839 55.5731 29.309 55.9476 29.309C55.4735 29.184 54.8738 29.309 54.5988 29.584C54.299 29.859 54.3493 30.8338 54.2243 31.459C54.0999 32.109 53.6744 32.4338 53.0249 33.0335C52.6753 33.3588 52.4258 33.459 52.2255 33.459C51.7931 33.3832 51.3672 33.2744 50.9514 33.1336C50.7025 32.8089 50.3274 31.7339 50.2273 31.2836C50.3025 31.0341 50.6018 30.509 50.7517 30.2086C51.0516 29.6338 51.2264 29.309 51.2768 29.0086C51.3763 28.5837 51.701 25.9585 51.8261 24.8587C52.1508 25.2836 52.6006 25.984 52.5005 26.4338C53.2252 25.4086 52.7002 24.4089 52.4507 24.0089C52.2255 23.6089 51.9262 22.8089 52.1757 21.9585C52.4258 21.1087 53.3253 18.7585 53.3253 18.7585C53.3253 18.7585 53.6246 19.2836 54.0495 19.184C54.4738 19.0833 57.896 13.9336 57.896 13.9336C57.896 13.9336 58.8205 15.9585 57.8462 17.4335C56.8471 18.909 55.8729 19.184 55.8729 19.184C55.8729 19.184 57.2471 19.4335 58.5206 18.5085C59.0456 19.7339 59.5452 21.0092 59.5695 21.184C59.4948 21.3588 58.4957 23.7588 58.3962 23.9087C58.3458 23.9585 57.9962 24.0587 57.7467 24.109C57.3218 24.2335 57.0717 24.3087 56.9722 24.384C56.7973 24.5339 55.9979 26.7336 55.6234 27.8092C55.173 27.9336 54.7239 28.1837 54.3991 28.6839C54.5739 28.5588 55.1233 28.4836 55.5233 28.4338C55.8729 28.4089 56.9473 28.9837 57.2216 30.0587V30.109C57.272 30.509 57.147 30.8836 56.9473 31.184ZM54.5988 31.4839C54.824 31.1585 54.7985 30.6086 54.824 30.4338C54.8489 30.259 54.8987 29.9336 55.0984 29.8839C55.2981 29.8335 55.7728 29.9087 55.7728 30.259C55.7728 30.5837 55.4231 30.659 55.1736 30.8836C54.9988 31.059 54.6486 31.4335 54.5988 31.4839ZM64.5662 26.7087C64.8157 25.4335 64.8406 24.3336 64.7659 23.4335C65.7402 24.7336 66.3399 26.3087 66.5141 27.9336C66.5396 28.1339 66.7393 28.3336 66.939 28.5339C67.1144 28.6839 67.3141 28.8836 67.3141 29.0086C67.3141 29.5834 67.2637 30.1582 67.1642 30.7336C67.1393 30.8089 66.9141 30.9339 66.7393 31.0341C66.4898 31.1585 66.2652 31.2836 66.2148 31.4839C65.6621 33.4044 64.5061 35.096 62.9176 36.3087C65.2406 33.8839 66.3648 29.8839 64.5662 26.7087ZM62.9923 36.5339C64.616 35.2836 65.8652 33.5336 66.4145 31.5585C66.4394 31.4839 66.6646 31.3588 66.8145 31.2587C67.064 31.1342 67.3141 30.9837 67.3639 30.784C67.464 30.2092 67.5138 29.6089 67.5138 29.0086C67.5138 28.7834 67.2886 28.5582 67.064 28.3336C66.9396 28.1837 66.7393 28.0089 66.7393 27.8833C66.5353 26.0662 65.8255 24.3428 64.6907 22.909C64.1911 19.9087 62.1929 18.9837 62.1425 18.9588C62.1929 19.0341 63.4919 20.9085 62.5929 23.1087C61.6685 25.3339 59.2951 24.9837 59.0954 25.0086C58.8957 25.0086 58.1212 26.0089 57.147 27.859C57.0225 27.8086 56.4975 27.6836 55.8978 27.7837C56.3476 26.5333 57.0219 24.7585 57.147 24.6086C57.1968 24.5588 57.5713 24.4587 57.8213 24.3834C58.296 24.259 58.5206 24.1837 58.5959 24.0836C58.6456 24.0089 58.8957 23.4341 59.1452 22.8338C59.3704 22.8338 59.9452 22.784 59.9944 22.7585C60.0448 22.7087 60.5194 21.4839 60.5194 21.3339C60.5194 21.2089 59.5452 18.784 59.1701 17.859C59.3455 17.6587 59.5197 17.4086 59.6951 17.1336C64.8157 17.6836 68.8127 22.0338 68.8127 27.3085C68.8127 31.3588 66.4394 34.8836 62.9923 36.5339Z" fill="#0A192B"/>
<path d="M56.3476 23.0335C56.8217 22.4836 56.5728 21.459 55.6981 21.2836C55.9233 20.7585 56.2474 19.709 56.2474 19.709C56.2474 19.709 53.6993 23.709 53.4747 23.7837C53.2495 23.859 53.0249 22.9837 53.0249 22.9837C52.5508 24.8089 53.8249 25.059 53.9742 24.4836C54.6735 24.3087 55.8729 23.5591 56.3476 23.0335Z" fill="#0A192B"/>
<path d="M54.1745 24.0089L55.4735 21.7837C55.4735 21.7837 56.2225 22.1588 55.848 22.7591C55.3739 23.4584 54.1745 24.0089 54.1745 24.0089Z" fill="#FFD923"/>
<path d="M70.2367 34.3087C69.8616 34.8089 69.4367 35.3339 68.9378 35.8341C72.1603 29.6338 69.0877 23.9585 68.9627 23.7333C69.1879 23.9585 69.4124 24.2086 69.6121 24.4338C72.085 27.1834 72.3849 31.309 70.2367 34.3087ZM73.2341 26.3336C72.1099 23.309 70.5111 20.7336 66.9893 18.4089C63.592 16.1588 59.9446 16.3336 59.7449 16.3585H59.6945C59.8196 16.3087 59.9446 16.2839 60.0696 16.259C60.8441 16.0089 61.8433 15.8086 62.8424 15.6842C65.4901 15.309 68.1633 16.2086 69.9867 18.1339L70.0364 18.1837C72.1105 20.384 73.1843 23.1336 73.2341 26.3336ZM66.1899 13.9585C62.4679 13.2593 60.0696 13.6089 58.3458 14.259C58.296 14.0587 58.1206 13.6587 57.9713 13.3339C57.4468 13.9591 56.8969 14.7087 56.5473 15.184C55.5979 15.8341 55.1985 16.4587 55.1985 16.4587C55.7479 14.5837 57.3467 13.184 59.2951 12.8338C59.8444 12.7336 60.4447 12.6839 61.0936 12.6839C62.8175 12.7087 64.5407 13.1342 66.1899 13.9591V13.9585ZM52.4258 18.7585C49.5025 18.659 50.4767 15.2587 50.5271 15.059C50.5271 15.0839 50.7268 17.7339 52.4258 18.7591V18.7585ZM55.2981 12.6341C53.0498 13.984 53.4996 17.2089 53.4996 17.2089C51.3514 13.9336 55.1233 12.7087 55.2981 12.6341Z" fill="#D82122"/>
<path d="M51.6009 19.6593C51.7508 19.7837 51.9008 20.0089 51.7259 20.3336C51.6264 20.509 51.4765 20.4836 51.2519 20.384C50.9514 20.2341 49.1529 19.184 47.5292 18.1084C49.3781 18.7591 51.2513 19.459 51.5511 19.6089L51.6015 19.6587L51.6009 19.6593Z" fill="white"/>
</g>
</g>
<defs>
<clipPath id="clip0_3070_3157">
<rect width="85.9259" height="32" fill="white" transform="translate(43 10)"/>
</clipPath>
</defs>
</svg>