<svg xmlns="http://www.w3.org/2000/svg" width="182" height="54" viewBox="0 0 182 54" fill="none">
<g clip-path="url(#clip0_3070_3167)">
<path d="M79.4185 28.3452H71.8197C71.9415 28.9437 72.2898 29.4721 72.7918 29.8201C73.3533 30.1962 74.0192 30.3857 74.6947 30.3615C75.1694 30.3704 75.6416 30.2908 76.0871 30.1269C76.5089 29.9602 76.8923 29.7093 77.2139 29.3895L78.761 31.0706C77.8138 32.1536 76.4326 32.6951 74.6174 32.6951C73.5776 32.7156 72.548 32.4885 71.6134 32.0324C70.7796 31.6246 70.0799 30.9866 69.597 30.1939C69.1179 29.3864 68.8733 28.4614 68.8905 27.5226C68.8773 26.5894 69.1189 25.6703 69.5893 24.8642C70.0505 24.0818 70.7188 23.442 71.5206 23.0154C72.3567 22.5832 73.2834 22.3552 74.2246 22.3503C75.1658 22.3454 76.0948 22.5636 76.9354 22.987C77.7217 23.4018 78.3724 24.0336 78.81 24.8074C79.2766 25.649 79.5115 26.5993 79.4907 27.5613C79.4727 27.5974 79.4546 27.8604 79.4185 28.3452ZM72.6035 25.1169C72.1452 25.504 71.8504 26.0503 71.7784 26.6459H76.7292C76.6516 26.0542 76.3577 25.5123 75.904 25.1246C75.4443 24.7408 74.8602 24.5382 74.2615 24.5547C73.6593 24.5372 73.0709 24.7367 72.6035 25.1169Z" fill="#1A1A1A"/>
<path d="M85.1867 31.9009C84.1361 31.3459 83.2584 30.5128 82.6494 29.4926C82.0255 28.4399 81.7051 27.2351 81.7237 26.0116C81.7051 24.7881 82.0255 23.5833 82.6494 22.5306C83.2591 21.511 84.1367 20.678 85.1867 20.1223C86.3053 19.5343 87.5536 19.2364 88.8172 19.2559C89.8719 19.2402 90.9184 19.443 91.8908 19.8516C92.7889 20.233 93.5841 20.8215 94.2114 21.5688L92.2698 23.3738C91.8722 22.8886 91.3704 22.4992 90.8017 22.2345C90.233 21.9698 89.612 21.8366 88.9848 21.8447C88.2291 21.8321 87.483 22.0151 86.8189 22.3759C86.1941 22.7196 85.6799 23.2338 85.3362 23.8586C84.9734 24.522 84.7894 25.2684 84.8025 26.0245C84.7891 26.7806 84.9731 27.5271 85.3362 28.1904C85.6799 28.8152 86.1941 29.3294 86.8189 29.6731C87.4822 30.0362 88.2287 30.2202 88.9848 30.2068C89.6137 30.2141 90.2361 30.0787 90.8051 29.8107C91.3741 29.5427 91.8749 29.1492 92.2698 28.6597L94.2114 30.4647C93.5894 31.2221 92.7931 31.8175 91.8908 32.2C90.9096 32.601 89.8562 32.795 88.7966 32.7699C87.5395 32.7868 86.2983 32.488 85.1867 31.9009Z" fill="#1A1A1A"/>
<path d="M104.525 23.464C105.359 24.2049 105.776 25.3223 105.776 26.8161V32.5455H103.048V31.295C102.501 32.2284 101.481 32.6951 99.9873 32.6951C99.2981 32.7113 98.6136 32.5775 97.9812 32.3032C97.4574 32.0718 97.0102 31.6962 96.692 31.2202C96.3931 30.7525 96.238 30.2074 96.2459 29.6525C96.229 29.2273 96.3163 28.8044 96.5001 28.4206C96.6839 28.0368 96.9586 27.7038 97.3005 27.4504C97.9915 26.9141 99.0737 26.6459 100.547 26.6459H102.867C102.885 26.3743 102.842 26.1023 102.742 25.8492C102.642 25.596 102.488 25.368 102.29 25.1813C101.906 24.8384 101.326 24.6656 100.555 24.6656C100.018 24.6664 99.4853 24.7535 98.9765 24.9235C98.5011 25.07 98.0557 25.3006 97.6615 25.6042L96.6146 23.5698C97.215 23.1606 97.8814 22.8579 98.5846 22.675C99.3536 22.4609 100.148 22.3534 100.947 22.3553C102.497 22.3536 103.69 22.7231 104.525 23.464ZM102.042 30.3899C102.429 30.1593 102.72 29.798 102.862 29.3714V28.34H100.864C99.6693 28.34 99.0676 28.7319 99.059 29.5158C99.0533 29.6883 99.0903 29.8596 99.1668 30.0143C99.2433 30.1691 99.3569 30.3026 99.4974 30.4028C99.8532 30.6384 100.275 30.7532 100.702 30.7303C101.17 30.7423 101.634 30.6245 102.04 30.3899H102.042Z" fill="#1A1A1A"/>
<path d="M110.27 32.3857C109.598 32.2325 108.956 31.9712 108.367 31.6121L109.337 29.5338C109.842 29.8441 110.389 30.0794 110.961 30.2326C111.568 30.406 112.197 30.4929 112.828 30.4905C114.061 30.4905 114.677 30.1862 114.677 29.5777C114.673 29.4319 114.62 29.2917 114.526 29.1798C114.433 29.068 114.304 28.991 114.161 28.9614C113.658 28.8016 113.14 28.6953 112.614 28.6443C111.927 28.5486 111.247 28.4047 110.58 28.2137C110.049 28.0556 109.569 27.7593 109.19 27.355C108.798 26.9459 108.602 26.3614 108.602 25.6016C108.597 24.9915 108.796 24.3971 109.167 23.9127C109.581 23.3852 110.138 22.9871 110.771 22.7653C111.569 22.4748 112.415 22.3349 113.264 22.3527C113.976 22.354 114.686 22.4327 115.381 22.5874C115.994 22.7076 116.583 22.9253 117.127 23.232L116.157 25.2948C115.275 24.7972 114.277 24.5394 113.264 24.547C112.783 24.5161 112.302 24.6047 111.864 24.8049C111.731 24.8619 111.617 24.955 111.535 25.0734C111.452 25.1919 111.405 25.3311 111.397 25.4753C111.395 25.625 111.444 25.771 111.535 25.8898C111.626 26.0085 111.755 26.0932 111.9 26.1302C112.423 26.2973 112.961 26.4156 113.506 26.4835C114.186 26.5906 114.858 26.7369 115.52 26.9218C116.043 27.0787 116.514 27.3725 116.884 27.7727C117.292 28.2484 117.5 28.8643 117.462 29.49C117.472 30.0954 117.275 30.6861 116.902 31.1635C116.475 31.6859 115.91 32.0773 115.27 32.2928C114.452 32.5778 113.589 32.714 112.723 32.6951C111.895 32.6967 111.071 32.5928 110.27 32.3857Z" fill="#1A1A1A"/>
<path d="M129.3 23.4744C130.066 24.2204 130.449 25.3274 130.447 26.7955V32.5455H127.536V27.2441C127.536 26.4482 127.364 25.8543 127.02 25.4624C126.827 25.2597 126.591 25.102 126.33 25.0005C126.069 24.8989 125.789 24.8559 125.509 24.8745C125.186 24.8593 124.863 24.912 124.561 25.0292C124.259 25.1465 123.985 25.3256 123.756 25.5552C123.312 26.009 123.091 26.6837 123.091 27.5793V32.5455H120.182V18.7041H123.091V23.5491C123.488 23.1563 123.966 22.8538 124.491 22.6621C125.065 22.4514 125.672 22.3466 126.283 22.3527C127.531 22.3527 128.537 22.7266 129.3 23.4744Z" fill="#1A1A1A"/>
<path fill-rule="evenodd" clip-rule="evenodd" d="M44.4256 21.5535C46.1584 20.5504 47.9066 19.5474 49.6394 18.5443C49.8939 18.3924 50.1848 18.3122 50.4813 18.3122C50.7777 18.3122 51.0686 18.3924 51.3231 18.5443L53.9016 20.0167C53.9347 20.0373 53.9619 20.066 53.9808 20.1C53.9997 20.1341 54.0096 20.1724 54.0096 20.2113C54.0096 20.2503 53.9997 20.2886 53.9808 20.3227C53.9619 20.3567 53.9347 20.3854 53.9016 20.406L47.5998 24.0314C47.5203 24.0773 47.4545 24.1435 47.4092 24.2233C47.3639 24.3031 47.3407 24.3935 47.3419 24.4852V27.5279C47.3409 27.6171 47.3643 27.705 47.4098 27.7819C47.4553 27.8587 47.521 27.9216 47.5998 27.9636L50.2376 29.4849C50.3127 29.5329 50.3999 29.5584 50.489 29.5584C50.5781 29.5584 50.6653 29.5329 50.7404 29.4849L61.6165 23.2217C63.4628 22.1542 63.4628 19.0781 61.6165 18.0106L51.8388 12.3766C51.4313 12.1299 50.9641 11.9995 50.4877 11.9995C50.0114 11.9995 49.5441 12.1299 49.1366 12.3766L39.3589 18.0106C38.9438 18.245 38.5989 18.5862 38.36 18.9988C38.121 19.4113 37.9968 19.8803 38 20.357C38 24.1191 38.0155 27.8837 38 31.638C37.9968 32.1151 38.1211 32.5843 38.36 32.9973C38.5989 33.4102 38.9437 33.7519 39.3589 33.987L49.1366 39.6365C49.547 39.8747 50.0131 40.0002 50.4877 40.0002C50.9623 40.0002 51.4284 39.8747 51.8388 39.6365L61.6165 33.987C62.0315 33.7531 62.3755 33.4112 62.612 32.9977C62.8485 32.5841 62.9688 32.1143 62.9599 31.638V26.7388L51.3231 33.4687C51.0681 33.6194 50.7774 33.6988 50.4813 33.6988C50.1851 33.6988 49.8944 33.6194 49.6394 33.4687L44.4463 30.457C44.1874 30.3129 43.9723 30.1013 43.8239 29.8448C43.6754 29.5884 43.5991 29.2965 43.6031 29.0002V22.9948C43.602 22.7033 43.6777 22.4166 43.8225 22.1636C43.9674 21.9106 44.1763 21.7001 44.4282 21.5535H44.4256Z" fill="url(#paint0_linear_3070_3167)"/>
</g>
<defs>
<linearGradient id="paint0_linear_3070_3167" x1="44.4617" y1="8.17616" x2="55.4797" y2="40.8329" gradientUnits="userSpaceOnUse">
<stop stop-color="#273498"/>
<stop offset="0.53" stop-color="#0074C2"/>
<stop offset="1" stop-color="#00ABE7"/>
</linearGradient>
<clipPath id="clip0_3070_3167">
<rect width="92.4472" height="28" fill="white" transform="translate(38 12)"/>
</clipPath>
</defs>
</svg>