<svg width="24" height="24" viewBox="0 0 24 24" fill="none" xmlns="http://www.w3.org/2000/svg">
<path d="M7.33898 10.085L12 5.424L16.6631 10.087L19.3751 7.37501L12 0L4.62718 7.3728L7.33908 10.0848L7.33898 10.085ZM0 12L2.71209 9.28752L5.42398 11.9994L2.71189 14.7115L0 12ZM7.33898 13.9153L12 18.576L16.663 13.9131L19.3765 16.6236L19.3751 16.6251L12 24L4.62718 16.6272L4.62334 16.6234L7.33927 13.915L7.33898 13.9153ZM18.5759 12.0012L21.288 9.28906L23.9999 12.001L21.2879 14.7131L18.5759 12.0012Z" fill="#F3BA2F"/>
<path d="M14.7505 11.9981H14.7517L11.9999 9.24609L9.966 11.2795L9.73234 11.5133L9.25042 11.9953L9.24658 11.999L9.25042 12.003L11.9999 14.753L14.7519 12.001L14.7532 11.9994L14.7507 11.9981" fill="#F3BA2F"/>
</svg>
