<svg width="24" height="24" viewBox="0 0 24 24" fill="none" xmlns="http://www.w3.org/2000/svg">
<path d="M12 24C18.6276 24 24 18.6276 24 12C24 5.3724 18.6276 0 12 0C5.3724 0 0 5.3724 0 12C0 18.6276 5.3724 24 12 24Z" fill="#0064DC"/>
<path d="M11.9993 3L12.4783 4.47265H14.0277L12.774 5.38344L13.253 6.85757L11.9993 5.94677L10.747 6.85757L11.2246 5.38344L9.97232 4.47265H11.5217L11.9993 3ZM5.63606 5.63627L7.01692 6.33859L8.11097 5.24446L7.86998 6.77329L9.24936 7.47708L7.71918 7.71957L7.47671 9.24988L6.77446 7.8689L5.24427 8.11138L6.33832 7.01725L5.63606 5.63627ZM3 12L4.474 11.5209V9.97142L5.38472 11.2252L6.85725 10.7462L5.94653 12L6.85725 13.2538L5.38472 12.7748L4.474 14.0286V12.4791L3 12ZM5.63606 18.3637L6.33979 16.9827L5.24427 15.8886L6.77446 16.1311L7.47671 14.7501L7.71918 16.2804L9.24936 16.5229L7.86998 17.2267L8.11244 18.7555L7.01692 17.6614L5.63606 18.3637ZM11.9993 21L11.5217 19.5274H9.97084L11.2246 18.6166L10.7455 17.1424L11.9978 18.0532L13.2515 17.1424L12.7725 18.6166L14.0262 19.5274H12.4768L11.9978 21H11.9993ZM18.3639 18.3637L16.9831 17.6599L15.889 18.7555L16.13 17.2252L14.7492 16.5229L16.2793 16.2804L16.5218 14.7501L17.2255 16.1311L18.7557 15.8886L17.6602 16.9827L18.3639 18.3637ZM21 12L19.526 12.4791V14.0271L18.6153 12.7748L17.1428 13.2538L18.052 12L17.1428 10.7462L18.6153 11.2252L19.526 9.97142V11.5209L20.9985 12H21ZM18.3639 5.63627L17.6602 7.01577L18.7543 8.11138L17.2255 7.8689L16.5218 9.24988L16.2793 7.71957L14.7506 7.47708L16.13 6.77329L15.8876 5.24446L16.9831 6.33859L18.3639 5.63627Z" fill="#FFDA44"/>
</svg>
