<svg width="24" height="24" viewBox="0 0 24 24" fill="none" xmlns="http://www.w3.org/2000/svg">
<circle cx="12" cy="12" r="12" fill="#FF0000"/>
<path d="M18.8053 8.9493C18.194 8.524 17.5403 8.07058 16.9008 7.62068C16.8866 7.61014 16.8725 7.59959 16.8548 7.58905C16.7841 7.53633 16.7029 7.48009 16.6039 7.44846L16.5969 7.44494C14.8867 7.0337 13.1482 6.61192 11.4663 6.2042C9.93982 5.83514 8.41689 5.46608 6.89043 5.09702C6.85157 5.08647 6.8127 5.07593 6.7703 5.06538C6.63249 5.02672 6.47348 4.98454 6.30388 5.00563C6.25441 5.01266 6.21201 5.03024 6.17314 5.05484L6.13074 5.08999C6.0636 5.15326 6.02827 5.2341 6.0106 5.27979L6 5.30791V5.46959L6.00707 5.4942C6.9717 8.18306 7.96108 10.9106 8.91511 13.5502C9.65007 15.5818 10.4133 17.6872 11.1589 19.754C11.2048 19.8946 11.3355 19.9859 11.4981 20H11.5334C11.6854 20 11.8196 19.9262 11.8868 19.8067L14.6853 15.747C15.3672 14.7594 16.0492 13.7682 16.7311 12.7805C17.0103 12.3763 17.2894 11.9686 17.5686 11.5644C18.0279 10.8965 18.5014 10.2076 18.9714 9.53628L18.9961 9.50113V9.45895C19.0067 9.33593 19.0102 9.08286 18.8053 8.9493ZM15.5262 10.4291C14.869 10.77 14.1976 11.1215 13.5228 11.4694C13.915 11.0512 14.3107 10.6294 14.7029 10.2111C15.1941 9.6839 15.7064 9.1391 16.2082 8.60484L16.2188 8.5943C16.2612 8.53806 16.3142 8.48534 16.3707 8.4291C16.4096 8.39044 16.452 8.35177 16.4909 8.30608C16.7523 8.48534 17.0174 8.66811 17.2718 8.84737C17.4555 8.97742 17.6428 9.10747 17.8336 9.23752C17.0562 9.63118 16.2789 10.0354 15.5262 10.4291ZM13.8372 10.2603C13.3319 10.8051 12.809 11.364 12.2896 11.9158C11.2825 10.6997 10.2543 9.46598 9.25786 8.27445C8.80557 7.73316 8.34976 7.18836 7.89747 6.64707L7.89394 6.64355C7.79147 6.52756 7.69253 6.40103 7.59359 6.28152C7.52999 6.20068 7.46286 6.12336 7.39572 6.04251C7.8056 6.14796 8.21902 6.24638 8.62537 6.34128C8.98225 6.42563 9.35326 6.5135 9.71721 6.60489C11.7666 7.10048 13.8196 7.59608 15.869 8.09167C15.187 8.81573 14.5015 9.55034 13.8372 10.2603ZM12.0599 17.1108C12.0988 16.7417 12.1412 16.3621 12.1765 15.9896C12.2083 15.6908 12.2401 15.385 12.2719 15.0933C12.3214 14.6258 12.3744 14.1407 12.4168 13.6662L12.4274 13.5819C12.4627 13.2796 12.498 12.9668 12.5192 12.654C12.5581 12.6329 12.6005 12.6118 12.6465 12.5942C12.6995 12.5696 12.7525 12.5485 12.8055 12.5169C13.6217 12.0916 14.4379 11.6663 15.2577 11.2445C16.0739 10.8227 16.9114 10.3869 17.7417 9.95455C16.9856 11.0442 16.2259 12.1443 15.4909 13.2163C14.8584 14.1337 14.2082 15.0792 13.5616 16.0106C13.3072 16.3832 13.0422 16.7628 12.7913 17.1284C12.5086 17.5361 12.2189 17.9544 11.9362 18.3726C11.9716 17.9508 12.014 17.5255 12.0599 17.1108ZM7.13424 6.87202C7.08831 6.74548 7.03884 6.61544 6.99644 6.49242C7.95047 7.63826 8.91158 8.79113 9.84795 9.90885C10.332 10.4888 10.8161 11.0652 11.3002 11.6487C11.3956 11.7577 11.491 11.8737 11.5829 11.9861C11.703 12.1302 11.8232 12.2814 11.9539 12.4255C11.9115 12.7875 11.8762 13.1531 11.8373 13.5045C11.8126 13.7506 11.7878 13.9966 11.7596 14.2462V14.2497C11.749 14.4079 11.7278 14.566 11.7101 14.7207C11.6854 14.9351 11.6288 15.4201 11.6288 15.4201L11.6253 15.4447C11.5617 16.1547 11.4839 16.8718 11.4097 17.5677C11.3779 17.8559 11.3497 18.1512 11.3179 18.4464C11.3002 18.3937 11.279 18.341 11.2613 18.2918C11.2083 18.1512 11.1553 18.0036 11.1059 17.8595L10.7278 16.8155C9.52994 13.501 8.33209 10.19 7.13424 6.87202Z" fill="white"/>
</svg>
