<svg width="24" height="25" viewBox="0 0 24 25" fill="none" xmlns="http://www.w3.org/2000/svg">
<g clip-path="url(#clip0_4583_4021)">
<mask id="mask0_4583_4021" style="mask-type:alpha" maskUnits="userSpaceOnUse" x="0" y="0" width="24" height="25">
<path d="M0 0.0644531H24V24.0644H0V0.0644531Z" fill="white"/>
</mask>
<g mask="url(#mask0_4583_4021)">
<path fill-rule="evenodd" clip-rule="evenodd" d="M12 0.0644531C18.6275 0.0644531 24 5.43691 24 12.0645C24 18.6915 18.6275 24.0645 12 24.0645C5.37245 24.0645 0 18.6915 0 12.0645C0 5.43691 5.37245 0.0644531 12 0.0644531Z" fill="#2775CA"/>
</g>
<path fill-rule="evenodd" clip-rule="evenodd" d="M9.75091 20.4087C9.75091 20.691 9.52987 20.8513 9.25687 20.7661C5.62864 19.6087 2.99805 16.2065 2.99805 12.1922C2.99805 8.17811 5.62864 4.77583 9.25687 3.61838C9.52987 3.5337 9.75091 3.69352 9.75091 3.97579V4.67261C9.75091 4.86051 9.60528 5.0817 9.42623 5.14292C6.55564 6.19701 4.49927 8.9547 4.49927 12.1875C4.49927 15.4202 6.55564 18.1785 9.42623 19.232C9.60528 19.298 9.75091 19.5143 9.75091 19.7029V20.4087Z" fill="white"/>
<path fill-rule="evenodd" clip-rule="evenodd" d="M12.7483 17.8147C12.7483 18.022 12.579 18.1913 12.372 18.1913H11.6236C11.4166 18.1913 11.2472 18.022 11.2472 17.8147V16.629C9.6095 16.408 8.80973 15.4901 8.59318 14.2432C8.55541 14.0311 8.72478 13.8383 8.94132 13.8383H9.79782C9.97659 13.8383 10.1273 13.9656 10.1649 14.1441C10.325 14.8876 10.7532 15.4571 12.066 15.4571C13.0354 15.4571 13.7226 14.9159 13.7226 14.1068C13.7226 13.2971 13.3178 12.9914 11.8966 12.7559C9.79782 12.4736 8.80496 11.8381 8.80496 10.1911C8.80496 8.92064 9.76509 7.93255 11.252 7.72064V6.55828C11.252 6.35114 11.4215 6.18164 11.6284 6.18164H12.3767C12.5837 6.18164 12.7531 6.35114 12.7531 6.55828V7.75364C13.9625 7.97046 14.7295 8.65705 14.9791 9.79582C15.026 10.0126 14.8566 10.2146 14.6356 10.2146H13.8448C13.6755 10.2146 13.5343 10.1016 13.4826 9.93696C13.2709 9.2126 12.7531 8.9021 11.8542 8.9021C10.8613 8.9021 10.3483 9.38196 10.3483 10.0548C10.3483 10.7654 10.6403 11.1228 12.1651 11.3444C14.226 11.6266 15.2897 12.2148 15.2897 13.9705C15.2897 15.3021 14.3014 16.3797 12.7531 16.629V17.8147H12.7483Z" fill="white"/>
<path fill-rule="evenodd" clip-rule="evenodd" d="M14.744 20.7664C14.4713 20.8516 14.25 20.6913 14.25 20.409V19.7127C14.25 19.5056 14.3771 19.3128 14.5747 19.2419C17.4453 18.1878 19.5016 15.4301 19.5016 12.1973C19.5016 8.96455 17.4453 6.20687 14.5747 5.15278C14.3959 5.08678 14.25 4.87051 14.25 4.68192V3.98565C14.25 3.70337 14.4713 3.53878 14.744 3.62769C18.3723 4.78583 21.0029 8.18796 21.0029 12.2021C20.9984 16.2067 18.3723 19.6042 14.744 20.7664Z" fill="white"/>
</g>
<defs>
<clipPath id="clip0_4583_4021">
<rect width="24" height="24" fill="white" transform="translate(0 0.0644531)"/>
</clipPath>
</defs>
</svg>
