<svg width="24" height="24" viewBox="0 0 24 24" fill="none" xmlns="http://www.w3.org/2000/svg">
<path fill-rule="evenodd" clip-rule="evenodd" d="M4.59173 1.96962L0.329215 10.8895C0.312995 10.9227 0.307855 10.9601 0.314547 10.9964C0.321239 11.0327 0.339411 11.0659 0.366407 11.0912L11.8784 22.0812C11.9112 22.1124 11.9547 22.1299 12 22.1299C12.0453 22.1299 12.0889 22.1124 12.1216 22.0812L23.6336 11.0919C23.6606 11.0666 23.6788 11.0334 23.6854 10.9971C23.6922 10.9608 23.687 10.9233 23.6708 10.8902L19.4083 1.97031C19.3945 1.94035 19.3724 1.91497 19.3446 1.89721C19.3167 1.87944 19.2843 1.87004 19.2513 1.87013H4.75014C4.71693 1.86972 4.68428 1.87889 4.65618 1.89655C4.62808 1.9142 4.60568 1.93958 4.59173 1.96962Z" fill="#50AF95"/>
<path fill-rule="evenodd" clip-rule="evenodd" d="M13.4903 11.8804C13.4071 11.8866 12.977 11.9121 12.0177 11.9121C11.2547 11.9121 10.7129 11.8893 10.5229 11.8804C7.57412 11.7515 5.37314 11.2417 5.37314 10.6313C5.37314 10.0208 7.57412 9.51169 10.5229 9.38078V11.3726C10.7157 11.3864 11.2678 11.4188 12.0309 11.4188C12.9465 11.4188 13.405 11.3809 13.4875 11.3733V9.38216C16.43 9.51238 18.6262 10.0222 18.6262 10.6313C18.6262 11.2403 16.4307 11.7502 13.4875 11.8797L13.4903 11.8804ZM13.4903 9.17616V7.39379H17.5968V4.67578H6.41639V7.39379H10.5222V9.17548C7.18497 9.32772 4.67532 9.98431 4.67532 10.7711C4.67532 11.5579 7.18497 12.2138 10.5222 12.3668V18.0784H13.4896V12.3647C16.8192 12.2124 19.3247 11.5565 19.3247 10.7704C19.3247 9.98431 16.8213 9.32841 13.4896 9.17548L13.4903 9.17616Z" fill="white"/>
</svg>
