<svg width="24" height="24" viewBox="0 0 24 24" fill="none" xmlns="http://www.w3.org/2000/svg">
<path d="M24 12C24 18.6273 18.6279 24 12 24C5.37214 24 0 18.6273 0 12C0 5.37281 5.37227 0 12 0C18.6277 0 24 5.3723 24 12Z" fill="white"/>
<path d="M11.9997 0C5.37367 0 -0.00842529 5.37421 9.90163e-06 11.9858C0.00167138 13.3086 0.212871 14.581 0.609261 15.7712H4.19984V5.68816L11.9997 13.4781L19.7992 5.68816V15.7714H23.3905C23.7875 14.5813 23.9976 13.3088 24 11.986C24.0113 5.36751 18.6264 0.00159556 11.9997 0.00159556V0Z" fill="#F26822"/>
<path d="M10.2009 15.3701L6.78712 12V18.2895H4.17716L1.71436 18.2899C3.82686 21.7113 7.64467 24 11.9998 24C16.3549 24 20.1729 21.7108 22.2858 18.2894H17.2117V12L13.7977 15.3701L11.9994 17.1454L10.201 15.3701H10.2009Z" fill="#4D4D4D"/>
</svg>
